STARTFONT 2.1
COMMENT
COMMENT Converted from OpenType font "UbuntuMono-Regular.ttf" by "otf2bdf 3.0".
COMMENT
FONT -FreeType-Ubuntu Mono-Medium-R-Normal--19-140-100-100-P-83-ISO10646-1
SIZE 14 100 100
FONTBOUNDINGBOX 19 19 -6 -3
STARTPROPERTIES 19
FOUNDRY "FreeType"
FAMILY_NAME "Ubuntu Mono"
WEIGHT_NAME "Medium"
SLANT "R"
SETWIDTH_NAME "Normal"
ADD_STYLE_NAME ""
PIXEL_SIZE 19
POINT_SIZE 140
RESOLUTION_X 100
RESOLUTION_Y 100
SPACING "P"
AVERAGE_WIDTH 83
CHARSET_REGISTRY "ISO10646"
CHARSET_ENCODING "1"
FONT_ASCENT 15
FONT_DESCENT 3
COPYRIGHT "Copyright 2011 Canonical Ltd.  Licensed under the Ubuntu Font Licence 1.0"
_OTF_FONTFILE "UbuntuMono-Regular.ttf"
_OTF_PSNAME "UbuntuMono-Regular"
ENDPROPERTIES
CHARS 1224
STARTCHAR 0000
ENCODING 0
SWIDTH 462 0
DWIDTH 9 0
BBX 0 0 0 0
BITMAP
ENDCHAR
STARTCHAR 0008
ENCODING 8
SWIDTH 462 0
DWIDTH 9 0
BBX 0 0 0 0
BITMAP
ENDCHAR
STARTCHAR 0009
ENCODING 9
SWIDTH 462 0
DWIDTH 9 0
BBX 0 0 0 0
BITMAP
ENDCHAR
STARTCHAR 000D
ENCODING 13
SWIDTH 462 0
DWIDTH 9 0
BBX 0 0 0 0
BITMAP
ENDCHAR
STARTCHAR 001D
ENCODING 29
SWIDTH 462 0
DWIDTH 9 0
BBX 0 0 0 0
BITMAP
ENDCHAR
STARTCHAR 0020
ENCODING 32
SWIDTH 462 0
DWIDTH 9 0
BBX 0 0 0 0
BITMAP
ENDCHAR
STARTCHAR 0021
ENCODING 33
SWIDTH 462 0
DWIDTH 9 0
BBX 2 12 4 0
BITMAP
C0
C0
C0
C0
C0
C0
C0
80
00
00
C0
C0
ENDCHAR
STARTCHAR 0022
ENCODING 34
SWIDTH 462 0
DWIDTH 9 0
BBX 5 5 2 8
BITMAP
C8
48
48
48
48
ENDCHAR
STARTCHAR 0023
ENCODING 35
SWIDTH 462 0
DWIDTH 9 0
BBX 8 12 1 0
BITMAP
32
32
22
FF
26
64
64
44
FF
4C
CC
C8
ENDCHAR
STARTCHAR 0024
ENCODING 36
SWIDTH 462 0
DWIDTH 9 0
BBX 8 15 1 -2
BITMAP
18
18
7E
C0
C0
E0
78
1E
06
03
03
FE
78
18
18
ENDCHAR
STARTCHAR 0025
ENCODING 37
SWIDTH 462 0
DWIDTH 9 0
BBX 9 12 0 0
BITMAP
7080
D100
DB00
DA00
5400
6C00
0B00
1E80
1480
2480
6680
4380
ENDCHAR
STARTCHAR 0026
ENCODING 38
SWIDTH 462 0
DWIDTH 9 0
BBX 8 12 1 0
BITMAP
78
4C
C4
4C
78
30
72
DA
8E
86
CE
7B
ENDCHAR
STARTCHAR 0027
ENCODING 39
SWIDTH 462 0
DWIDTH 9 0
BBX 2 5 4 8
BITMAP
C0
C0
C0
C0
80
ENDCHAR
STARTCHAR 0028
ENCODING 40
SWIDTH 462 0
DWIDTH 9 0
BBX 5 17 2 -3
BITMAP
08
18
30
30
60
40
C0
C0
C0
C0
C0
40
60
60
30
18
08
ENDCHAR
STARTCHAR 0029
ENCODING 41
SWIDTH 462 0
DWIDTH 9 0
BBX 5 16 2 -2
BITMAP
C0
60
30
18
18
08
08
08
08
08
08
18
10
30
60
C0
ENDCHAR
STARTCHAR 002A
ENCODING 42
SWIDTH 462 0
DWIDTH 9 0
BBX 7 7 1 5
BITMAP
18
18
D6
7E
18
2C
64
ENDCHAR
STARTCHAR 002B
ENCODING 43
SWIDTH 462 0
DWIDTH 9 0
BBX 8 8 1 1
BITMAP
18
18
18
FF
FF
18
18
18
ENDCHAR
STARTCHAR 002C
ENCODING 44
SWIDTH 462 0
DWIDTH 9 0
BBX 4 6 3 -3
BITMAP
20
70
70
20
E0
80
ENDCHAR
STARTCHAR 002D
ENCODING 45
SWIDTH 462 0
DWIDTH 9 0
BBX 4 2 3 4
BITMAP
F0
F0
ENDCHAR
STARTCHAR 002E
ENCODING 46
SWIDTH 462 0
DWIDTH 9 0
BBX 3 3 3 0
BITMAP
60
E0
60
ENDCHAR
STARTCHAR 002F
ENCODING 47
SWIDTH 462 0
DWIDTH 9 0
BBX 6 17 2 -3
BITMAP
04
0C
0C
08
18
18
10
30
30
20
20
60
60
40
C0
C0
80
ENDCHAR
STARTCHAR 0030
ENCODING 48
SWIDTH 462 0
DWIDTH 9 0
BBX 8 12 1 0
BITMAP
3C
66
C2
C3
C3
DB
DB
C3
C3
C2
66
3C
ENDCHAR
STARTCHAR 0031
ENCODING 49
SWIDTH 462 0
DWIDTH 9 0
BBX 8 12 1 0
BITMAP
08
38
E8
08
08
08
08
08
08
08
08
7F
ENDCHAR
STARTCHAR 0032
ENCODING 50
SWIDTH 462 0
DWIDTH 9 0
BBX 8 12 1 0
BITMAP
7C
C6
06
06
06
0C
18
30
60
60
C0
FF
ENDCHAR
STARTCHAR 0033
ENCODING 51
SWIDTH 462 0
DWIDTH 9 0
BBX 8 12 1 0
BITMAP
7C
46
06
06
06
38
0E
02
03
03
86
FC
ENDCHAR
STARTCHAR 0034
ENCODING 52
SWIDTH 462 0
DWIDTH 9 0
BBX 8 12 1 0
BITMAP
06
0E
1E
36
26
46
C6
86
FF
06
06
06
ENDCHAR
STARTCHAR 0035
ENCODING 53
SWIDTH 462 0
DWIDTH 9 0
BBX 8 12 1 0
BITMAP
7E
60
60
60
60
7C
06
02
03
03
06
FC
ENDCHAR
STARTCHAR 0036
ENCODING 54
SWIDTH 462 0
DWIDTH 9 0
BBX 8 12 1 0
BITMAP
0E
38
60
40
C0
FE
C2
C3
C3
C3
66
3C
ENDCHAR
STARTCHAR 0037
ENCODING 55
SWIDTH 462 0
DWIDTH 9 0
BBX 8 12 1 0
BITMAP
FF
03
06
04
0C
08
18
18
10
30
30
30
ENDCHAR
STARTCHAR 0038
ENCODING 56
SWIDTH 462 0
DWIDTH 9 0
BBX 8 12 1 0
BITMAP
7C
46
C2
C2
66
7C
6E
C2
C3
C3
C6
7E
ENDCHAR
STARTCHAR 0039
ENCODING 57
SWIDTH 462 0
DWIDTH 9 0
BBX 8 12 1 0
BITMAP
7C
46
C2
C3
C3
C3
7F
02
06
06
3C
70
ENDCHAR
STARTCHAR 003A
ENCODING 58
SWIDTH 462 0
DWIDTH 9 0
BBX 3 9 3 0
BITMAP
60
E0
60
00
00
00
60
E0
60
ENDCHAR
STARTCHAR 003B
ENCODING 59
SWIDTH 462 0
DWIDTH 9 0
BBX 3 12 3 -3
BITMAP
60
E0
60
00
00
00
60
E0
60
60
C0
80
ENDCHAR
STARTCHAR 003C
ENCODING 60
SWIDTH 462 0
DWIDTH 9 0
BBX 8 8 1 1
BITMAP
01
0F
3C
E0
E0
38
0F
03
ENDCHAR
STARTCHAR 003D
ENCODING 61
SWIDTH 462 0
DWIDTH 9 0
BBX 8 5 1 3
BITMAP
FF
FF
00
00
FF
ENDCHAR
STARTCHAR 003E
ENCODING 62
SWIDTH 462 0
DWIDTH 9 0
BBX 8 8 1 1
BITMAP
80
F0
3C
07
07
1C
F0
80
ENDCHAR
STARTCHAR 003F
ENCODING 63
SWIDTH 462 0
DWIDTH 9 0
BBX 6 12 2 0
BITMAP
F8
8C
0C
0C
18
30
20
20
00
00
70
70
ENDCHAR
STARTCHAR 0040
ENCODING 64
SWIDTH 462 0
DWIDTH 9 0
BBX 8 15 1 -3
BITMAP
3E
63
43
C1
CF
99
91
91
91
D9
CF
40
60
3E
0E
ENDCHAR
STARTCHAR 0041
ENCODING 65
SWIDTH 462 0
DWIDTH 9 0
BBX 9 12 0 0
BITMAP
0C00
1C00
1600
1200
3200
2300
2300
6100
7F80
4180
4080
C080
ENDCHAR
STARTCHAR 0042
ENCODING 66
SWIDTH 462 0
DWIDTH 9 0
BBX 8 12 1 0
BITMAP
FC
C6
C2
C2
C6
FC
CE
C3
C3
C3
C6
FC
ENDCHAR
STARTCHAR 0043
ENCODING 67
SWIDTH 462 0
DWIDTH 9 0
BBX 8 12 1 0
BITMAP
3F
61
40
C0
C0
C0
C0
C0
C0
40
71
3F
ENDCHAR
STARTCHAR 0044
ENCODING 68
SWIDTH 462 0
DWIDTH 9 0
BBX 8 12 1 0
BITMAP
F8
CE
C6
C3
C3
C3
C3
C3
C3
C6
CE
F8
ENDCHAR
STARTCHAR 0045
ENCODING 69
SWIDTH 462 0
DWIDTH 9 0
BBX 7 12 2 0
BITMAP
FE
80
80
80
80
FC
80
80
80
80
80
FE
ENDCHAR
STARTCHAR 0046
ENCODING 70
SWIDTH 462 0
DWIDTH 9 0
BBX 7 12 2 0
BITMAP
FE
80
80
80
80
FC
80
80
80
80
80
80
ENDCHAR
STARTCHAR 0047
ENCODING 71
SWIDTH 462 0
DWIDTH 9 0
BBX 8 12 1 0
BITMAP
3F
60
40
C0
C0
C0
C3
C3
C3
43
63
3F
ENDCHAR
STARTCHAR 0048
ENCODING 72
SWIDTH 462 0
DWIDTH 9 0
BBX 8 12 1 0
BITMAP
83
83
83
83
83
FF
83
83
83
83
83
83
ENDCHAR
STARTCHAR 0049
ENCODING 73
SWIDTH 462 0
DWIDTH 9 0
BBX 6 12 2 0
BITMAP
FC
30
30
30
30
30
30
30
30
30
30
FC
ENDCHAR
STARTCHAR 004A
ENCODING 74
SWIDTH 462 0
DWIDTH 9 0
BBX 7 12 1 0
BITMAP
7E
02
02
02
02
02
02
02
02
06
C6
FC
ENDCHAR
STARTCHAR 004B
ENCODING 75
SWIDTH 462 0
DWIDTH 9 0
BBX 8 12 1 0
BITMAP
C3
C6
CC
C8
D8
F0
F8
DC
CC
C6
C3
C3
ENDCHAR
STARTCHAR 004C
ENCODING 76
SWIDTH 462 0
DWIDTH 9 0
BBX 7 12 2 0
BITMAP
80
80
80
80
80
80
80
80
80
80
80
FE
ENDCHAR
STARTCHAR 004D
ENCODING 77
SWIDTH 462 0
DWIDTH 9 0
BBX 8 12 1 0
BITMAP
C2
C6
A7
A7
AF
9B
9B
83
83
83
81
81
ENDCHAR
STARTCHAR 004E
ENCODING 78
SWIDTH 462 0
DWIDTH 9 0
BBX 8 12 1 0
BITMAP
C3
E3
E3
F3
D3
DB
CB
CB
C7
C7
C7
C3
ENDCHAR
STARTCHAR 004F
ENCODING 79
SWIDTH 462 0
DWIDTH 9 0
BBX 8 12 1 0
BITMAP
7C
66
C3
83
83
81
81
83
83
C3
66
7C
ENDCHAR
STARTCHAR 0050
ENCODING 80
SWIDTH 462 0
DWIDTH 9 0
BBX 8 12 1 0
BITMAP
FC
C6
C3
C3
C3
C2
FE
F0
C0
C0
C0
C0
ENDCHAR
STARTCHAR 0051
ENCODING 81
SWIDTH 462 0
DWIDTH 9 0
BBX 8 15 1 -3
BITMAP
7C
66
C3
83
83
81
81
83
83
C3
66
7C
18
0C
07
ENDCHAR
STARTCHAR 0052
ENCODING 82
SWIDTH 462 0
DWIDTH 9 0
BBX 8 12 1 0
BITMAP
FC
C6
C2
C2
C2
C6
FC
CC
C4
C6
C2
C3
ENDCHAR
STARTCHAR 0053
ENCODING 83
SWIDTH 462 0
DWIDTH 9 0
BBX 8 12 1 0
BITMAP
7E
62
C0
C0
60
38
0E
06
03
03
86
FC
ENDCHAR
STARTCHAR 0054
ENCODING 84
SWIDTH 462 0
DWIDTH 9 0
BBX 8 12 1 0
BITMAP
FF
18
18
18
18
18
18
18
18
18
18
18
ENDCHAR
STARTCHAR 0055
ENCODING 85
SWIDTH 462 0
DWIDTH 9 0
BBX 8 12 1 0
BITMAP
C3
C3
C3
C3
C3
C3
C3
C3
C3
C3
C6
7C
ENDCHAR
STARTCHAR 0056
ENCODING 86
SWIDTH 462 0
DWIDTH 9 0
BBX 9 12 0 0
BITMAP
C080
4180
6180
6180
6100
2300
3300
3200
1200
1E00
1C00
0C00
ENDCHAR
STARTCHAR 0057
ENCODING 87
SWIDTH 462 0
DWIDTH 9 0
BBX 8 12 1 0
BITMAP
81
81
83
83
83
9B
9B
AF
A7
A6
C6
C2
ENDCHAR
STARTCHAR 0058
ENCODING 88
SWIDTH 462 0
DWIDTH 9 0
BBX 8 12 1 0
BITMAP
C3
46
66
2C
38
18
38
2C
66
46
C3
83
ENDCHAR
STARTCHAR 0059
ENCODING 89
SWIDTH 462 0
DWIDTH 9 0
BBX 9 12 0 0
BITMAP
C080
6180
6100
3300
3200
1E00
1C00
0C00
0C00
0C00
0C00
0C00
ENDCHAR
STARTCHAR 005A
ENCODING 90
SWIDTH 462 0
DWIDTH 9 0
BBX 8 12 1 0
BITMAP
FF
02
06
0C
08
18
10
30
60
40
C0
FF
ENDCHAR
STARTCHAR 005B
ENCODING 91
SWIDTH 462 0
DWIDTH 9 0
BBX 4 17 3 -3
BITMAP
F0
F0
80
80
80
80
80
80
80
80
80
80
80
80
80
80
F0
ENDCHAR
STARTCHAR 005C
ENCODING 92
SWIDTH 462 0
DWIDTH 9 0
BBX 7 17 1 -3
BITMAP
C0
40
60
60
20
30
30
10
18
18
08
0C
0C
04
04
06
06
ENDCHAR
STARTCHAR 005D
ENCODING 93
SWIDTH 462 0
DWIDTH 9 0
BBX 5 17 2 -3
BITMAP
F8
F8
18
18
18
18
18
18
18
18
18
18
18
18
18
18
F8
ENDCHAR
STARTCHAR 005E
ENCODING 94
SWIDTH 462 0
DWIDTH 9 0
BBX 8 6 1 5
BITMAP
18
38
2C
66
46
C3
ENDCHAR
STARTCHAR 005F
ENCODING 95
SWIDTH 462 0
DWIDTH 9 0
BBX 10 1 0 -3
BITMAP
FFC0
ENDCHAR
STARTCHAR 0060
ENCODING 96
SWIDTH 462 0
DWIDTH 9 0
BBX 3 3 3 10
BITMAP
C0
60
20
ENDCHAR
STARTCHAR 0061
ENCODING 97
SWIDTH 462 0
DWIDTH 9 0
BBX 7 9 1 0
BITMAP
7C
06
02
02
7E
C2
C2
C2
7E
ENDCHAR
STARTCHAR 0062
ENCODING 98
SWIDTH 462 0
DWIDTH 9 0
BBX 8 13 1 0
BITMAP
C0
C0
C0
C0
FC
E6
C3
C3
C3
C3
C3
C6
FC
ENDCHAR
STARTCHAR 0063
ENCODING 99
SWIDTH 462 0
DWIDTH 9 0
BBX 8 9 1 0
BITMAP
3F
60
C0
C0
C0
C0
C0
61
3F
ENDCHAR
STARTCHAR 0064
ENCODING 100
SWIDTH 462 0
DWIDTH 9 0
BBX 7 13 1 0
BITMAP
02
02
02
02
7E
66
C2
C2
82
C2
C2
62
3E
ENDCHAR
STARTCHAR 0065
ENCODING 101
SWIDTH 462 0
DWIDTH 9 0
BBX 8 9 1 0
BITMAP
3C
66
C3
83
FF
80
C0
60
3E
ENDCHAR
STARTCHAR 0066
ENCODING 102
SWIDTH 462 0
DWIDTH 9 0
BBX 8 13 1 0
BITMAP
1F
30
30
30
FE
30
30
30
30
30
30
30
30
ENDCHAR
STARTCHAR 0067
ENCODING 103
SWIDTH 462 0
DWIDTH 9 0
BBX 7 12 1 -3
BITMAP
7E
62
C2
82
82
C2
C2
7E
3A
02
06
FC
ENDCHAR
STARTCHAR 0068
ENCODING 104
SWIDTH 462 0
DWIDTH 9 0
BBX 7 13 1 0
BITMAP
C0
C0
C0
C0
FC
C6
C2
C2
C2
C2
C2
C2
C2
ENDCHAR
STARTCHAR 0069
ENCODING 105
SWIDTH 462 0
DWIDTH 9 0
BBX 8 13 1 0
BITMAP
30
30
10
00
F0
10
10
10
10
10
10
19
1F
ENDCHAR
STARTCHAR 006A
ENCODING 106
SWIDTH 462 0
DWIDTH 9 0
BBX 6 16 1 -3
BITMAP
0C
0C
00
00
7C
04
04
04
04
04
04
04
04
04
0C
FC
ENDCHAR
STARTCHAR 006B
ENCODING 107
SWIDTH 462 0
DWIDTH 9 0
BBX 8 13 1 0
BITMAP
C0
C0
C0
C0
C2
C4
D8
F0
F0
D8
CC
C6
C3
ENDCHAR
STARTCHAR 006C
ENCODING 108
SWIDTH 462 0
DWIDTH 9 0
BBX 8 13 1 0
BITMAP
F0
10
10
10
10
10
10
10
10
10
10
19
1F
ENDCHAR
STARTCHAR 006D
ENCODING 109
SWIDTH 462 0
DWIDTH 9 0
BBX 8 9 1 0
BITMAP
FE
9B
99
99
99
99
81
81
81
ENDCHAR
STARTCHAR 006E
ENCODING 110
SWIDTH 462 0
DWIDTH 9 0
BBX 7 9 1 0
BITMAP
FC
C6
C2
C2
C2
C2
C2
C2
C2
ENDCHAR
STARTCHAR 006F
ENCODING 111
SWIDTH 462 0
DWIDTH 9 0
BBX 8 9 1 0
BITMAP
3C
66
C3
C3
83
C3
C3
66
3C
ENDCHAR
STARTCHAR 0070
ENCODING 112
SWIDTH 462 0
DWIDTH 9 0
BBX 8 12 1 -3
BITMAP
FC
C6
C3
C3
C3
C3
C3
E6
FC
C0
C0
C0
ENDCHAR
STARTCHAR 0071
ENCODING 113
SWIDTH 462 0
DWIDTH 9 0
BBX 7 12 1 -3
BITMAP
3E
62
C2
C2
82
C2
C2
66
7E
02
02
02
ENDCHAR
STARTCHAR 0072
ENCODING 114
SWIDTH 462 0
DWIDTH 9 0
BBX 6 9 2 0
BITMAP
FC
C0
C0
C0
C0
C0
C0
C0
C0
ENDCHAR
STARTCHAR 0073
ENCODING 115
SWIDTH 462 0
DWIDTH 9 0
BBX 7 9 1 0
BITMAP
7E
42
C0
60
3C
06
02
46
FE
ENDCHAR
STARTCHAR 0074
ENCODING 116
SWIDTH 462 0
DWIDTH 9 0
BBX 8 12 1 0
BITMAP
30
30
30
FF
30
30
30
30
30
30
31
1F
ENDCHAR
STARTCHAR 0075
ENCODING 117
SWIDTH 462 0
DWIDTH 9 0
BBX 7 9 1 0
BITMAP
C2
C2
C2
C2
C2
C2
C2
62
3E
ENDCHAR
STARTCHAR 0076
ENCODING 118
SWIDTH 462 0
DWIDTH 9 0
BBX 8 9 1 0
BITMAP
83
C3
C2
46
66
24
3C
38
18
ENDCHAR
STARTCHAR 0077
ENCODING 119
SWIDTH 462 0
DWIDTH 9 0
BBX 9 9 0 0
BITMAP
C080
4080
4C80
4C80
4D80
7780
7300
7300
2300
ENDCHAR
STARTCHAR 0078
ENCODING 120
SWIDTH 462 0
DWIDTH 9 0
BBX 8 9 1 0
BITMAP
C3
66
2C
38
18
3C
66
C2
C3
ENDCHAR
STARTCHAR 0079
ENCODING 121
SWIDTH 462 0
DWIDTH 9 0
BBX 8 12 1 -3
BITMAP
C3
C3
42
66
66
24
34
1C
18
18
10
E0
ENDCHAR
STARTCHAR 007A
ENCODING 122
SWIDTH 462 0
DWIDTH 9 0
BBX 7 9 1 0
BITMAP
7E
06
0C
18
10
30
60
40
FE
ENDCHAR
STARTCHAR 007B
ENCODING 123
SWIDTH 462 0
DWIDTH 9 0
BBX 6 17 2 -3
BITMAP
0C
3C
20
20
20
20
20
60
C0
60
20
20
20
20
20
20
3C
ENDCHAR
STARTCHAR 007C
ENCODING 124
SWIDTH 462 0
DWIDTH 9 0
BBX 2 17 4 -3
BITMAP
C0
C0
C0
C0
C0
C0
C0
C0
C0
C0
C0
C0
C0
C0
C0
C0
C0
ENDCHAR
STARTCHAR 007D
ENCODING 125
SWIDTH 462 0
DWIDTH 9 0
BBX 7 17 1 -3
BITMAP
E0
F8
18
08
08
08
08
08
0E
0C
08
08
08
08
08
18
F0
ENDCHAR
STARTCHAR 007E
ENCODING 126
SWIDTH 462 0
DWIDTH 9 0
BBX 8 3 1 4
BITMAP
20
FB
8E
ENDCHAR
STARTCHAR 00A0
ENCODING 160
SWIDTH 462 0
DWIDTH 9 0
BBX 0 0 0 0
BITMAP
ENDCHAR
STARTCHAR 00A1
ENCODING 161
SWIDTH 462 0
DWIDTH 9 0
BBX 2 12 4 -3
BITMAP
C0
C0
80
00
80
C0
C0
C0
C0
C0
C0
C0
ENDCHAR
STARTCHAR 00A2
ENCODING 162
SWIDTH 462 0
DWIDTH 9 0
BBX 8 14 1 -2
BITMAP
08
08
0C
7E
60
C0
C0
C0
C0
60
3F
08
08
08
ENDCHAR
STARTCHAR 00A3
ENCODING 163
SWIDTH 462 0
DWIDTH 9 0
BBX 8 12 1 0
BITMAP
1E
30
20
20
60
60
FC
60
60
60
60
7F
ENDCHAR
STARTCHAR 00A4
ENCODING 164
SWIDTH 462 0
DWIDTH 9 0
BBX 8 8 1 2
BITMAP
83
FE
46
42
42
46
FE
83
ENDCHAR
STARTCHAR 00A5
ENCODING 165
SWIDTH 462 0
DWIDTH 9 0
BBX 8 12 1 0
BITMAP
83
C3
46
66
2C
38
FE
18
18
FE
18
18
ENDCHAR
STARTCHAR 00A6
ENCODING 166
SWIDTH 462 0
DWIDTH 9 0
BBX 2 17 4 -3
BITMAP
C0
C0
C0
C0
C0
C0
C0
00
00
00
00
C0
C0
C0
C0
C0
C0
ENDCHAR
STARTCHAR 00A7
ENCODING 167
SWIDTH 462 0
DWIDTH 9 0
BBX 7 14 1 -2
BITMAP
3E
60
40
70
7C
46
C2
C2
76
1C
06
06
4E
7C
ENDCHAR
STARTCHAR 00A8
ENCODING 168
SWIDTH 462 0
DWIDTH 9 0
BBX 5 2 2 11
BITMAP
48
C8
ENDCHAR
STARTCHAR 00A9
ENCODING 169
SWIDTH 462 0
DWIDTH 9 0
BBX 8 9 1 0
BITMAP
3C
42
9B
A1
A1
A1
9B
42
3C
ENDCHAR
STARTCHAR 00AA
ENCODING 170
SWIDTH 462 0
DWIDTH 9 0
BBX 5 6 2 6
BITMAP
78
08
38
C8
C8
78
ENDCHAR
STARTCHAR 00AB
ENCODING 171
SWIDTH 462 0
DWIDTH 9 0
BBX 6 6 2 2
BITMAP
4C
C8
98
98
C8
4C
ENDCHAR
STARTCHAR 00AC
ENCODING 172
SWIDTH 462 0
DWIDTH 9 0
BBX 8 6 1 1
BITMAP
FF
FF
03
03
03
03
ENDCHAR
STARTCHAR 00AD
ENCODING 173
SWIDTH 462 0
DWIDTH 9 0
BBX 4 2 3 4
BITMAP
F0
F0
ENDCHAR
STARTCHAR 00AE
ENCODING 174
SWIDTH 462 0
DWIDTH 9 0
BBX 8 9 1 0
BITMAP
3C
42
BB
A5
BD
A9
A7
42
3C
ENDCHAR
STARTCHAR 00AF
ENCODING 175
SWIDTH 462 0
DWIDTH 9 0
BBX 5 1 2 11
BITMAP
F8
ENDCHAR
STARTCHAR 00B0
ENCODING 176
SWIDTH 462 0
DWIDTH 9 0
BBX 5 4 2 9
BITMAP
78
C8
C8
78
ENDCHAR
STARTCHAR 00B1
ENCODING 177
SWIDTH 462 0
DWIDTH 9 0
BBX 8 11 1 0
BITMAP
18
18
18
18
FF
18
18
18
18
00
FF
ENDCHAR
STARTCHAR 00B2
ENCODING 178
SWIDTH 462 0
DWIDTH 9 0
BBX 4 7 3 5
BITMAP
F0
10
30
60
C0
F0
F0
ENDCHAR
STARTCHAR 00B3
ENCODING 179
SWIDTH 462 0
DWIDTH 9 0
BBX 4 7 3 5
BITMAP
F0
10
60
70
10
B0
E0
ENDCHAR
STARTCHAR 00B4
ENCODING 180
SWIDTH 462 0
DWIDTH 9 0
BBX 2 3 4 10
BITMAP
40
C0
80
ENDCHAR
STARTCHAR 00B5
ENCODING 181
SWIDTH 462 0
DWIDTH 9 0
BBX 7 12 1 -3
BITMAP
C2
C2
C2
C2
C2
C2
C2
E2
FE
C0
C0
C0
ENDCHAR
STARTCHAR 00B6
ENCODING 182
SWIDTH 462 0
DWIDTH 9 0
BBX 8 15 1 -3
BITMAP
7F
FB
FB
FB
FB
FB
7B
1B
1B
1B
1B
1B
1B
1B
1B
ENDCHAR
STARTCHAR 00B7
ENCODING 183
SWIDTH 462 0
DWIDTH 9 0
BBX 3 3 3 4
BITMAP
40
E0
60
ENDCHAR
STARTCHAR 00B8
ENCODING 184
SWIDTH 462 0
DWIDTH 9 0
BBX 3 3 3 -3
BITMAP
40
20
E0
ENDCHAR
STARTCHAR 00B9
ENCODING 185
SWIDTH 462 0
DWIDTH 9 0
BBX 4 7 3 5
BITMAP
60
E0
60
60
60
F0
F0
ENDCHAR
STARTCHAR 00BA
ENCODING 186
SWIDTH 462 0
DWIDTH 9 0
BBX 6 6 2 6
BITMAP
78
8C
84
84
8C
78
ENDCHAR
STARTCHAR 00BB
ENCODING 187
SWIDTH 462 0
DWIDTH 9 0
BBX 6 6 2 2
BITMAP
98
C8
6C
64
CC
98
ENDCHAR
STARTCHAR 00BC
ENCODING 188
SWIDTH 462 0
DWIDTH 9 0
BBX 9 12 0 0
BITMAP
2080
E100
2300
2200
2400
0400
0800
1980
1380
2580
6780
4180
ENDCHAR
STARTCHAR 00BD
ENCODING 189
SWIDTH 462 0
DWIDTH 9 0
BBX 8 12 1 0
BITMAP
43
C2
46
44
48
18
10
27
61
43
C6
87
ENDCHAR
STARTCHAR 00BE
ENCODING 190
SWIDTH 462 0
DWIDTH 9 0
BBX 9 12 0 0
BITMAP
7080
1100
7300
1200
F600
0400
0800
1980
1380
2580
6780
4180
ENDCHAR
STARTCHAR 00BF
ENCODING 191
SWIDTH 462 0
DWIDTH 9 0
BBX 6 12 2 -3
BITMAP
30
38
10
00
10
30
20
40
C0
80
C4
7C
ENDCHAR
STARTCHAR 00C0
ENCODING 192
SWIDTH 462 0
DWIDTH 9 0
BBX 9 16 0 0
BITMAP
0800
0C00
0400
0000
0C00
1C00
1600
1200
3200
2300
2300
6100
7F80
4180
4080
C080
ENDCHAR
STARTCHAR 00C1
ENCODING 193
SWIDTH 462 0
DWIDTH 9 0
BBX 9 16 0 0
BITMAP
0400
0C00
1800
0000
0C00
1C00
1600
1200
3200
2300
2300
6100
7F80
4180
4080
C080
ENDCHAR
STARTCHAR 00C2
ENCODING 194
SWIDTH 462 0
DWIDTH 9 0
BBX 9 16 0 0
BITMAP
0800
1C00
1200
0000
0C00
1C00
1600
1200
3200
2300
2300
6100
7F80
4180
4080
C080
ENDCHAR
STARTCHAR 00C3
ENCODING 195
SWIDTH 462 0
DWIDTH 9 0
BBX 9 15 0 0
BITMAP
1E00
0000
0000
0C00
1C00
1600
1200
3200
2300
2300
6100
7F80
4180
4080
C080
ENDCHAR
STARTCHAR 00C4
ENCODING 196
SWIDTH 462 0
DWIDTH 9 0
BBX 9 15 0 0
BITMAP
3300
1200
0000
0C00
1C00
1600
1200
3200
2300
2300
6100
7F80
4180
4080
C080
ENDCHAR
STARTCHAR 00C5
ENCODING 197
SWIDTH 462 0
DWIDTH 9 0
BBX 9 15 0 0
BITMAP
0800
1600
1200
0C00
1C00
1600
1200
3200
2300
2300
6100
7F80
4180
4080
C080
ENDCHAR
STARTCHAR 00C6
ENCODING 198
SWIDTH 462 0
DWIDTH 9 0
BBX 8 12 1 0
BITMAP
1F
1C
3C
2C
2C
6F
4C
4C
FC
CC
8C
8F
ENDCHAR
STARTCHAR 00C7
ENCODING 199
SWIDTH 462 0
DWIDTH 9 0
BBX 8 15 1 -3
BITMAP
3F
61
40
C0
C0
C0
C0
C0
C0
40
71
3F
08
04
1C
ENDCHAR
STARTCHAR 00C8
ENCODING 200
SWIDTH 462 0
DWIDTH 9 0
BBX 7 16 2 0
BITMAP
20
30
18
00
FE
80
80
80
80
FC
80
80
80
80
80
FE
ENDCHAR
STARTCHAR 00C9
ENCODING 201
SWIDTH 462 0
DWIDTH 9 0
BBX 7 16 2 0
BITMAP
18
10
20
00
FE
80
80
80
80
FC
80
80
80
80
80
FE
ENDCHAR
STARTCHAR 00CA
ENCODING 202
SWIDTH 462 0
DWIDTH 9 0
BBX 7 16 2 0
BITMAP
10
38
4C
00
FE
80
80
80
80
FC
80
80
80
80
80
FE
ENDCHAR
STARTCHAR 00CB
ENCODING 203
SWIDTH 462 0
DWIDTH 9 0
BBX 7 15 2 0
BITMAP
6C
48
00
FE
80
80
80
80
FC
80
80
80
80
80
FE
ENDCHAR
STARTCHAR 00CC
ENCODING 204
SWIDTH 462 0
DWIDTH 9 0
BBX 6 16 2 0
BITMAP
20
30
10
00
FC
30
30
30
30
30
30
30
30
30
30
FC
ENDCHAR
STARTCHAR 00CD
ENCODING 205
SWIDTH 462 0
DWIDTH 9 0
BBX 6 16 2 0
BITMAP
10
30
20
00
FC
30
30
30
30
30
30
30
30
30
30
FC
ENDCHAR
STARTCHAR 00CE
ENCODING 206
SWIDTH 462 0
DWIDTH 9 0
BBX 6 16 2 0
BITMAP
20
70
48
00
FC
30
30
30
30
30
30
30
30
30
30
FC
ENDCHAR
STARTCHAR 00CF
ENCODING 207
SWIDTH 462 0
DWIDTH 9 0
BBX 6 15 2 0
BITMAP
CC
48
00
FC
30
30
30
30
30
30
30
30
30
30
FC
ENDCHAR
STARTCHAR 00D0
ENCODING 208
SWIDTH 462 0
DWIDTH 9 0
BBX 9 12 0 0
BITMAP
7E00
6700
6100
6180
6180
F980
6180
6180
6180
6300
6700
7C00
ENDCHAR
STARTCHAR 00D1
ENCODING 209
SWIDTH 462 0
DWIDTH 9 0
BBX 8 15 1 0
BITMAP
3C
00
00
C3
E3
E3
F3
D3
DB
CB
CB
C7
C7
C7
C3
ENDCHAR
STARTCHAR 00D2
ENCODING 210
SWIDTH 462 0
DWIDTH 9 0
BBX 8 16 1 0
BITMAP
10
18
08
00
7C
66
C3
83
83
81
81
83
83
C3
66
7C
ENDCHAR
STARTCHAR 00D3
ENCODING 211
SWIDTH 462 0
DWIDTH 9 0
BBX 8 16 1 0
BITMAP
08
18
10
00
7C
66
C3
83
83
81
81
83
83
C3
66
7C
ENDCHAR
STARTCHAR 00D4
ENCODING 212
SWIDTH 462 0
DWIDTH 9 0
BBX 8 16 1 0
BITMAP
10
38
24
00
7C
66
C3
83
83
81
81
83
83
C3
66
7C
ENDCHAR
STARTCHAR 00D5
ENCODING 213
SWIDTH 462 0
DWIDTH 9 0
BBX 8 15 1 0
BITMAP
3C
00
00
7C
66
C3
83
83
81
81
83
83
C3
66
7C
ENDCHAR
STARTCHAR 00D6
ENCODING 214
SWIDTH 462 0
DWIDTH 9 0
BBX 8 15 1 0
BITMAP
66
24
00
7C
66
C3
83
83
81
81
83
83
C3
66
7C
ENDCHAR
STARTCHAR 00D7
ENCODING 215
SWIDTH 462 0
DWIDTH 9 0
BBX 7 7 1 2
BITMAP
02
C6
6C
38
38
6C
C6
ENDCHAR
STARTCHAR 00D8
ENCODING 216
SWIDTH 462 0
DWIDTH 9 0
BBX 8 13 1 -1
BITMAP
02
7E
66
C7
8F
8B
99
91
B3
A3
E3
46
FC
ENDCHAR
STARTCHAR 00D9
ENCODING 217
SWIDTH 462 0
DWIDTH 9 0
BBX 8 16 1 0
BITMAP
10
18
08
00
C3
C3
C3
C3
C3
C3
C3
C3
C3
C3
C6
7C
ENDCHAR
STARTCHAR 00DA
ENCODING 218
SWIDTH 462 0
DWIDTH 9 0
BBX 8 16 1 0
BITMAP
08
18
10
00
C3
C3
C3
C3
C3
C3
C3
C3
C3
C3
C6
7C
ENDCHAR
STARTCHAR 00DB
ENCODING 219
SWIDTH 462 0
DWIDTH 9 0
BBX 8 16 1 0
BITMAP
10
38
24
00
C3
C3
C3
C3
C3
C3
C3
C3
C3
C3
C6
7C
ENDCHAR
STARTCHAR 00DC
ENCODING 220
SWIDTH 462 0
DWIDTH 9 0
BBX 8 15 1 0
BITMAP
66
24
00
C3
C3
C3
C3
C3
C3
C3
C3
C3
C3
C6
7C
ENDCHAR
STARTCHAR 00DD
ENCODING 221
SWIDTH 462 0
DWIDTH 9 0
BBX 9 16 0 0
BITMAP
0400
0C00
0800
0000
C080
6180
6100
3300
3200
1E00
1C00
0C00
0C00
0C00
0C00
0C00
ENDCHAR
STARTCHAR 00DE
ENCODING 222
SWIDTH 462 0
DWIDTH 9 0
BBX 8 12 1 0
BITMAP
C0
C0
FC
C6
C3
C3
C3
C6
FE
E0
C0
C0
ENDCHAR
STARTCHAR 00DF
ENCODING 223
SWIDTH 462 0
DWIDTH 9 0
BBX 8 13 1 0
BITMAP
7C
46
C6
C4
CC
D8
D8
CC
C7
C3
C1
D3
DE
ENDCHAR
STARTCHAR 00E0
ENCODING 224
SWIDTH 462 0
DWIDTH 9 0
BBX 7 13 1 0
BITMAP
30
18
08
00
7C
06
02
02
7E
C2
C2
C2
7E
ENDCHAR
STARTCHAR 00E1
ENCODING 225
SWIDTH 462 0
DWIDTH 9 0
BBX 7 13 1 0
BITMAP
0C
18
10
00
7C
06
02
02
7E
C2
C2
C2
7E
ENDCHAR
STARTCHAR 00E2
ENCODING 226
SWIDTH 462 0
DWIDTH 9 0
BBX 7 13 1 0
BITMAP
18
3C
24
00
7C
06
02
02
7E
C2
C2
C2
7E
ENDCHAR
STARTCHAR 00E3
ENCODING 227
SWIDTH 462 0
DWIDTH 9 0
BBX 7 13 1 0
BITMAP
30
7C
00
00
7C
06
02
02
7E
C2
C2
C2
7E
ENDCHAR
STARTCHAR 00E4
ENCODING 228
SWIDTH 462 0
DWIDTH 9 0
BBX 7 13 1 0
BITMAP
24
64
00
00
7C
06
02
02
7E
C2
C2
C2
7E
ENDCHAR
STARTCHAR 00E5
ENCODING 229
SWIDTH 462 0
DWIDTH 9 0
BBX 7 13 1 1
BITMAP
3C
24
18
00
7C
06
02
02
7E
C2
C2
C2
7E
ENDCHAR
STARTCHAR 00E6
ENCODING 230
SWIDTH 462 0
DWIDTH 9 0
BBX 8 9 1 0
BITMAP
FE
1B
19
19
FF
98
98
9C
FF
ENDCHAR
STARTCHAR 00E7
ENCODING 231
SWIDTH 462 0
DWIDTH 9 0
BBX 8 12 1 -3
BITMAP
3F
60
C0
C0
C0
C0
C0
61
3F
08
0C
1C
ENDCHAR
STARTCHAR 00E8
ENCODING 232
SWIDTH 462 0
DWIDTH 9 0
BBX 8 13 1 0
BITMAP
30
18
08
00
3C
66
C3
83
FF
80
C0
60
3E
ENDCHAR
STARTCHAR 00E9
ENCODING 233
SWIDTH 462 0
DWIDTH 9 0
BBX 8 13 1 0
BITMAP
0C
18
10
00
3C
66
C3
83
FF
80
C0
60
3E
ENDCHAR
STARTCHAR 00EA
ENCODING 234
SWIDTH 462 0
DWIDTH 9 0
BBX 8 13 1 0
BITMAP
18
3C
24
00
3C
66
C3
83
FF
80
C0
60
3E
ENDCHAR
STARTCHAR 00EB
ENCODING 235
SWIDTH 462 0
DWIDTH 9 0
BBX 8 13 1 0
BITMAP
24
66
00
00
3C
66
C3
83
FF
80
C0
60
3E
ENDCHAR
STARTCHAR 00EC
ENCODING 236
SWIDTH 462 0
DWIDTH 9 0
BBX 8 13 1 0
BITMAP
20
30
10
00
F0
10
10
10
10
10
10
19
1F
ENDCHAR
STARTCHAR 00ED
ENCODING 237
SWIDTH 462 0
DWIDTH 9 0
BBX 8 13 1 0
BITMAP
18
30
20
00
F0
10
10
10
10
10
10
19
1F
ENDCHAR
STARTCHAR 00EE
ENCODING 238
SWIDTH 462 0
DWIDTH 9 0
BBX 8 13 1 0
BITMAP
30
78
48
00
F0
10
10
10
10
10
10
19
1F
ENDCHAR
STARTCHAR 00EF
ENCODING 239
SWIDTH 462 0
DWIDTH 9 0
BBX 8 13 1 0
BITMAP
48
6C
00
00
F0
10
10
10
10
10
10
19
1F
ENDCHAR
STARTCHAR 00F0
ENCODING 240
SWIDTH 462 0
DWIDTH 9 0
BBX 8 13 1 0
BITMAP
18
0F
3C
06
12
7E
C6
C2
C2
C2
C6
66
3C
ENDCHAR
STARTCHAR 00F1
ENCODING 241
SWIDTH 462 0
DWIDTH 9 0
BBX 7 13 1 0
BITMAP
30
7C
00
00
FC
C6
C2
C2
C2
C2
C2
C2
C2
ENDCHAR
STARTCHAR 00F2
ENCODING 242
SWIDTH 462 0
DWIDTH 9 0
BBX 8 13 1 0
BITMAP
30
18
08
00
3C
66
C3
C3
83
C3
C3
66
3C
ENDCHAR
STARTCHAR 00F3
ENCODING 243
SWIDTH 462 0
DWIDTH 9 0
BBX 8 13 1 0
BITMAP
0C
18
10
00
3C
66
C3
C3
83
C3
C3
66
3C
ENDCHAR
STARTCHAR 00F4
ENCODING 244
SWIDTH 462 0
DWIDTH 9 0
BBX 8 13 1 0
BITMAP
18
3C
24
00
3C
66
C3
C3
83
C3
C3
66
3C
ENDCHAR
STARTCHAR 00F5
ENCODING 245
SWIDTH 462 0
DWIDTH 9 0
BBX 8 13 1 0
BITMAP
30
7C
00
00
3C
66
C3
C3
83
C3
C3
66
3C
ENDCHAR
STARTCHAR 00F6
ENCODING 246
SWIDTH 462 0
DWIDTH 9 0
BBX 8 13 1 0
BITMAP
24
64
00
00
3C
66
C3
C3
83
C3
C3
66
3C
ENDCHAR
STARTCHAR 00F7
ENCODING 247
SWIDTH 462 0
DWIDTH 9 0
BBX 8 8 1 2
BITMAP
18
18
00
FF
FF
00
18
18
ENDCHAR
STARTCHAR 00F8
ENCODING 248
SWIDTH 462 0
DWIDTH 9 0
BBX 8 9 1 0
BITMAP
3F
66
C7
CB
9B
B3
E3
66
FC
ENDCHAR
STARTCHAR 00F9
ENCODING 249
SWIDTH 462 0
DWIDTH 9 0
BBX 7 13 1 0
BITMAP
30
18
08
00
C2
C2
C2
C2
C2
C2
C2
62
3E
ENDCHAR
STARTCHAR 00FA
ENCODING 250
SWIDTH 462 0
DWIDTH 9 0
BBX 7 13 1 0
BITMAP
0C
18
10
00
C2
C2
C2
C2
C2
C2
C2
62
3E
ENDCHAR
STARTCHAR 00FB
ENCODING 251
SWIDTH 462 0
DWIDTH 9 0
BBX 7 13 1 0
BITMAP
18
3C
24
00
C2
C2
C2
C2
C2
C2
C2
62
3E
ENDCHAR
STARTCHAR 00FC
ENCODING 252
SWIDTH 462 0
DWIDTH 9 0
BBX 7 13 1 0
BITMAP
24
64
00
00
C2
C2
C2
C2
C2
C2
C2
62
3E
ENDCHAR
STARTCHAR 00FD
ENCODING 253
SWIDTH 462 0
DWIDTH 9 0
BBX 8 16 1 -3
BITMAP
0C
18
10
00
C3
C3
42
66
66
24
34
1C
18
18
10
E0
ENDCHAR
STARTCHAR 00FE
ENCODING 254
SWIDTH 462 0
DWIDTH 9 0
BBX 8 16 1 -3
BITMAP
C0
C0
C0
C0
FC
E6
C3
C3
C3
C3
C3
E6
FC
C0
C0
C0
ENDCHAR
STARTCHAR 00FF
ENCODING 255
SWIDTH 462 0
DWIDTH 9 0
BBX 8 16 1 -3
BITMAP
24
26
00
00
C3
C3
42
66
66
24
34
1C
18
18
10
E0
ENDCHAR
STARTCHAR 0100
ENCODING 256
SWIDTH 462 0
DWIDTH 9 0
BBX 9 15 0 0
BITMAP
3E00
0000
0000
0C00
1C00
1600
1200
3200
2300
2300
6100
7F80
4180
4080
C080
ENDCHAR
STARTCHAR 0101
ENCODING 257
SWIDTH 462 0
DWIDTH 9 0
BBX 7 12 1 0
BITMAP
3E
00
00
7C
06
02
02
7E
C2
C2
C2
7E
ENDCHAR
STARTCHAR 0102
ENCODING 258
SWIDTH 462 0
DWIDTH 9 0
BBX 9 16 0 0
BITMAP
1200
1E00
0C00
0000
0C00
1C00
1600
1200
3200
2300
2300
6100
7F80
4180
4080
C080
ENDCHAR
STARTCHAR 0103
ENCODING 259
SWIDTH 462 0
DWIDTH 9 0
BBX 7 13 1 0
BITMAP
24
3C
00
00
7C
06
02
02
7E
C2
C2
C2
7E
ENDCHAR
STARTCHAR 0104
ENCODING 260
SWIDTH 462 0
DWIDTH 9 0
BBX 10 15 0 -3
BITMAP
0C00
1C00
1600
1200
3200
2300
2300
6100
7F80
4180
4080
C080
0180
0100
01C0
ENDCHAR
STARTCHAR 0105
ENCODING 261
SWIDTH 462 0
DWIDTH 9 0
BBX 7 12 1 -3
BITMAP
7C
06
02
02
7E
C2
C2
C2
7E
06
0C
0E
ENDCHAR
STARTCHAR 0106
ENCODING 262
SWIDTH 462 0
DWIDTH 9 0
BBX 8 16 1 0
BITMAP
04
0C
18
00
3F
61
40
C0
C0
C0
C0
C0
C0
40
71
3F
ENDCHAR
STARTCHAR 0107
ENCODING 263
SWIDTH 462 0
DWIDTH 9 0
BBX 8 13 1 0
BITMAP
04
08
10
00
3F
60
C0
C0
C0
C0
C0
61
3F
ENDCHAR
STARTCHAR 0108
ENCODING 264
SWIDTH 462 0
DWIDTH 9 0
BBX 8 16 1 0
BITMAP
08
1C
12
00
3F
61
40
C0
C0
C0
C0
C0
C0
40
71
3F
ENDCHAR
STARTCHAR 0109
ENCODING 265
SWIDTH 462 0
DWIDTH 9 0
BBX 8 13 1 0
BITMAP
0C
1E
12
00
3F
60
C0
C0
C0
C0
C0
61
3F
ENDCHAR
STARTCHAR 010A
ENCODING 266
SWIDTH 462 0
DWIDTH 9 0
BBX 8 16 1 0
BITMAP
08
0C
0C
00
3F
61
40
C0
C0
C0
C0
C0
C0
40
71
3F
ENDCHAR
STARTCHAR 010B
ENCODING 267
SWIDTH 462 0
DWIDTH 9 0
BBX 8 13 1 0
BITMAP
0C
0C
00
00
3F
60
C0
C0
C0
C0
C0
61
3F
ENDCHAR
STARTCHAR 010C
ENCODING 268
SWIDTH 462 0
DWIDTH 9 0
BBX 8 16 1 0
BITMAP
12
1C
0C
00
3F
61
40
C0
C0
C0
C0
C0
C0
40
71
3F
ENDCHAR
STARTCHAR 010D
ENCODING 269
SWIDTH 462 0
DWIDTH 9 0
BBX 8 13 1 0
BITMAP
12
0C
00
00
3F
60
C0
C0
C0
C0
C0
61
3F
ENDCHAR
STARTCHAR 010E
ENCODING 270
SWIDTH 462 0
DWIDTH 9 0
BBX 8 16 1 0
BITMAP
48
38
10
00
F8
CE
C6
C3
C3
C3
C3
C3
C3
C6
CE
F8
ENDCHAR
STARTCHAR 010F
ENCODING 271
SWIDTH 462 0
DWIDTH 9 0
BBX 10 13 0 0
BITMAP
06C0
0680
0680
0600
3E00
6600
4600
C600
C600
C600
4600
6600
3E00
ENDCHAR
STARTCHAR 0110
ENCODING 272
SWIDTH 462 0
DWIDTH 9 0
BBX 9 12 0 0
BITMAP
7E00
6700
6100
6180
6180
F980
6180
6180
6180
6300
6700
7C00
ENDCHAR
STARTCHAR 0111
ENCODING 273
SWIDTH 462 0
DWIDTH 9 0
BBX 8 13 1 0
BITMAP
06
3F
06
06
7E
E6
C6
C6
86
C6
C6
66
3E
ENDCHAR
STARTCHAR 0112
ENCODING 274
SWIDTH 462 0
DWIDTH 9 0
BBX 7 15 2 0
BITMAP
7C
00
00
FE
80
80
80
80
FC
80
80
80
80
80
FE
ENDCHAR
STARTCHAR 0113
ENCODING 275
SWIDTH 462 0
DWIDTH 9 0
BBX 8 12 1 0
BITMAP
3E
00
00
3C
66
C3
83
FF
80
C0
60
3E
ENDCHAR
STARTCHAR 0114
ENCODING 276
SWIDTH 462 0
DWIDTH 9 0
BBX 7 16 2 0
BITMAP
4C
68
30
00
FE
80
80
80
80
FC
80
80
80
80
80
FE
ENDCHAR
STARTCHAR 0115
ENCODING 277
SWIDTH 462 0
DWIDTH 9 0
BBX 8 13 1 0
BITMAP
24
3C
00
00
3C
66
C3
83
FF
80
C0
60
3E
ENDCHAR
STARTCHAR 0116
ENCODING 278
SWIDTH 462 0
DWIDTH 9 0
BBX 7 16 2 0
BITMAP
10
30
10
00
FE
80
80
80
80
FC
80
80
80
80
80
FE
ENDCHAR
STARTCHAR 0117
ENCODING 279
SWIDTH 462 0
DWIDTH 9 0
BBX 8 13 1 0
BITMAP
18
18
00
00
3C
66
C3
83
FF
80
C0
60
3E
ENDCHAR
STARTCHAR 0118
ENCODING 280
SWIDTH 462 0
DWIDTH 9 0
BBX 7 15 2 -3
BITMAP
FE
80
80
80
80
FC
80
80
80
80
80
FE
04
08
0E
ENDCHAR
STARTCHAR 0119
ENCODING 281
SWIDTH 462 0
DWIDTH 9 0
BBX 8 12 1 -3
BITMAP
3C
66
C3
83
FF
80
C0
60
3E
04
0C
0E
ENDCHAR
STARTCHAR 011A
ENCODING 282
SWIDTH 462 0
DWIDTH 9 0
BBX 7 16 2 0
BITMAP
4C
38
10
00
FE
80
80
80
80
FC
80
80
80
80
80
FE
ENDCHAR
STARTCHAR 011B
ENCODING 283
SWIDTH 462 0
DWIDTH 9 0
BBX 8 13 1 0
BITMAP
24
18
00
00
3C
66
C3
83
FF
80
C0
60
3E
ENDCHAR
STARTCHAR 011C
ENCODING 284
SWIDTH 462 0
DWIDTH 9 0
BBX 8 16 1 0
BITMAP
08
1C
32
00
3F
60
40
C0
C0
C0
C3
C3
C3
43
63
3F
ENDCHAR
STARTCHAR 011D
ENCODING 285
SWIDTH 462 0
DWIDTH 9 0
BBX 7 16 1 -3
BITMAP
18
3C
24
00
7E
62
C2
82
82
C2
C2
7E
3A
02
06
FC
ENDCHAR
STARTCHAR 011E
ENCODING 286
SWIDTH 462 0
DWIDTH 9 0
BBX 8 16 1 0
BITMAP
12
1E
0C
00
3F
60
40
C0
C0
C0
C3
C3
C3
43
63
3F
ENDCHAR
STARTCHAR 011F
ENCODING 287
SWIDTH 462 0
DWIDTH 9 0
BBX 7 16 1 -3
BITMAP
24
3C
00
00
7E
62
C2
82
82
C2
C2
7E
3A
02
06
FC
ENDCHAR
STARTCHAR 0120
ENCODING 288
SWIDTH 462 0
DWIDTH 9 0
BBX 8 16 1 0
BITMAP
08
0C
08
00
3F
60
40
C0
C0
C0
C3
C3
C3
43
63
3F
ENDCHAR
STARTCHAR 0121
ENCODING 289
SWIDTH 462 0
DWIDTH 9 0
BBX 7 16 1 -3
BITMAP
18
18
00
00
7E
62
C2
82
82
C2
C2
7E
3A
02
06
FC
ENDCHAR
STARTCHAR 0122
ENCODING 290
SWIDTH 462 0
DWIDTH 9 0
BBX 8 15 1 -3
BITMAP
3F
60
40
C0
C0
C0
C3
C3
C3
43
63
3F
00
0C
18
ENDCHAR
STARTCHAR 0123
ENCODING 291
SWIDTH 462 0
DWIDTH 9 0
BBX 7 16 1 -2
BITMAP
18
18
00
00
7E
62
C2
82
82
C2
C2
7E
3A
02
06
FC
ENDCHAR
STARTCHAR 0124
ENCODING 292
SWIDTH 462 0
DWIDTH 9 0
BBX 8 16 1 0
BITMAP
10
38
24
00
83
83
83
83
83
FF
83
83
83
83
83
83
ENDCHAR
STARTCHAR 0125
ENCODING 293
SWIDTH 462 0
DWIDTH 9 0
BBX 7 16 1 0
BITMAP
60
F0
00
C0
C0
C0
C0
FC
C6
C2
C2
C2
C2
C2
C2
C2
ENDCHAR
STARTCHAR 0126
ENCODING 294
SWIDTH 462 0
DWIDTH 9 0
BBX 9 12 0 0
BITMAP
6100
6100
FF80
6100
6100
7F00
6100
6100
6100
6100
6100
6100
ENDCHAR
STARTCHAR 0127
ENCODING 295
SWIDTH 462 0
DWIDTH 9 0
BBX 8 13 0 0
BITMAP
20
FC
20
20
3E
23
21
21
21
21
21
21
21
ENDCHAR
STARTCHAR 0128
ENCODING 296
SWIDTH 462 0
DWIDTH 9 0
BBX 6 15 2 0
BITMAP
78
00
00
FC
30
30
30
30
30
30
30
30
30
30
FC
ENDCHAR
STARTCHAR 0129
ENCODING 297
SWIDTH 462 0
DWIDTH 9 0
BBX 8 13 1 0
BITMAP
24
78
00
00
F0
10
10
10
10
10
10
19
1F
ENDCHAR
STARTCHAR 012A
ENCODING 298
SWIDTH 462 0
DWIDTH 9 0
BBX 6 15 2 0
BITMAP
F8
00
00
FC
30
30
30
30
30
30
30
30
30
30
FC
ENDCHAR
STARTCHAR 012B
ENCODING 299
SWIDTH 462 0
DWIDTH 9 0
BBX 8 12 1 0
BITMAP
7C
00
00
F0
10
10
10
10
10
10
19
1F
ENDCHAR
STARTCHAR 012C
ENCODING 300
SWIDTH 462 0
DWIDTH 9 0
BBX 6 16 2 0
BITMAP
48
78
30
00
FC
30
30
30
30
30
30
30
30
30
30
FC
ENDCHAR
STARTCHAR 012D
ENCODING 301
SWIDTH 462 0
DWIDTH 9 0
BBX 8 13 1 0
BITMAP
48
78
00
00
F0
10
10
10
10
10
10
19
1F
ENDCHAR
STARTCHAR 012E
ENCODING 302
SWIDTH 462 0
DWIDTH 9 0
BBX 6 15 2 -3
BITMAP
FC
30
30
30
30
30
30
30
30
30
30
FC
20
40
70
ENDCHAR
STARTCHAR 012F
ENCODING 303
SWIDTH 462 0
DWIDTH 9 0
BBX 8 16 1 -3
BITMAP
30
30
10
00
F0
10
10
10
10
10
10
19
1F
06
04
06
ENDCHAR
STARTCHAR 0130
ENCODING 304
SWIDTH 462 0
DWIDTH 9 0
BBX 6 16 2 0
BITMAP
20
30
30
00
FC
30
30
30
30
30
30
30
30
30
30
FC
ENDCHAR
STARTCHAR 0131
ENCODING 305
SWIDTH 462 0
DWIDTH 9 0
BBX 8 9 1 0
BITMAP
F0
10
10
10
10
10
10
19
1F
ENDCHAR
STARTCHAR 0132
ENCODING 306
SWIDTH 462 0
DWIDTH 9 0
BBX 8 12 1 0
BITMAP
81
81
81
81
81
81
81
81
81
83
93
9E
ENDCHAR
STARTCHAR 0133
ENCODING 307
SWIDTH 462 0
DWIDTH 9 0
BBX 6 16 2 -3
BITMAP
CC
CC
00
00
CC
CC
CC
CC
CC
CC
CC
CC
CC
0C
08
38
ENDCHAR
STARTCHAR 0134
ENCODING 308
SWIDTH 462 0
DWIDTH 9 0
BBX 7 16 1 0
BITMAP
08
1C
12
00
7E
02
02
02
02
02
02
02
02
06
C6
FC
ENDCHAR
STARTCHAR 0135
ENCODING 309
SWIDTH 462 0
DWIDTH 9 0
BBX 6 16 1 -3
BITMAP
18
3C
20
00
7C
04
04
04
04
04
04
04
04
04
0C
FC
ENDCHAR
STARTCHAR 0136
ENCODING 310
SWIDTH 462 0
DWIDTH 9 0
BBX 8 15 1 -3
BITMAP
C3
C6
CC
C8
D8
F0
F8
DC
CC
C6
C3
C3
00
18
38
ENDCHAR
STARTCHAR 0137
ENCODING 311
SWIDTH 462 0
DWIDTH 9 0
BBX 8 16 1 -3
BITMAP
C0
C0
C0
C0
C2
C4
D8
F0
F0
D8
CC
C6
C3
00
18
38
ENDCHAR
STARTCHAR 0138
ENCODING 312
SWIDTH 462 0
DWIDTH 9 0
BBX 8 9 1 0
BITMAP
C2
C4
D8
F0
F0
D8
CC
C6
C3
ENDCHAR
STARTCHAR 0139
ENCODING 313
SWIDTH 462 0
DWIDTH 9 0
BBX 7 16 2 0
BITMAP
20
60
C0
00
80
80
80
80
80
80
80
80
80
80
80
FE
ENDCHAR
STARTCHAR 013A
ENCODING 314
SWIDTH 462 0
DWIDTH 9 0
BBX 8 16 1 0
BITMAP
08
30
00
F0
10
10
10
10
10
10
10
10
10
10
19
1F
ENDCHAR
STARTCHAR 013B
ENCODING 315
SWIDTH 462 0
DWIDTH 9 0
BBX 7 15 2 -3
BITMAP
80
80
80
80
80
80
80
80
80
80
80
FE
00
10
70
ENDCHAR
STARTCHAR 013C
ENCODING 316
SWIDTH 462 0
DWIDTH 9 0
BBX 8 16 1 -3
BITMAP
F0
10
10
10
10
10
10
10
10
10
10
19
1F
00
04
1C
ENDCHAR
STARTCHAR 013D
ENCODING 317
SWIDTH 462 0
DWIDTH 9 0
BBX 7 12 2 0
BITMAP
90
90
90
90
80
80
80
80
80
80
80
FE
ENDCHAR
STARTCHAR 013E
ENCODING 318
SWIDTH 462 0
DWIDTH 9 0
BBX 8 13 1 0
BITMAP
F2
12
12
10
10
10
10
10
10
10
10
19
1F
ENDCHAR
STARTCHAR 013F
ENCODING 319
SWIDTH 462 0
DWIDTH 9 0
BBX 7 12 2 0
BITMAP
80
80
80
80
80
8C
8C
80
80
80
80
FE
ENDCHAR
STARTCHAR 0140
ENCODING 320
SWIDTH 462 0
DWIDTH 9 0
BBX 9 13 1 0
BITMAP
F000
1000
1000
1000
1000
1000
1180
1180
1000
1000
1000
1900
1F00
ENDCHAR
STARTCHAR 0141
ENCODING 321
SWIDTH 462 0
DWIDTH 9 0
BBX 9 12 0 0
BITMAP
3000
3000
3000
3000
3C00
3800
F000
3000
3000
3000
3000
3F80
ENDCHAR
STARTCHAR 0142
ENCODING 322
SWIDTH 462 0
DWIDTH 9 0
BBX 8 13 1 0
BITMAP
F0
10
10
10
14
1C
70
50
10
10
10
19
1F
ENDCHAR
STARTCHAR 0143
ENCODING 323
SWIDTH 462 0
DWIDTH 9 0
BBX 8 16 1 0
BITMAP
08
18
10
00
C3
E3
E3
F3
D3
DB
CB
CB
C7
C7
C7
C3
ENDCHAR
STARTCHAR 0144
ENCODING 324
SWIDTH 462 0
DWIDTH 9 0
BBX 7 13 1 0
BITMAP
0C
18
10
00
FC
C6
C2
C2
C2
C2
C2
C2
C2
ENDCHAR
STARTCHAR 0145
ENCODING 325
SWIDTH 462 0
DWIDTH 9 0
BBX 8 15 1 -3
BITMAP
C3
E3
E3
F3
D3
DB
CB
CB
C7
C7
C7
C3
00
18
38
ENDCHAR
STARTCHAR 0146
ENCODING 326
SWIDTH 462 0
DWIDTH 9 0
BBX 7 12 1 -3
BITMAP
FC
C6
C2
C2
C2
C2
C2
C2
C2
00
18
38
ENDCHAR
STARTCHAR 0147
ENCODING 327
SWIDTH 462 0
DWIDTH 9 0
BBX 8 16 1 0
BITMAP
24
38
10
00
C3
E3
E3
F3
D3
DB
CB
CB
C7
C7
C7
C3
ENDCHAR
STARTCHAR 0148
ENCODING 328
SWIDTH 462 0
DWIDTH 9 0
BBX 7 13 1 0
BITMAP
24
18
00
00
FC
C6
C2
C2
C2
C2
C2
C2
C2
ENDCHAR
STARTCHAR 0149
ENCODING 329
SWIDTH 462 0
DWIDTH 9 0
BBX 8 13 0 0
BITMAP
40
40
C0
00
7E
63
61
61
61
61
61
61
61
ENDCHAR
STARTCHAR 014A
ENCODING 330
SWIDTH 462 0
DWIDTH 9 0
BBX 8 15 1 -3
BITMAP
C3
E3
E3
F3
D3
DB
CB
CF
C7
C7
C3
C3
03
03
0E
ENDCHAR
STARTCHAR 014B
ENCODING 331
SWIDTH 462 0
DWIDTH 9 0
BBX 7 12 1 -3
BITMAP
FC
C6
C2
C2
C2
C2
C2
C2
C2
02
02
0E
ENDCHAR
STARTCHAR 014C
ENCODING 332
SWIDTH 462 0
DWIDTH 9 0
BBX 8 15 1 0
BITMAP
7C
00
00
7C
66
C3
83
83
81
81
83
83
C3
66
7C
ENDCHAR
STARTCHAR 014D
ENCODING 333
SWIDTH 462 0
DWIDTH 9 0
BBX 8 12 1 0
BITMAP
7C
00
00
3C
66
C3
C3
83
C3
C3
66
3C
ENDCHAR
STARTCHAR 014E
ENCODING 334
SWIDTH 462 0
DWIDTH 9 0
BBX 8 16 1 0
BITMAP
24
3C
18
00
7C
66
C3
83
83
81
81
83
83
C3
66
7C
ENDCHAR
STARTCHAR 014F
ENCODING 335
SWIDTH 462 0
DWIDTH 9 0
BBX 8 13 1 0
BITMAP
24
3C
00
00
3C
66
C3
C3
83
C3
C3
66
3C
ENDCHAR
STARTCHAR 0150
ENCODING 336
SWIDTH 462 0
DWIDTH 9 0
BBX 8 16 1 0
BITMAP
12
36
24
00
7C
66
C3
83
83
81
81
83
83
C3
66
7C
ENDCHAR
STARTCHAR 0151
ENCODING 337
SWIDTH 462 0
DWIDTH 9 0
BBX 8 13 1 0
BITMAP
1A
36
24
00
3C
66
C3
C3
83
C3
C3
66
3C
ENDCHAR
STARTCHAR 0152
ENCODING 338
SWIDTH 462 0
DWIDTH 9 0
BBX 8 12 1 0
BITMAP
7F
4C
CC
8C
8C
8F
8C
8C
8C
CC
CC
7F
ENDCHAR
STARTCHAR 0153
ENCODING 339
SWIDTH 462 0
DWIDTH 9 0
BBX 8 9 1 0
BITMAP
76
DB
99
99
9F
98
98
DC
77
ENDCHAR
STARTCHAR 0154
ENCODING 340
SWIDTH 462 0
DWIDTH 9 0
BBX 8 16 1 0
BITMAP
08
18
30
00
FC
C6
C2
C2
C2
C6
FC
CC
C4
C6
C2
C3
ENDCHAR
STARTCHAR 0155
ENCODING 341
SWIDTH 462 0
DWIDTH 9 0
BBX 6 13 2 0
BITMAP
08
10
20
00
FC
C0
C0
C0
C0
C0
C0
C0
C0
ENDCHAR
STARTCHAR 0156
ENCODING 342
SWIDTH 462 0
DWIDTH 9 0
BBX 8 15 1 -3
BITMAP
FC
C6
C2
C2
C2
C6
FC
CC
C4
C6
C2
C3
00
18
30
ENDCHAR
STARTCHAR 0157
ENCODING 343
SWIDTH 462 0
DWIDTH 9 0
BBX 7 12 1 -3
BITMAP
7E
60
60
60
60
60
60
60
60
00
60
C0
ENDCHAR
STARTCHAR 0158
ENCODING 344
SWIDTH 462 0
DWIDTH 9 0
BBX 8 16 1 0
BITMAP
4C
38
10
00
FC
C6
C2
C2
C2
C6
FC
CC
C4
C6
C2
C3
ENDCHAR
STARTCHAR 0159
ENCODING 345
SWIDTH 462 0
DWIDTH 9 0
BBX 6 13 2 0
BITMAP
6C
38
10
00
FC
C0
C0
C0
C0
C0
C0
C0
C0
ENDCHAR
STARTCHAR 015A
ENCODING 346
SWIDTH 462 0
DWIDTH 9 0
BBX 8 16 1 0
BITMAP
08
08
10
00
7E
62
C0
C0
60
38
0E
06
03
03
86
FC
ENDCHAR
STARTCHAR 015B
ENCODING 347
SWIDTH 462 0
DWIDTH 9 0
BBX 7 13 1 0
BITMAP
0C
18
10
00
7E
42
C0
60
3C
06
02
46
FE
ENDCHAR
STARTCHAR 015C
ENCODING 348
SWIDTH 462 0
DWIDTH 9 0
BBX 8 16 1 0
BITMAP
08
1C
24
00
7E
62
C0
C0
60
38
0E
06
03
03
86
FC
ENDCHAR
STARTCHAR 015D
ENCODING 349
SWIDTH 462 0
DWIDTH 9 0
BBX 7 13 1 0
BITMAP
18
3C
24
00
7E
42
C0
60
3C
06
02
46
FE
ENDCHAR
STARTCHAR 015E
ENCODING 350
SWIDTH 462 0
DWIDTH 9 0
BBX 8 15 1 -3
BITMAP
7E
62
C0
C0
60
38
0E
06
03
03
86
FC
10
18
38
ENDCHAR
STARTCHAR 015F
ENCODING 351
SWIDTH 462 0
DWIDTH 9 0
BBX 7 12 1 -3
BITMAP
7E
42
C0
60
3C
06
02
46
FE
10
18
38
ENDCHAR
STARTCHAR 0160
ENCODING 352
SWIDTH 462 0
DWIDTH 9 0
BBX 8 16 1 0
BITMAP
24
1C
08
00
7E
62
C0
C0
60
38
0E
06
03
03
86
FC
ENDCHAR
STARTCHAR 0161
ENCODING 353
SWIDTH 462 0
DWIDTH 9 0
BBX 7 13 1 0
BITMAP
24
18
00
00
7E
42
C0
60
3C
06
02
46
FE
ENDCHAR
STARTCHAR 0162
ENCODING 354
SWIDTH 462 0
DWIDTH 9 0
BBX 8 15 1 -3
BITMAP
FF
18
18
18
18
18
18
18
18
18
18
18
10
18
38
ENDCHAR
STARTCHAR 0163
ENCODING 355
SWIDTH 462 0
DWIDTH 9 0
BBX 8 15 1 -3
BITMAP
30
30
30
FF
30
30
30
30
30
30
31
1F
08
04
1C
ENDCHAR
STARTCHAR 0164
ENCODING 356
SWIDTH 462 0
DWIDTH 9 0
BBX 8 16 1 0
BITMAP
24
38
10
00
FF
18
18
18
18
18
18
18
18
18
18
18
ENDCHAR
STARTCHAR 0165
ENCODING 357
SWIDTH 462 0
DWIDTH 9 0
BBX 8 13 1 0
BITMAP
06
34
34
30
FF
30
30
30
30
30
30
31
1F
ENDCHAR
STARTCHAR 0166
ENCODING 358
SWIDTH 462 0
DWIDTH 9 0
BBX 8 12 1 0
BITMAP
FF
18
18
18
18
7E
18
18
18
18
18
18
ENDCHAR
STARTCHAR 0167
ENCODING 359
SWIDTH 462 0
DWIDTH 9 0
BBX 8 12 1 0
BITMAP
30
30
30
FF
30
30
30
FF
30
30
31
1F
ENDCHAR
STARTCHAR 0168
ENCODING 360
SWIDTH 462 0
DWIDTH 9 0
BBX 8 15 1 0
BITMAP
3C
00
00
C3
C3
C3
C3
C3
C3
C3
C3
C3
C3
C6
7C
ENDCHAR
STARTCHAR 0169
ENCODING 361
SWIDTH 462 0
DWIDTH 9 0
BBX 7 13 1 0
BITMAP
30
7C
00
00
C2
C2
C2
C2
C2
C2
C2
62
3E
ENDCHAR
STARTCHAR 016A
ENCODING 362
SWIDTH 462 0
DWIDTH 9 0
BBX 8 15 1 0
BITMAP
7C
00
00
C3
C3
C3
C3
C3
C3
C3
C3
C3
C3
C6
7C
ENDCHAR
STARTCHAR 016B
ENCODING 363
SWIDTH 462 0
DWIDTH 9 0
BBX 7 12 1 0
BITMAP
7C
00
00
C2
C2
C2
C2
C2
C2
C2
62
3E
ENDCHAR
STARTCHAR 016C
ENCODING 364
SWIDTH 462 0
DWIDTH 9 0
BBX 8 16 1 0
BITMAP
24
3C
18
00
C3
C3
C3
C3
C3
C3
C3
C3
C3
C3
C6
7C
ENDCHAR
STARTCHAR 016D
ENCODING 365
SWIDTH 462 0
DWIDTH 9 0
BBX 7 13 1 0
BITMAP
24
3C
00
00
C2
C2
C2
C2
C2
C2
C2
62
3E
ENDCHAR
STARTCHAR 016E
ENCODING 366
SWIDTH 462 0
DWIDTH 9 0
BBX 8 16 1 0
BITMAP
38
24
28
10
C3
C3
C3
C3
C3
C3
C3
C3
C3
C3
C6
7C
ENDCHAR
STARTCHAR 016F
ENCODING 367
SWIDTH 462 0
DWIDTH 9 0
BBX 7 13 1 1
BITMAP
3C
24
18
00
C2
C2
C2
C2
C2
C2
C2
62
3E
ENDCHAR
STARTCHAR 0170
ENCODING 368
SWIDTH 462 0
DWIDTH 9 0
BBX 8 16 1 0
BITMAP
12
36
2C
00
C3
C3
C3
C3
C3
C3
C3
C3
C3
C3
C6
7C
ENDCHAR
STARTCHAR 0171
ENCODING 369
SWIDTH 462 0
DWIDTH 9 0
BBX 7 13 1 0
BITMAP
12
34
24
00
C2
C2
C2
C2
C2
C2
C2
62
3E
ENDCHAR
STARTCHAR 0172
ENCODING 370
SWIDTH 462 0
DWIDTH 9 0
BBX 8 15 1 -3
BITMAP
C3
C3
C3
C3
C3
C3
C3
C3
C3
C3
C6
7C
08
10
1C
ENDCHAR
STARTCHAR 0173
ENCODING 371
SWIDTH 462 0
DWIDTH 9 0
BBX 7 12 1 -3
BITMAP
C2
C2
C2
C2
C2
C2
C2
62
3E
06
0C
0E
ENDCHAR
STARTCHAR 0174
ENCODING 372
SWIDTH 462 0
DWIDTH 9 0
BBX 8 16 1 0
BITMAP
10
38
24
00
81
81
83
83
83
9B
9B
AF
A7
A6
C6
C2
ENDCHAR
STARTCHAR 0175
ENCODING 373
SWIDTH 462 0
DWIDTH 9 0
BBX 9 13 0 0
BITMAP
0C00
1E00
1200
0000
C080
4080
4C80
4C80
4D80
7780
7300
7300
2300
ENDCHAR
STARTCHAR 0176
ENCODING 374
SWIDTH 462 0
DWIDTH 9 0
BBX 9 16 0 0
BITMAP
0800
1C00
1200
0000
C080
6180
6100
3300
3200
1E00
1C00
0C00
0C00
0C00
0C00
0C00
ENDCHAR
STARTCHAR 0177
ENCODING 375
SWIDTH 462 0
DWIDTH 9 0
BBX 8 16 1 -3
BITMAP
18
3C
24
00
C3
C3
42
66
66
24
34
1C
18
18
10
E0
ENDCHAR
STARTCHAR 0178
ENCODING 376
SWIDTH 462 0
DWIDTH 9 0
BBX 9 15 0 0
BITMAP
3300
1200
0000
C080
6180
6100
3300
3200
1E00
1C00
0C00
0C00
0C00
0C00
0C00
ENDCHAR
STARTCHAR 0179
ENCODING 377
SWIDTH 462 0
DWIDTH 9 0
BBX 8 16 1 0
BITMAP
08
18
10
00
FF
02
06
0C
08
18
10
30
60
40
C0
FF
ENDCHAR
STARTCHAR 017A
ENCODING 378
SWIDTH 462 0
DWIDTH 9 0
BBX 7 13 1 0
BITMAP
0C
18
10
00
7E
06
0C
18
10
30
60
40
FE
ENDCHAR
STARTCHAR 017B
ENCODING 379
SWIDTH 462 0
DWIDTH 9 0
BBX 8 16 1 0
BITMAP
10
18
18
00
FF
02
06
0C
08
18
10
30
60
40
C0
FF
ENDCHAR
STARTCHAR 017C
ENCODING 380
SWIDTH 462 0
DWIDTH 9 0
BBX 7 13 1 0
BITMAP
18
18
00
00
7E
06
0C
18
10
30
60
40
FE
ENDCHAR
STARTCHAR 017D
ENCODING 381
SWIDTH 462 0
DWIDTH 9 0
BBX 8 16 1 0
BITMAP
24
38
10
00
FF
02
06
0C
08
18
10
30
60
40
C0
FF
ENDCHAR
STARTCHAR 017E
ENCODING 382
SWIDTH 462 0
DWIDTH 9 0
BBX 7 13 1 0
BITMAP
24
18
00
00
7E
06
0C
18
10
30
60
40
FE
ENDCHAR
STARTCHAR 017F
ENCODING 383
SWIDTH 462 0
DWIDTH 9 0
BBX 6 13 3 0
BITMAP
7C
C0
C0
C0
C0
C0
C0
C0
C0
C0
C0
C0
C0
ENDCHAR
STARTCHAR 0180
ENCODING 384
SWIDTH 462 0
DWIDTH 9 0
BBX 9 13 0 0
BITMAP
2000
FC00
2000
2000
3E00
3300
2180
2180
2180
2180
2180
2300
3E00
ENDCHAR
STARTCHAR 0181
ENCODING 385
SWIDTH 462 0
DWIDTH 9 0
BBX 9 12 0 0
BITMAP
7F00
7980
D980
1980
1900
1E00
1B80
1880
1880
1880
1980
1F00
ENDCHAR
STARTCHAR 0182
ENCODING 386
SWIDTH 462 0
DWIDTH 9 0
BBX 8 12 1 0
BITMAP
FE
C0
C0
C0
C0
FE
C6
C3
C3
C3
C6
FC
ENDCHAR
STARTCHAR 0183
ENCODING 387
SWIDTH 462 0
DWIDTH 9 0
BBX 8 13 1 0
BITMAP
FE
C0
C0
C0
FC
E6
C3
C3
C3
C3
C3
C6
FC
ENDCHAR
STARTCHAR 0184
ENCODING 388
SWIDTH 462 0
DWIDTH 9 0
BBX 8 13 1 0
BITMAP
C0
C0
C0
C0
FC
E6
C3
C3
C3
C3
C3
C6
FC
ENDCHAR
STARTCHAR 0185
ENCODING 389
SWIDTH 462 0
DWIDTH 9 0
BBX 8 12 1 0
BITMAP
C0
C0
C0
C0
F8
FE
C2
C3
C3
C3
C6
FC
ENDCHAR
STARTCHAR 0186
ENCODING 390
SWIDTH 462 0
DWIDTH 9 0
BBX 8 12 1 0
BITMAP
FC
8E
06
03
03
03
03
03
03
06
8E
FC
ENDCHAR
STARTCHAR 0187
ENCODING 391
SWIDTH 462 0
DWIDTH 9 0
BBX 8 14 1 0
BITMAP
01
03
3E
62
40
C0
C0
C0
C0
C0
C0
C0
62
3E
ENDCHAR
STARTCHAR 0188
ENCODING 392
SWIDTH 462 0
DWIDTH 9 0
BBX 8 11 1 0
BITMAP
03
02
3E
62
C0
C0
C0
C0
C0
60
3E
ENDCHAR
STARTCHAR 0189
ENCODING 393
SWIDTH 462 0
DWIDTH 9 0
BBX 9 12 0 0
BITMAP
7E00
6700
6100
6180
6180
F980
6180
6180
6180
6300
6700
7C00
ENDCHAR
STARTCHAR 018A
ENCODING 394
SWIDTH 462 0
DWIDTH 9 0
BBX 9 12 0 0
BITMAP
7E00
7B00
D980
1880
1880
1880
1880
1880
1880
1980
1B00
1E00
ENDCHAR
STARTCHAR 018B
ENCODING 395
SWIDTH 462 0
DWIDTH 9 0
BBX 8 12 1 0
BITMAP
7F
03
03
03
03
7F
C3
C3
C3
C3
63
3F
ENDCHAR
STARTCHAR 018C
ENCODING 396
SWIDTH 462 0
DWIDTH 9 0
BBX 7 13 1 0
BITMAP
7E
02
02
02
7E
66
C2
C2
82
C2
C2
62
3E
ENDCHAR
STARTCHAR 018D
ENCODING 397
SWIDTH 462 0
DWIDTH 9 0
BBX 8 12 1 -3
BITMAP
7C
E6
C3
83
83
C3
66
3C
1C
04
04
7C
ENDCHAR
STARTCHAR 018E
ENCODING 398
SWIDTH 462 0
DWIDTH 9 0
BBX 7 12 1 0
BITMAP
FE
06
06
06
06
7E
06
06
06
06
06
FE
ENDCHAR
STARTCHAR 018F
ENCODING 399
SWIDTH 462 0
DWIDTH 9 0
BBX 9 12 0 0
BITMAP
7E00
0300
0180
0180
0180
0080
FF80
4180
4180
6180
6300
3E00
ENDCHAR
STARTCHAR 0190
ENCODING 400
SWIDTH 462 0
DWIDTH 9 0
BBX 8 12 1 0
BITMAP
7F
60
C0
C0
60
3C
60
C0
80
C0
C1
7F
ENDCHAR
STARTCHAR 0191
ENCODING 401
SWIDTH 462 0
DWIDTH 9 0
BBX 9 15 0 -3
BITMAP
3F80
3000
3000
3000
3000
3F00
3000
3000
3000
3000
3000
3000
3000
2000
E000
ENDCHAR
STARTCHAR 0192
ENCODING 402
SWIDTH 462 0
DWIDTH 9 0
BBX 9 16 0 -3
BITMAP
0F80
1800
1800
1800
7F00
1800
1800
1800
1800
1800
1800
1800
1800
1800
1000
F000
ENDCHAR
STARTCHAR 0193
ENCODING 403
SWIDTH 462 0
DWIDTH 9 0
BBX 8 14 1 0
BITMAP
01
03
3E
62
40
C0
C0
C0
C3
C3
C3
43
63
3F
ENDCHAR
STARTCHAR 0194
ENCODING 404
SWIDTH 462 0
DWIDTH 9 0
BBX 9 15 0 -3
BITMAP
C080
4180
6100
2100
3300
3200
1600
1C00
0C00
0C00
1C00
1600
3200
3200
1E00
ENDCHAR
STARTCHAR 0195
ENCODING 405
SWIDTH 462 0
DWIDTH 9 0
BBX 8 13 1 0
BITMAP
80
80
80
80
F3
93
93
9B
9B
9B
9B
9B
8E
ENDCHAR
STARTCHAR 0196
ENCODING 406
SWIDTH 462 0
DWIDTH 9 0
BBX 8 12 1 0
BITMAP
FE
10
10
10
10
10
10
10
10
10
19
1F
ENDCHAR
STARTCHAR 0197
ENCODING 407
SWIDTH 462 0
DWIDTH 9 0
BBX 6 12 2 0
BITMAP
FC
30
30
30
30
F8
30
30
30
30
30
FC
ENDCHAR
STARTCHAR 0198
ENCODING 408
SWIDTH 462 0
DWIDTH 9 0
BBX 9 12 1 0
BITMAP
C780
C600
CC00
D800
F000
F000
F800
DC00
CC00
C600
C300
C300
ENDCHAR
STARTCHAR 0199
ENCODING 409
SWIDTH 462 0
DWIDTH 9 0
BBX 8 13 1 0
BITMAP
70
C0
C0
C0
C2
C4
D8
F0
F0
D8
CC
C6
C3
ENDCHAR
STARTCHAR 019A
ENCODING 410
SWIDTH 462 0
DWIDTH 9 0
BBX 8 13 1 0
BITMAP
F0
10
10
10
10
FE
FE
10
10
10
10
19
1F
ENDCHAR
STARTCHAR 019B
ENCODING 411
SWIDTH 462 0
DWIDTH 9 0
BBX 8 13 1 0
BITMAP
E0
3C
70
18
18
3C
3C
24
66
46
C2
C3
83
ENDCHAR
STARTCHAR 019C
ENCODING 412
SWIDTH 462 0
DWIDTH 9 0
BBX 8 12 1 0
BITMAP
83
83
83
83
83
9B
9B
9B
9B
9B
DB
7F
ENDCHAR
STARTCHAR 019D
ENCODING 413
SWIDTH 462 0
DWIDTH 9 0
BBX 10 15 -1 -3
BITMAP
30C0
38C0
38C0
3CC0
34C0
36C0
32C0
33C0
31C0
31C0
30C0
30C0
3000
2000
E000
ENDCHAR
STARTCHAR 019E
ENCODING 414
SWIDTH 462 0
DWIDTH 9 0
BBX 7 12 1 -3
BITMAP
FC
C6
C2
C2
C2
C2
C2
C2
C2
02
02
02
ENDCHAR
STARTCHAR 019F
ENCODING 415
SWIDTH 462 0
DWIDTH 9 0
BBX 8 12 1 0
BITMAP
7C
66
C3
83
83
FF
FF
83
83
C3
66
7C
ENDCHAR
STARTCHAR 01A0
ENCODING 416
SWIDTH 462 0
DWIDTH 9 0
BBX 9 14 1 0
BITMAP
0180
0180
7D00
6600
C300
8300
8300
8100
8100
8300
8300
C300
6600
7C00
ENDCHAR
STARTCHAR 01A1
ENCODING 417
SWIDTH 462 0
DWIDTH 9 0
BBX 8 11 1 0
BITMAP
01
01
3F
66
C3
C3
83
C3
C3
66
3C
ENDCHAR
STARTCHAR 01A2
ENCODING 418
SWIDTH 462 0
DWIDTH 9 0
BBX 8 12 1 0
BITMAP
7F
DB
C9
C9
89
8D
8D
89
C9
C9
D9
71
ENDCHAR
STARTCHAR 01A3
ENCODING 419
SWIDTH 462 0
DWIDTH 9 0
BBX 8 12 1 -3
BITMAP
7E
DB
9B
9B
9B
9B
9B
D3
73
03
03
03
ENDCHAR
STARTCHAR 01A4
ENCODING 420
SWIDTH 462 0
DWIDTH 9 0
BBX 9 12 0 0
BITMAP
7F00
7980
D980
1980
1980
1980
1F00
1C00
1800
1800
1800
1800
ENDCHAR
STARTCHAR 01A5
ENCODING 421
SWIDTH 462 0
DWIDTH 9 0
BBX 8 16 1 -3
BITMAP
70
C0
C0
C0
FC
C6
C3
C3
C3
C3
C3
E6
FC
C0
C0
C0
ENDCHAR
STARTCHAR 01A6
ENCODING 422
SWIDTH 462 0
DWIDTH 9 0
BBX 8 15 1 -2
BITMAP
C0
FC
C6
C2
C2
C2
C6
FC
CC
CC
C6
C6
C3
03
01
ENDCHAR
STARTCHAR 01A7
ENCODING 423
SWIDTH 462 0
DWIDTH 9 0
BBX 8 12 1 0
BITMAP
7C
46
02
02
06
1C
70
C0
C0
C0
C2
7F
ENDCHAR
STARTCHAR 01A8
ENCODING 424
SWIDTH 462 0
DWIDTH 9 0
BBX 7 9 1 0
BITMAP
7C
06
02
0E
3C
60
C0
C2
7E
ENDCHAR
STARTCHAR 01A9
ENCODING 425
SWIDTH 462 0
DWIDTH 9 0
BBX 8 12 1 0
BITMAP
FF
C0
60
30
10
18
18
30
60
40
C0
FF
ENDCHAR
STARTCHAR 01AA
ENCODING 426
SWIDTH 462 0
DWIDTH 9 0
BBX 8 16 1 -3
BITMAP
F0
98
98
F8
18
18
18
18
18
18
18
18
18
18
0C
0F
ENDCHAR
STARTCHAR 01AB
ENCODING 427
SWIDTH 462 0
DWIDTH 9 0
BBX 8 15 1 -3
BITMAP
30
30
30
FE
30
30
30
30
30
30
30
1F
03
03
0E
ENDCHAR
STARTCHAR 01AC
ENCODING 428
SWIDTH 462 0
DWIDTH 9 0
BBX 9 12 0 0
BITMAP
7F80
4C00
CC00
0C00
0C00
0C00
0C00
0C00
0C00
0C00
0C00
0C00
ENDCHAR
STARTCHAR 01AD
ENCODING 429
SWIDTH 462 0
DWIDTH 9 0
BBX 8 13 1 0
BITMAP
1F
30
30
30
FE
30
30
30
30
30
30
31
1F
ENDCHAR
STARTCHAR 01AE
ENCODING 430
SWIDTH 462 0
DWIDTH 9 0
BBX 8 15 1 -3
BITMAP
FF
18
18
18
18
18
18
18
18
18
18
18
18
18
0C
ENDCHAR
STARTCHAR 01AF
ENCODING 431
SWIDTH 462 0
DWIDTH 9 0
BBX 9 14 1 0
BITMAP
0180
0180
C700
C600
C600
C600
C600
C600
C600
C600
C600
C600
CC00
7C00
ENDCHAR
STARTCHAR 01B0
ENCODING 432
SWIDTH 462 0
DWIDTH 9 0
BBX 8 11 1 0
BITMAP
01
01
C7
C4
C4
C4
C4
C4
C4
64
7C
ENDCHAR
STARTCHAR 01B1
ENCODING 433
SWIDTH 462 0
DWIDTH 9 0
BBX 9 12 0 0
BITMAP
F780
3200
2300
6100
6180
4180
4180
4180
4180
6180
3300
1E00
ENDCHAR
STARTCHAR 01B2
ENCODING 434
SWIDTH 462 0
DWIDTH 9 0
BBX 8 12 1 0
BITMAP
9C
86
82
83
83
83
83
83
C3
C2
C6
7C
ENDCHAR
STARTCHAR 01B3
ENCODING 435
SWIDTH 462 0
DWIDTH 9 0
BBX 10 12 0 0
BITMAP
C1C0
6140
6300
3200
3600
1C00
1C00
0C00
0C00
0C00
0C00
0C00
ENDCHAR
STARTCHAR 01B4
ENCODING 436
SWIDTH 462 0
DWIDTH 9 0
BBX 9 12 0 -3
BITMAP
4180
6300
6200
2200
3600
3600
1400
1C00
0C00
0800
1800
F000
ENDCHAR
STARTCHAR 01B5
ENCODING 437
SWIDTH 462 0
DWIDTH 9 0
BBX 8 12 1 0
BITMAP
FF
02
06
0C
0C
7E
10
30
60
40
C0
FF
ENDCHAR
STARTCHAR 01B6
ENCODING 438
SWIDTH 462 0
DWIDTH 9 0
BBX 7 9 1 0
BITMAP
7E
06
0C
18
7E
30
60
40
FE
ENDCHAR
STARTCHAR 01B7
ENCODING 439
SWIDTH 462 0
DWIDTH 9 0
BBX 8 12 1 0
BITMAP
FF
06
04
0C
18
3C
06
03
03
03
86
FC
ENDCHAR
STARTCHAR 01B8
ENCODING 440
SWIDTH 462 0
DWIDTH 9 0
BBX 8 12 1 0
BITMAP
7F
60
20
30
18
3C
60
C0
C0
C0
61
3F
ENDCHAR
STARTCHAR 01B9
ENCODING 441
SWIDTH 462 0
DWIDTH 9 0
BBX 8 12 1 -3
BITMAP
7E
60
20
30
18
3C
60
C0
C0
C0
60
3F
ENDCHAR
STARTCHAR 01BA
ENCODING 442
SWIDTH 462 0
DWIDTH 9 0
BBX 7 12 1 -3
BITMAP
FE
04
0C
18
3C
06
02
06
0E
78
C0
80
ENDCHAR
STARTCHAR 01BB
ENCODING 443
SWIDTH 462 0
DWIDTH 9 0
BBX 8 12 1 0
BITMAP
7C
C6
06
02
06
0C
7F
30
60
60
C0
FF
ENDCHAR
STARTCHAR 01BC
ENCODING 444
SWIDTH 462 0
DWIDTH 9 0
BBX 8 12 1 0
BITMAP
FE
60
60
60
60
7C
06
02
03
02
06
FC
ENDCHAR
STARTCHAR 01BD
ENCODING 445
SWIDTH 462 0
DWIDTH 9 0
BBX 7 9 1 0
BITMAP
FE
20
60
78
7E
02
02
06
FC
ENDCHAR
STARTCHAR 01BE
ENCODING 446
SWIDTH 462 0
DWIDTH 9 0
BBX 8 12 1 0
BITMAP
30
30
30
FE
30
30
38
1E
07
03
43
7E
ENDCHAR
STARTCHAR 01BF
ENCODING 447
SWIDTH 462 0
DWIDTH 9 0
BBX 8 12 1 -3
BITMAP
FC
C6
C3
C3
C3
C3
C6
CE
F8
E0
C0
C0
ENDCHAR
STARTCHAR 01C0
ENCODING 448
SWIDTH 462 0
DWIDTH 9 0
BBX 2 17 4 -3
BITMAP
C0
C0
C0
C0
C0
C0
C0
C0
C0
C0
C0
C0
C0
C0
C0
C0
C0
ENDCHAR
STARTCHAR 01C1
ENCODING 449
SWIDTH 462 0
DWIDTH 9 0
BBX 5 17 2 -3
BITMAP
C8
C8
C8
C8
C8
C8
C8
C8
C8
C8
C8
C8
C8
C8
C8
C8
C8
ENDCHAR
STARTCHAR 01C2
ENCODING 450
SWIDTH 462 0
DWIDTH 9 0
BBX 8 17 1 -3
BITMAP
18
18
18
18
18
18
FF
FF
18
18
FF
18
18
18
18
18
18
ENDCHAR
STARTCHAR 01C3
ENCODING 451
SWIDTH 462 0
DWIDTH 9 0
BBX 2 12 4 0
BITMAP
C0
C0
C0
C0
C0
C0
C0
80
00
00
C0
C0
ENDCHAR
STARTCHAR 01C4
ENCODING 452
SWIDTH 462 0
DWIDTH 9 0
BBX 8 16 1 0
BITMAP
08
05
02
00
E7
B1
B1
93
92
92
92
96
94
B4
A4
E7
ENDCHAR
STARTCHAR 01C5
ENCODING 453
SWIDTH 462 0
DWIDTH 9 0
BBX 8 12 1 1
BITMAP
E3
B0
B0
97
91
91
93
92
92
B6
A4
E7
ENDCHAR
STARTCHAR 01C6
ENCODING 454
SWIDTH 462 0
DWIDTH 9 0
BBX 10 13 0 0
BITMAP
0800
0980
0800
0800
7BC0
4880
C880
C880
C900
C900
C900
4B00
7BC0
ENDCHAR
STARTCHAR 01C7
ENCODING 455
SWIDTH 462 0
DWIDTH 9 0
BBX 8 12 1 0
BITMAP
81
81
81
81
81
81
81
81
81
81
83
F6
ENDCHAR
STARTCHAR 01C8
ENCODING 456
SWIDTH 462 0
DWIDTH 9 0
BBX 8 16 1 -3
BITMAP
03
C3
C0
C0
C3
C3
C3
C3
C3
C3
C3
C3
FB
03
03
0E
ENDCHAR
STARTCHAR 01C9
ENCODING 457
SWIDTH 462 0
DWIDTH 9 0
BBX 6 16 2 -3
BITMAP
CC
CC
C0
C0
CC
CC
CC
CC
CC
CC
CC
CC
CC
0C
0C
38
ENDCHAR
STARTCHAR 01CA
ENCODING 458
SWIDTH 462 0
DWIDTH 9 0
BBX 8 12 1 0
BITMAP
91
91
D1
D1
D1
D1
B1
B1
B1
B1
93
96
ENDCHAR
STARTCHAR 01CB
ENCODING 459
SWIDTH 462 0
DWIDTH 9 0
BBX 8 16 1 -3
BITMAP
03
93
90
D0
D3
D3
D3
B3
B3
B3
B3
93
93
03
03
0E
ENDCHAR
STARTCHAR 01CC
ENCODING 460
SWIDTH 462 0
DWIDTH 9 0
BBX 8 16 1 -3
BITMAP
03
03
00
00
F3
93
9B
9B
9B
9B
9B
9B
9B
03
03
0E
ENDCHAR
STARTCHAR 01CD
ENCODING 461
SWIDTH 462 0
DWIDTH 9 0
BBX 9 16 0 0
BITMAP
1200
1C00
0800
0000
0C00
1C00
1600
1200
3200
2300
2300
6100
7F80
4180
4080
C080
ENDCHAR
STARTCHAR 01CE
ENCODING 462
SWIDTH 462 0
DWIDTH 9 0
BBX 7 13 1 0
BITMAP
24
18
00
00
7C
06
02
02
7E
C2
C2
C2
7E
ENDCHAR
STARTCHAR 01CF
ENCODING 463
SWIDTH 462 0
DWIDTH 9 0
BBX 6 16 2 0
BITMAP
48
70
20
00
FC
30
30
30
30
30
30
30
30
30
30
FC
ENDCHAR
STARTCHAR 01D0
ENCODING 464
SWIDTH 462 0
DWIDTH 9 0
BBX 8 13 1 0
BITMAP
48
30
00
00
F0
10
10
10
10
10
10
19
1F
ENDCHAR
STARTCHAR 01D1
ENCODING 465
SWIDTH 462 0
DWIDTH 9 0
BBX 8 16 1 0
BITMAP
24
38
10
00
7C
66
C3
83
83
81
81
83
83
C3
66
7C
ENDCHAR
STARTCHAR 01D2
ENCODING 466
SWIDTH 462 0
DWIDTH 9 0
BBX 8 13 1 0
BITMAP
24
18
00
00
3C
66
C3
C3
83
C3
C3
66
3C
ENDCHAR
STARTCHAR 01D3
ENCODING 467
SWIDTH 462 0
DWIDTH 9 0
BBX 8 16 1 0
BITMAP
24
38
10
00
C3
C3
C3
C3
C3
C3
C3
C3
C3
C3
C6
7C
ENDCHAR
STARTCHAR 01D4
ENCODING 468
SWIDTH 462 0
DWIDTH 9 0
BBX 7 13 1 0
BITMAP
24
18
00
00
C2
C2
C2
C2
C2
C2
C2
62
3E
ENDCHAR
STARTCHAR 01D5
ENCODING 469
SWIDTH 462 0
DWIDTH 9 0
BBX 8 16 1 0
BITMAP
3C
00
66
00
C3
C3
C3
C3
C3
C3
C3
C3
C3
C3
C6
7C
ENDCHAR
STARTCHAR 01D6
ENCODING 470
SWIDTH 462 0
DWIDTH 9 0
BBX 7 14 1 0
BITMAP
3C
00
64
64
00
C2
C2
C2
C2
C2
C2
C2
62
3E
ENDCHAR
STARTCHAR 01D7
ENCODING 471
SWIDTH 462 0
DWIDTH 9 0
BBX 8 16 1 0
BITMAP
08
5A
46
00
C3
C3
C3
C3
C3
C3
C3
C3
C3
C3
C6
7C
ENDCHAR
STARTCHAR 01D8
ENCODING 472
SWIDTH 462 0
DWIDTH 9 0
BBX 7 14 1 1
BITMAP
08
18
66
64
00
C2
C2
C2
C2
C2
C2
C2
62
3E
ENDCHAR
STARTCHAR 01D9
ENCODING 473
SWIDTH 462 0
DWIDTH 9 0
BBX 8 16 1 0
BITMAP
38
52
46
00
C3
C3
C3
C3
C3
C3
C3
C3
C3
C3
C6
7C
ENDCHAR
STARTCHAR 01DA
ENCODING 474
SWIDTH 462 0
DWIDTH 9 0
BBX 7 14 1 0
BITMAP
3C
10
66
64
00
C2
C2
C2
C2
C2
C2
C2
62
3E
ENDCHAR
STARTCHAR 01DB
ENCODING 475
SWIDTH 462 0
DWIDTH 9 0
BBX 8 16 1 0
BITMAP
10
52
46
00
C3
C3
C3
C3
C3
C3
C3
C3
C3
C3
C6
7C
ENDCHAR
STARTCHAR 01DC
ENCODING 476
SWIDTH 462 0
DWIDTH 9 0
BBX 7 14 1 1
BITMAP
30
18
66
64
00
C2
C2
C2
C2
C2
C2
C2
62
3E
ENDCHAR
STARTCHAR 01DD
ENCODING 477
SWIDTH 462 0
DWIDTH 9 0
BBX 8 9 1 0
BITMAP
7C
06
03
03
FF
C3
C3
C6
7C
ENDCHAR
STARTCHAR 01DE
ENCODING 478
SWIDTH 462 0
DWIDTH 9 0
BBX 9 16 0 0
BITMAP
1E00
0000
3300
0000
0C00
1C00
1E00
1600
3200
3300
2300
6100
7F80
4180
4180
C080
ENDCHAR
STARTCHAR 01DF
ENCODING 479
SWIDTH 462 0
DWIDTH 9 0
BBX 7 14 1 0
BITMAP
3C
00
64
64
00
7C
06
02
02
7E
C2
C2
C2
7E
ENDCHAR
STARTCHAR 01E0
ENCODING 480
SWIDTH 462 0
DWIDTH 9 0
BBX 9 16 0 0
BITMAP
1E00
0000
0C00
0000
0C00
1C00
1E00
1600
3200
3300
2300
6100
7F80
4180
4180
C080
ENDCHAR
STARTCHAR 01E1
ENCODING 481
SWIDTH 462 0
DWIDTH 9 0
BBX 7 14 1 0
BITMAP
3C
00
18
18
00
7C
06
02
02
7E
C2
C2
C2
7E
ENDCHAR
STARTCHAR 01E2
ENCODING 482
SWIDTH 462 0
DWIDTH 9 0
BBX 8 15 1 0
BITMAP
1F
00
00
1F
1C
3C
2C
2C
6F
4C
4C
FC
CC
8C
8F
ENDCHAR
STARTCHAR 01E3
ENCODING 483
SWIDTH 462 0
DWIDTH 9 0
BBX 8 12 1 0
BITMAP
3E
00
00
FE
1B
19
19
FF
98
98
9C
FF
ENDCHAR
STARTCHAR 01E4
ENCODING 484
SWIDTH 462 0
DWIDTH 9 0
BBX 8 12 1 0
BITMAP
3E
62
40
C0
C0
C0
C2
CF
CF
C2
62
3E
ENDCHAR
STARTCHAR 01E5
ENCODING 485
SWIDTH 462 0
DWIDTH 9 0
BBX 8 12 1 -3
BITMAP
7E
E6
C6
86
8F
C6
C6
7E
3E
06
06
FC
ENDCHAR
STARTCHAR 01E6
ENCODING 486
SWIDTH 462 0
DWIDTH 9 0
BBX 8 16 1 0
BITMAP
12
1C
0C
00
3F
60
40
C0
C0
C0
C3
C3
C3
43
63
3F
ENDCHAR
STARTCHAR 01E7
ENCODING 487
SWIDTH 462 0
DWIDTH 9 0
BBX 7 16 1 -3
BITMAP
34
18
08
00
7E
62
C2
82
82
C2
C2
7E
3A
02
06
FC
ENDCHAR
STARTCHAR 01E8
ENCODING 488
SWIDTH 462 0
DWIDTH 9 0
BBX 8 16 1 0
BITMAP
24
38
10
00
C3
C6
CC
C8
D8
F0
F8
DC
CC
C6
C3
C3
ENDCHAR
STARTCHAR 01E9
ENCODING 489
SWIDTH 462 0
DWIDTH 9 0
BBX 8 16 1 0
BITMAP
90
60
00
C0
C0
C0
C0
C2
C4
D8
F0
F0
D8
CC
C6
C3
ENDCHAR
STARTCHAR 01EA
ENCODING 490
SWIDTH 462 0
DWIDTH 9 0
BBX 8 15 1 -3
BITMAP
7C
66
C3
83
83
81
81
83
83
C3
66
7C
08
10
1C
ENDCHAR
STARTCHAR 01EB
ENCODING 491
SWIDTH 462 0
DWIDTH 9 0
BBX 8 12 1 -3
BITMAP
3C
66
C3
C3
83
C3
C3
66
3C
18
10
18
ENDCHAR
STARTCHAR 01EC
ENCODING 492
SWIDTH 462 0
DWIDTH 9 0
BBX 8 18 1 -3
BITMAP
7C
00
00
7C
66
C3
83
83
81
81
83
83
C3
66
7C
08
10
1C
ENDCHAR
STARTCHAR 01ED
ENCODING 493
SWIDTH 462 0
DWIDTH 9 0
BBX 8 15 1 -3
BITMAP
7C
00
00
3C
66
C3
C3
83
C3
C3
66
3C
18
10
18
ENDCHAR
STARTCHAR 01EE
ENCODING 494
SWIDTH 462 0
DWIDTH 9 0
BBX 8 16 1 0
BITMAP
24
38
10
00
FF
06
04
0C
18
3C
06
03
03
03
86
FC
ENDCHAR
STARTCHAR 01EF
ENCODING 495
SWIDTH 462 0
DWIDTH 9 0
BBX 7 16 1 -3
BITMAP
24
18
00
00
FE
06
0C
18
10
38
0E
02
02
02
86
FC
ENDCHAR
STARTCHAR 01F0
ENCODING 496
SWIDTH 462 0
DWIDTH 9 0
BBX 7 16 1 -3
BITMAP
36
1C
08
00
7C
04
04
04
04
04
04
04
04
04
0C
FC
ENDCHAR
STARTCHAR 01F1
ENCODING 497
SWIDTH 462 0
DWIDTH 9 0
BBX 8 12 1 0
BITMAP
E7
B1
B1
93
92
92
92
96
94
B4
A4
E7
ENDCHAR
STARTCHAR 01F2
ENCODING 498
SWIDTH 462 0
DWIDTH 9 0
BBX 8 12 1 0
BITMAP
E0
B0
B0
97
91
91
93
92
92
B6
A4
E7
ENDCHAR
STARTCHAR 01F3
ENCODING 499
SWIDTH 462 0
DWIDTH 9 0
BBX 10 13 0 0
BITMAP
0800
0800
0800
0800
7BC0
4880
C880
C880
C900
C900
C900
4B00
7BC0
ENDCHAR
STARTCHAR 01F4
ENCODING 500
SWIDTH 462 0
DWIDTH 9 0
BBX 8 16 1 0
BITMAP
04
0C
18
00
3F
60
40
C0
C0
C0
C3
C3
C3
43
63
3F
ENDCHAR
STARTCHAR 01F5
ENCODING 501
SWIDTH 462 0
DWIDTH 9 0
BBX 7 16 1 -3
BITMAP
04
08
10
00
7E
62
C2
82
82
C2
C2
7E
3A
02
06
FC
ENDCHAR
STARTCHAR 01F6
ENCODING 502
SWIDTH 462 0
DWIDTH 9 0
BBX 8 12 1 0
BITMAP
98
98
98
99
99
F9
99
99
99
9B
9B
8E
ENDCHAR
STARTCHAR 01F7
ENCODING 503
SWIDTH 462 0
DWIDTH 9 0
BBX 8 15 1 -3
BITMAP
7C
C6
C3
C3
C3
C3
C3
C2
C6
CC
F8
E0
C0
C0
C0
ENDCHAR
STARTCHAR 01F8
ENCODING 504
SWIDTH 462 0
DWIDTH 9 0
BBX 8 16 1 0
BITMAP
10
18
08
00
C3
E3
E3
F3
D3
DB
CB
CB
C7
C7
C7
C3
ENDCHAR
STARTCHAR 01F9
ENCODING 505
SWIDTH 462 0
DWIDTH 9 0
BBX 7 13 1 0
BITMAP
30
18
08
00
FC
C6
C2
C2
C2
C2
C2
C2
C2
ENDCHAR
STARTCHAR 01FA
ENCODING 506
SWIDTH 462 0
DWIDTH 9 0
BBX 9 16 0 0
BITMAP
0400
0800
0C00
1400
1400
0C00
1E00
1200
3200
2300
2300
6100
7F80
4180
4080
C080
ENDCHAR
STARTCHAR 01FB
ENCODING 507
SWIDTH 462 0
DWIDTH 9 0
BBX 7 16 1 0
BITMAP
08
38
00
38
28
18
00
7C
06
02
02
7E
C2
C2
C2
7E
ENDCHAR
STARTCHAR 01FC
ENCODING 508
SWIDTH 462 0
DWIDTH 9 0
BBX 8 16 1 0
BITMAP
02
06
0C
00
1F
1C
3C
2C
2C
6F
4C
4C
FC
CC
8C
8F
ENDCHAR
STARTCHAR 01FD
ENCODING 509
SWIDTH 462 0
DWIDTH 9 0
BBX 8 13 1 0
BITMAP
0C
08
10
00
FE
1B
19
19
FF
98
98
9C
FF
ENDCHAR
STARTCHAR 01FE
ENCODING 510
SWIDTH 462 0
DWIDTH 9 0
BBX 8 16 1 -1
BITMAP
0C
08
10
02
7E
66
C7
8F
8B
99
91
B3
A3
E3
46
FC
ENDCHAR
STARTCHAR 01FF
ENCODING 511
SWIDTH 462 0
DWIDTH 9 0
BBX 8 13 1 -1
BITMAP
0C
18
10
00
3F
66
C7
CB
9B
B3
E3
66
FC
ENDCHAR
STARTCHAR 0200
ENCODING 512
SWIDTH 462 0
DWIDTH 9 0
BBX 9 16 0 0
BITMAP
2400
1600
1B00
0000
0C00
1C00
1600
1200
3200
2300
2300
6100
7F80
4180
4080
C080
ENDCHAR
STARTCHAR 0201
ENCODING 513
SWIDTH 462 0
DWIDTH 9 0
BBX 7 13 1 0
BITMAP
68
24
12
00
7C
06
02
02
7E
C2
C2
C2
7E
ENDCHAR
STARTCHAR 0202
ENCODING 514
SWIDTH 462 0
DWIDTH 9 0
BBX 9 16 0 0
BITMAP
0C00
1600
1200
0000
0C00
1C00
1600
1200
3200
2300
2300
6100
7F80
4180
4080
C080
ENDCHAR
STARTCHAR 0203
ENCODING 515
SWIDTH 462 0
DWIDTH 9 0
BBX 7 13 1 0
BITMAP
38
24
00
00
7C
06
02
02
7E
C2
C2
C2
7E
ENDCHAR
STARTCHAR 0204
ENCODING 516
SWIDTH 462 0
DWIDTH 9 0
BBX 7 16 2 0
BITMAP
90
58
6C
00
FE
80
80
80
80
FC
80
80
80
80
80
FE
ENDCHAR
STARTCHAR 0205
ENCODING 517
SWIDTH 462 0
DWIDTH 9 0
BBX 8 13 1 0
BITMAP
68
24
12
00
3C
66
C3
83
FF
80
C0
60
3E
ENDCHAR
STARTCHAR 0206
ENCODING 518
SWIDTH 462 0
DWIDTH 9 0
BBX 7 16 2 0
BITMAP
30
68
44
00
FE
80
80
80
80
FC
80
80
80
80
80
FE
ENDCHAR
STARTCHAR 0207
ENCODING 519
SWIDTH 462 0
DWIDTH 9 0
BBX 8 13 1 0
BITMAP
1C
24
00
00
3C
66
C3
83
FF
80
C0
60
3E
ENDCHAR
STARTCHAR 0208
ENCODING 520
SWIDTH 462 0
DWIDTH 9 0
BBX 6 16 2 0
BITMAP
90
D8
48
00
FC
30
30
30
30
30
30
30
30
30
30
FC
ENDCHAR
STARTCHAR 0209
ENCODING 521
SWIDTH 462 0
DWIDTH 9 0
BBX 8 13 1 0
BITMAP
D0
48
20
00
F0
10
10
10
10
10
10
19
1F
ENDCHAR
STARTCHAR 020A
ENCODING 522
SWIDTH 462 0
DWIDTH 9 0
BBX 6 16 2 0
BITMAP
30
58
48
00
FC
30
30
30
30
30
30
30
30
30
30
FC
ENDCHAR
STARTCHAR 020B
ENCODING 523
SWIDTH 462 0
DWIDTH 9 0
BBX 8 13 1 0
BITMAP
38
48
00
00
F0
10
10
10
10
10
10
19
1F
ENDCHAR
STARTCHAR 020C
ENCODING 524
SWIDTH 462 0
DWIDTH 9 0
BBX 8 16 1 0
BITMAP
48
6C
24
00
7C
66
C3
83
83
81
81
83
83
C3
66
7C
ENDCHAR
STARTCHAR 020D
ENCODING 525
SWIDTH 462 0
DWIDTH 9 0
BBX 8 13 1 0
BITMAP
58
6C
24
00
3C
66
C3
C3
83
C3
C3
66
3C
ENDCHAR
STARTCHAR 020E
ENCODING 526
SWIDTH 462 0
DWIDTH 9 0
BBX 8 16 1 0
BITMAP
18
2C
24
00
7C
66
C3
83
83
81
81
83
83
C3
66
7C
ENDCHAR
STARTCHAR 020F
ENCODING 527
SWIDTH 462 0
DWIDTH 9 0
BBX 8 13 1 0
BITMAP
38
24
00
00
3C
66
C3
C3
83
C3
C3
66
3C
ENDCHAR
STARTCHAR 0210
ENCODING 528
SWIDTH 462 0
DWIDTH 9 0
BBX 8 16 1 0
BITMAP
48
68
24
00
FC
C6
C2
C2
C2
C6
FC
CC
C4
C6
C2
C3
ENDCHAR
STARTCHAR 0211
ENCODING 529
SWIDTH 462 0
DWIDTH 9 0
BBX 6 13 2 0
BITMAP
B0
D8
48
00
FC
C0
C0
C0
C0
C0
C0
C0
C0
ENDCHAR
STARTCHAR 0212
ENCODING 530
SWIDTH 462 0
DWIDTH 9 0
BBX 8 16 1 0
BITMAP
30
68
44
00
FC
C6
C2
C2
C2
C6
FC
CC
C4
C6
C2
C3
ENDCHAR
STARTCHAR 0213
ENCODING 531
SWIDTH 462 0
DWIDTH 9 0
BBX 6 13 2 0
BITMAP
38
4C
00
00
FC
C0
C0
C0
C0
C0
C0
C0
C0
ENDCHAR
STARTCHAR 0214
ENCODING 532
SWIDTH 462 0
DWIDTH 9 0
BBX 8 16 1 0
BITMAP
48
6C
36
00
C3
C3
C3
C3
C3
C3
C3
C3
C3
C3
C6
7C
ENDCHAR
STARTCHAR 0215
ENCODING 533
SWIDTH 462 0
DWIDTH 9 0
BBX 7 13 1 0
BITMAP
58
6C
24
00
C2
C2
C2
C2
C2
C2
C2
62
3E
ENDCHAR
STARTCHAR 0216
ENCODING 534
SWIDTH 462 0
DWIDTH 9 0
BBX 8 16 1 0
BITMAP
18
2C
24
00
C3
C3
C3
C3
C3
C3
C3
C3
C3
C3
C6
7C
ENDCHAR
STARTCHAR 0217
ENCODING 535
SWIDTH 462 0
DWIDTH 9 0
BBX 7 13 1 0
BITMAP
38
24
00
00
C2
C2
C2
C2
C2
C2
C2
62
3E
ENDCHAR
STARTCHAR 0218
ENCODING 536
SWIDTH 462 0
DWIDTH 9 0
BBX 8 15 1 -3
BITMAP
7E
62
C0
C0
60
38
0E
06
03
03
86
FC
00
18
30
ENDCHAR
STARTCHAR 0219
ENCODING 537
SWIDTH 462 0
DWIDTH 9 0
BBX 7 12 1 -3
BITMAP
7E
42
C0
60
3C
06
02
46
FE
00
18
30
ENDCHAR
STARTCHAR 021A
ENCODING 538
SWIDTH 462 0
DWIDTH 9 0
BBX 8 15 1 -3
BITMAP
FF
18
18
18
18
18
18
18
18
18
18
18
00
18
30
ENDCHAR
STARTCHAR 021B
ENCODING 539
SWIDTH 462 0
DWIDTH 9 0
BBX 8 15 1 -3
BITMAP
30
30
30
FF
30
30
30
30
30
30
31
1F
00
0C
1C
ENDCHAR
STARTCHAR 021C
ENCODING 540
SWIDTH 462 0
DWIDTH 9 0
BBX 8 15 1 -3
BITMAP
FC
86
03
03
02
06
7C
3E
03
03
03
03
03
0E
F8
ENDCHAR
STARTCHAR 021D
ENCODING 541
SWIDTH 462 0
DWIDTH 9 0
BBX 7 12 1 -3
BITMAP
FC
86
06
06
0C
3C
0E
02
02
06
1C
F8
ENDCHAR
STARTCHAR 021E
ENCODING 542
SWIDTH 462 0
DWIDTH 9 0
BBX 8 16 1 0
BITMAP
24
38
10
00
83
83
83
83
83
FF
83
83
83
83
83
83
ENDCHAR
STARTCHAR 021F
ENCODING 543
SWIDTH 462 0
DWIDTH 9 0
BBX 7 16 1 0
BITMAP
90
60
00
C0
C0
C0
C0
FC
C6
C2
C2
C2
C2
C2
C2
C2
ENDCHAR
STARTCHAR 0220
ENCODING 544
SWIDTH 462 0
DWIDTH 9 0
BBX 8 15 1 -3
BITMAP
FC
86
83
83
83
83
83
83
83
83
83
83
03
03
03
ENDCHAR
STARTCHAR 0221
ENCODING 545
SWIDTH 462 0
DWIDTH 9 0
BBX 10 16 0 -3
BITMAP
0400
0400
0400
0400
3C00
6C00
4400
4400
C400
4400
4400
6580
3E80
04C0
0EC0
1380
ENDCHAR
STARTCHAR 0222
ENCODING 546
SWIDTH 462 0
DWIDTH 9 0
BBX 8 12 1 0
BITMAP
46
42
42
46
66
3C
C6
83
83
83
E6
7C
ENDCHAR
STARTCHAR 0223
ENCODING 547
SWIDTH 462 0
DWIDTH 9 0
BBX 8 13 1 0
BITMAP
C2
C2
C3
C2
66
7C
C6
C3
83
83
C3
E6
7C
ENDCHAR
STARTCHAR 0224
ENCODING 548
SWIDTH 462 0
DWIDTH 9 0
BBX 8 15 1 -3
BITMAP
FF
02
06
0C
08
18
10
30
60
40
C0
FF
03
03
0E
ENDCHAR
STARTCHAR 0225
ENCODING 549
SWIDTH 462 0
DWIDTH 9 0
BBX 7 12 1 -3
BITMAP
7E
06
0C
18
10
30
60
40
FE
02
02
0E
ENDCHAR
STARTCHAR 0226
ENCODING 550
SWIDTH 462 0
DWIDTH 9 0
BBX 9 16 0 0
BITMAP
0C00
0C00
0000
0000
0C00
1C00
1600
1200
3200
2300
2300
6100
7F80
4180
4080
C080
ENDCHAR
STARTCHAR 0227
ENCODING 551
SWIDTH 462 0
DWIDTH 9 0
BBX 7 13 1 0
BITMAP
18
18
00
00
7C
06
02
02
7E
C2
C2
C2
7E
ENDCHAR
STARTCHAR 0228
ENCODING 552
SWIDTH 462 0
DWIDTH 9 0
BBX 7 15 2 -3
BITMAP
FE
80
80
80
80
FC
80
80
80
80
80
FE
10
18
38
ENDCHAR
STARTCHAR 0229
ENCODING 553
SWIDTH 462 0
DWIDTH 9 0
BBX 8 12 1 -3
BITMAP
3C
66
C3
83
FF
80
C0
60
3E
18
08
38
ENDCHAR
STARTCHAR 022A
ENCODING 554
SWIDTH 462 0
DWIDTH 9 0
BBX 8 16 1 0
BITMAP
3C
00
66
00
3C
6E
C3
C3
83
81
81
83
83
C3
66
7C
ENDCHAR
STARTCHAR 022B
ENCODING 555
SWIDTH 462 0
DWIDTH 9 0
BBX 8 14 1 0
BITMAP
3C
00
64
64
00
3C
66
C3
C3
83
C3
C3
66
3C
ENDCHAR
STARTCHAR 022C
ENCODING 556
SWIDTH 462 0
DWIDTH 9 0
BBX 8 16 1 0
BITMAP
3C
00
7C
00
3C
6E
C3
C3
83
81
81
83
83
C3
66
7C
ENDCHAR
STARTCHAR 022D
ENCODING 557
SWIDTH 462 0
DWIDTH 9 0
BBX 8 14 1 0
BITMAP
3C
00
34
4C
00
3C
66
C3
C3
83
C3
C3
66
3C
ENDCHAR
STARTCHAR 022E
ENCODING 558
SWIDTH 462 0
DWIDTH 9 0
BBX 8 16 1 0
BITMAP
10
18
18
00
7C
66
C3
83
83
81
81
83
83
C3
66
7C
ENDCHAR
STARTCHAR 022F
ENCODING 559
SWIDTH 462 0
DWIDTH 9 0
BBX 8 13 1 0
BITMAP
18
18
00
00
3C
66
C3
C3
83
C3
C3
66
3C
ENDCHAR
STARTCHAR 0230
ENCODING 560
SWIDTH 462 0
DWIDTH 9 0
BBX 8 16 1 0
BITMAP
3C
00
18
00
3C
6E
C3
C3
83
81
81
83
83
C3
66
7C
ENDCHAR
STARTCHAR 0231
ENCODING 561
SWIDTH 462 0
DWIDTH 9 0
BBX 8 14 1 0
BITMAP
3C
00
18
18
00
3C
66
C3
C3
83
C3
C3
66
3C
ENDCHAR
STARTCHAR 0232
ENCODING 562
SWIDTH 462 0
DWIDTH 9 0
BBX 9 15 0 0
BITMAP
3E00
0000
0000
C080
6180
6100
3300
3200
1E00
1C00
0C00
0C00
0C00
0C00
0C00
ENDCHAR
STARTCHAR 0233
ENCODING 563
SWIDTH 462 0
DWIDTH 9 0
BBX 8 15 1 -3
BITMAP
7C
00
00
C3
C3
42
66
66
24
34
1C
18
18
10
E0
ENDCHAR
STARTCHAR 0234
ENCODING 564
SWIDTH 462 0
DWIDTH 9 0
BBX 7 16 1 -3
BITMAP
F0
30
30
30
30
30
30
30
30
30
30
3C
3E
32
72
DE
ENDCHAR
STARTCHAR 0235
ENCODING 565
SWIDTH 462 0
DWIDTH 9 0
BBX 9 12 1 -3
BITMAP
F800
9800
8800
8800
8800
8800
8800
8B00
8D00
0980
1D80
2700
ENDCHAR
STARTCHAR 0236
ENCODING 566
SWIDTH 462 0
DWIDTH 9 0
BBX 7 15 1 -3
BITMAP
30
30
30
FE
30
30
30
30
30
30
3C
3E
32
72
DE
ENDCHAR
STARTCHAR 0237
ENCODING 567
SWIDTH 462 0
DWIDTH 9 0
BBX 6 12 1 -3
BITMAP
7C
04
04
04
04
04
04
04
04
04
0C
FC
ENDCHAR
STARTCHAR 0238
ENCODING 568
SWIDTH 462 0
DWIDTH 9 0
BBX 8 13 1 0
BITMAP
18
18
18
18
7E
9B
99
99
99
99
99
DB
7E
ENDCHAR
STARTCHAR 0239
ENCODING 569
SWIDTH 462 0
DWIDTH 9 0
BBX 8 12 1 -3
BITMAP
7E
DB
99
99
99
99
99
9B
FE
18
18
18
ENDCHAR
STARTCHAR 023A
ENCODING 570
SWIDTH 462 0
DWIDTH 9 0
BBX 9 15 0 -2
BITMAP
0100
0F00
1E00
1600
1200
3600
2700
2500
6D00
7F80
4980
4880
D880
1000
1000
ENDCHAR
STARTCHAR 023B
ENCODING 571
SWIDTH 462 0
DWIDTH 9 0
BBX 8 15 1 -2
BITMAP
02
3F
67
44
C4
CC
C8
C8
C8
D8
50
71
3F
20
20
ENDCHAR
STARTCHAR 023C
ENCODING 572
SWIDTH 462 0
DWIDTH 9 0
BBX 8 11 1 0
BITMAP
06
3F
64
CC
C8
88
C8
D0
71
3F
20
ENDCHAR
STARTCHAR 023D
ENCODING 573
SWIDTH 462 0
DWIDTH 9 0
BBX 8 12 1 0
BITMAP
60
60
60
60
60
F8
60
60
60
60
60
7F
ENDCHAR
STARTCHAR 023E
ENCODING 574
SWIDTH 462 0
DWIDTH 9 0
BBX 10 13 0 -1
BITMAP
00C0
FF80
0900
0B00
0A00
0E00
0C00
0800
1800
1800
2800
6800
4800
ENDCHAR
STARTCHAR 023F
ENCODING 575
SWIDTH 462 0
DWIDTH 9 0
BBX 7 12 1 -3
BITMAP
7E
42
C0
60
3C
06
02
46
FC
20
18
0E
ENDCHAR
STARTCHAR 0240
ENCODING 576
SWIDTH 462 0
DWIDTH 9 0
BBX 8 12 1 -3
BITMAP
7E
06
0C
18
10
30
60
40
F0
18
0C
07
ENDCHAR
STARTCHAR 0241
ENCODING 577
SWIDTH 462 0
DWIDTH 9 0
BBX 8 12 1 0
BITMAP
FE
46
03
03
06
0C
18
30
30
30
30
30
ENDCHAR
STARTCHAR 0242
ENCODING 578
SWIDTH 462 0
DWIDTH 9 0
BBX 6 9 2 0
BITMAP
F8
8C
04
0C
38
30
60
60
60
ENDCHAR
STARTCHAR 0243
ENCODING 579
SWIDTH 462 0
DWIDTH 9 0
BBX 9 12 0 0
BITMAP
7E00
6300
6100
6100
6300
7E00
6300
6180
F980
6180
6300
7E00
ENDCHAR
STARTCHAR 0244
ENCODING 580
SWIDTH 462 0
DWIDTH 9 0
BBX 9 12 0 0
BITMAP
6100
6100
6100
6100
6100
FF80
6100
6100
6100
6100
3300
3E00
ENDCHAR
STARTCHAR 0245
ENCODING 581
SWIDTH 462 0
DWIDTH 9 0
BBX 9 12 0 0
BITMAP
0C00
1C00
1600
1200
3200
2300
2300
6100
6180
4180
4180
C080
ENDCHAR
STARTCHAR 0246
ENCODING 582
SWIDTH 462 0
DWIDTH 9 0
BBX 7 15 2 -2
BITMAP
02
FE
84
84
8C
88
FC
98
90
90
B0
A0
FE
60
40
ENDCHAR
STARTCHAR 0247
ENCODING 583
SWIDTH 462 0
DWIDTH 9 0
BBX 8 12 1 -1
BITMAP
04
04
3C
6E
CB
9B
FF
90
F0
60
3E
20
ENDCHAR
STARTCHAR 0248
ENCODING 584
SWIDTH 462 0
DWIDTH 9 0
BBX 8 12 1 0
BITMAP
7E
06
06
06
06
1F
06
06
06
06
CE
FC
ENDCHAR
STARTCHAR 0249
ENCODING 585
SWIDTH 462 0
DWIDTH 9 0
BBX 8 16 1 -3
BITMAP
0C
0C
00
00
7C
04
04
04
7F
04
04
04
04
04
0C
FC
ENDCHAR
STARTCHAR 024A
ENCODING 586
SWIDTH 462 0
DWIDTH 9 0
BBX 9 15 1 -3
BITMAP
7C00
C600
C600
8200
8200
8200
8300
8300
8300
C700
4700
7B00
0300
0300
0380
ENDCHAR
STARTCHAR 024B
ENCODING 587
SWIDTH 462 0
DWIDTH 9 0
BBX 9 12 1 -3
BITMAP
3E00
6600
C600
C600
8600
C600
C600
E600
7E00
0600
0200
0380
ENDCHAR
STARTCHAR 024C
ENCODING 588
SWIDTH 462 0
DWIDTH 9 0
BBX 9 12 0 0
BITMAP
3E00
2300
2100
2180
2100
2300
FE00
2600
2200
2300
2100
2180
ENDCHAR
STARTCHAR 024D
ENCODING 589
SWIDTH 462 0
DWIDTH 9 0
BBX 7 9 1 0
BITMAP
7E
60
60
60
FC
60
60
60
60
ENDCHAR
STARTCHAR 024E
ENCODING 590
SWIDTH 462 0
DWIDTH 9 0
BBX 8 12 1 0
BITMAP
83
C3
C2
FF
64
3C
38
18
18
18
18
18
ENDCHAR
STARTCHAR 024F
ENCODING 591
SWIDTH 462 0
DWIDTH 9 0
BBX 8 12 1 -3
BITMAP
C3
C3
42
62
FF
34
34
1C
18
18
10
F0
ENDCHAR
STARTCHAR 0292
ENCODING 658
SWIDTH 462 0
DWIDTH 9 0
BBX 7 12 1 -3
BITMAP
FE
06
0C
18
10
38
0E
02
02
02
86
FC
ENDCHAR
STARTCHAR 02BC
ENCODING 700
SWIDTH 462 0
DWIDTH 9 0
BBX 2 3 4 10
BITMAP
C0
C0
80
ENDCHAR
STARTCHAR 02C6
ENCODING 710
SWIDTH 462 0
DWIDTH 9 0
BBX 4 3 3 10
BITMAP
60
F0
90
ENDCHAR
STARTCHAR 02C7
ENCODING 711
SWIDTH 462 0
DWIDTH 9 0
BBX 4 2 3 10
BITMAP
90
60
ENDCHAR
STARTCHAR 02C9
ENCODING 713
SWIDTH 462 0
DWIDTH 9 0
BBX 5 1 2 11
BITMAP
F8
ENDCHAR
STARTCHAR 02D8
ENCODING 728
SWIDTH 462 0
DWIDTH 9 0
BBX 4 2 3 11
BITMAP
90
F0
ENDCHAR
STARTCHAR 02D9
ENCODING 729
SWIDTH 462 0
DWIDTH 9 0
BBX 2 2 4 11
BITMAP
C0
C0
ENDCHAR
STARTCHAR 02DA
ENCODING 730
SWIDTH 462 0
DWIDTH 9 0
BBX 4 3 3 11
BITMAP
F0
90
60
ENDCHAR
STARTCHAR 02DB
ENCODING 731
SWIDTH 462 0
DWIDTH 9 0
BBX 3 3 3 -3
BITMAP
60
C0
E0
ENDCHAR
STARTCHAR 02DC
ENCODING 732
SWIDTH 462 0
DWIDTH 9 0
BBX 5 2 2 11
BITMAP
60
F8
ENDCHAR
STARTCHAR 02DD
ENCODING 733
SWIDTH 462 0
DWIDTH 9 0
BBX 6 3 2 10
BITMAP
6C
58
90
ENDCHAR
STARTCHAR 0311
ENCODING 785
SWIDTH 462 0
DWIDTH 9 0
BBX 4 2 3 11
BITMAP
E0
90
ENDCHAR
STARTCHAR 0384
ENCODING 900
SWIDTH 462 0
DWIDTH 9 0
BBX 3 3 3 11
BITMAP
60
40
C0
ENDCHAR
STARTCHAR 0385
ENCODING 901
SWIDTH 462 0
DWIDTH 9 0
BBX 7 3 1 11
BITMAP
5A
D6
30
ENDCHAR
STARTCHAR 0386
ENCODING 902
SWIDTH 462 0
DWIDTH 9 0
BBX 9 12 0 0
BITMAP
4C00
5C00
D600
1200
3200
2300
2300
6100
7F80
4180
4080
C080
ENDCHAR
STARTCHAR 0388
ENCODING 904
SWIDTH 462 0
DWIDTH 9 0
BBX 10 12 -1 0
BITMAP
DFC0
D000
9000
1000
1000
1F80
1000
1000
1000
1000
1000
1FC0
ENDCHAR
STARTCHAR 0389
ENCODING 905
SWIDTH 462 0
DWIDTH 9 0
BBX 11 12 -2 0
BITMAP
D060
D060
9060
1060
1060
1FE0
1060
1060
1060
1060
1060
1060
ENDCHAR
STARTCHAR 038A
ENCODING 906
SWIDTH 462 0
DWIDTH 9 0
BBX 9 12 -1 0
BITMAP
DF80
8600
8600
0600
0600
0600
0600
0600
0600
0600
0600
1F80
ENDCHAR
STARTCHAR 038C
ENCODING 908
SWIDTH 462 0
DWIDTH 9 0
BBX 10 12 -1 0
BITMAP
DF00
9980
B0C0
20C0
20C0
2040
2040
20C0
20C0
30C0
1980
1F00
ENDCHAR
STARTCHAR 038E
ENCODING 910
SWIDTH 462 0
DWIDTH 9 0
BBX 11 12 -2 0
BITMAP
F020
9860
9840
0CC0
0C80
0780
0700
0300
0300
0300
0300
0300
ENDCHAR
STARTCHAR 038F
ENCODING 911
SWIDTH 462 0
DWIDTH 9 0
BBX 10 12 -1 0
BITMAP
CF00
9980
B0C0
20C0
20C0
20C0
20C0
30C0
3080
1180
1900
79C0
ENDCHAR
STARTCHAR 0390
ENCODING 912
SWIDTH 462 0
DWIDTH 9 0
BBX 8 13 1 1
BITMAP
94
F6
20
00
F0
10
10
10
10
10
10
19
1F
ENDCHAR
STARTCHAR 0391
ENCODING 913
SWIDTH 462 0
DWIDTH 9 0
BBX 9 12 0 0
BITMAP
0C00
1C00
1600
1200
3200
2300
2300
6100
7F80
4180
4080
C080
ENDCHAR
STARTCHAR 0392
ENCODING 914
SWIDTH 462 0
DWIDTH 9 0
BBX 8 12 1 0
BITMAP
FC
C6
C2
C2
C6
FC
C6
C3
C3
C3
C6
FC
ENDCHAR
STARTCHAR 0393
ENCODING 915
SWIDTH 462 0
DWIDTH 9 0
BBX 8 12 1 0
BITMAP
3F
20
20
20
20
20
20
20
20
20
20
FC
ENDCHAR
STARTCHAR 0394
ENCODING 916
SWIDTH 462 0
DWIDTH 9 0
BBX 9 12 0 0
BITMAP
0C00
1C00
1E00
1200
3200
3300
2300
6100
6180
4180
4080
FF80
ENDCHAR
STARTCHAR 0395
ENCODING 917
SWIDTH 462 0
DWIDTH 9 0
BBX 7 12 2 0
BITMAP
FE
80
80
80
80
FC
80
80
80
80
80
FE
ENDCHAR
STARTCHAR 0396
ENCODING 918
SWIDTH 462 0
DWIDTH 9 0
BBX 8 12 1 0
BITMAP
FF
03
06
0C
0C
18
30
30
60
40
C0
FF
ENDCHAR
STARTCHAR 0397
ENCODING 919
SWIDTH 462 0
DWIDTH 9 0
BBX 8 12 1 0
BITMAP
83
83
83
83
83
FF
83
83
83
83
83
83
ENDCHAR
STARTCHAR 0398
ENCODING 920
SWIDTH 462 0
DWIDTH 9 0
BBX 8 12 1 0
BITMAP
7C
66
C3
83
83
B9
B9
83
83
C3
66
7C
ENDCHAR
STARTCHAR 0399
ENCODING 921
SWIDTH 462 0
DWIDTH 9 0
BBX 6 12 2 0
BITMAP
FC
30
30
30
30
30
30
30
30
30
30
FC
ENDCHAR
STARTCHAR 039A
ENCODING 922
SWIDTH 462 0
DWIDTH 9 0
BBX 8 12 1 0
BITMAP
C6
C6
CC
D8
D0
F0
F0
D8
CC
C6
C6
C3
ENDCHAR
STARTCHAR 039B
ENCODING 923
SWIDTH 462 0
DWIDTH 9 0
BBX 9 12 0 0
BITMAP
0C00
1C00
1600
1200
3200
2300
2300
6100
6180
4180
4180
C080
ENDCHAR
STARTCHAR 039C
ENCODING 924
SWIDTH 462 0
DWIDTH 9 0
BBX 8 12 1 0
BITMAP
C6
E7
A7
A7
AF
BB
9B
83
83
83
83
81
ENDCHAR
STARTCHAR 039D
ENCODING 925
SWIDTH 462 0
DWIDTH 9 0
BBX 8 12 1 0
BITMAP
C3
E3
E3
F3
D3
DB
CB
CB
C7
C7
C7
C3
ENDCHAR
STARTCHAR 039E
ENCODING 926
SWIDTH 462 0
DWIDTH 9 0
BBX 8 12 1 0
BITMAP
FF
00
00
00
00
7E
00
00
00
00
00
FF
ENDCHAR
STARTCHAR 039F
ENCODING 927
SWIDTH 462 0
DWIDTH 9 0
BBX 8 12 1 0
BITMAP
7C
66
C3
83
83
81
81
83
83
C3
66
7C
ENDCHAR
STARTCHAR 03A0
ENCODING 928
SWIDTH 462 0
DWIDTH 9 0
BBX 8 12 1 0
BITMAP
FF
83
83
83
83
83
83
83
83
83
83
83
ENDCHAR
STARTCHAR 03A1
ENCODING 929
SWIDTH 462 0
DWIDTH 9 0
BBX 8 12 1 0
BITMAP
FC
C6
C3
C3
C3
C3
FE
F0
C0
C0
C0
C0
ENDCHAR
STARTCHAR 03A3
ENCODING 931
SWIDTH 462 0
DWIDTH 9 0
BBX 8 12 1 0
BITMAP
FF
C0
60
30
10
18
18
30
60
40
C0
FF
ENDCHAR
STARTCHAR 03A4
ENCODING 932
SWIDTH 462 0
DWIDTH 9 0
BBX 8 12 1 0
BITMAP
FF
18
18
18
18
18
18
18
18
18
18
18
ENDCHAR
STARTCHAR 03A5
ENCODING 933
SWIDTH 462 0
DWIDTH 9 0
BBX 9 12 0 0
BITMAP
C080
6180
6100
3300
3200
1E00
1C00
0C00
0C00
0C00
0C00
0C00
ENDCHAR
STARTCHAR 03A6
ENCODING 934
SWIDTH 462 0
DWIDTH 9 0
BBX 8 13 1 0
BITMAP
18
18
7E
DA
DB
9B
9B
9B
DB
DA
7E
18
18
ENDCHAR
STARTCHAR 03A7
ENCODING 935
SWIDTH 462 0
DWIDTH 9 0
BBX 8 12 1 0
BITMAP
C3
C6
66
2C
38
18
38
2C
64
46
C3
83
ENDCHAR
STARTCHAR 03A8
ENCODING 936
SWIDTH 462 0
DWIDTH 9 0
BBX 8 12 1 0
BITMAP
83
83
83
9B
9B
DB
DB
7E
7C
18
18
18
ENDCHAR
STARTCHAR 03A9
ENCODING 937
SWIDTH 462 0
DWIDTH 9 0
BBX 9 12 0 0
BITMAP
1E00
3300
6180
4180
4180
4180
4180
6180
6100
2300
3200
F380
ENDCHAR
STARTCHAR 03AA
ENCODING 938
SWIDTH 462 0
DWIDTH 9 0
BBX 6 15 2 0
BITMAP
CC
48
00
FC
30
30
30
30
30
30
30
30
30
30
FC
ENDCHAR
STARTCHAR 03AB
ENCODING 939
SWIDTH 462 0
DWIDTH 9 0
BBX 9 15 0 0
BITMAP
3300
1200
0000
C080
6180
6100
3300
3200
1E00
1C00
0C00
0C00
0C00
0C00
0C00
ENDCHAR
STARTCHAR 03AC
ENCODING 940
SWIDTH 462 0
DWIDTH 9 0
BBX 8 13 1 1
BITMAP
0C
18
10
00
3E
62
C2
C2
C2
C2
C2
67
3F
ENDCHAR
STARTCHAR 03AD
ENCODING 941
SWIDTH 462 0
DWIDTH 9 0
BBX 8 13 1 1
BITMAP
0C
08
10
00
3E
60
40
60
7C
40
C0
61
7F
ENDCHAR
STARTCHAR 03AE
ENCODING 942
SWIDTH 462 0
DWIDTH 9 0
BBX 7 16 1 -2
BITMAP
0C
18
10
00
FC
C6
C2
C2
C2
C2
C2
C2
C2
02
02
02
ENDCHAR
STARTCHAR 03AF
ENCODING 943
SWIDTH 462 0
DWIDTH 9 0
BBX 8 13 1 1
BITMAP
08
18
10
00
F0
10
10
10
10
10
10
19
1F
ENDCHAR
STARTCHAR 03B0
ENCODING 944
SWIDTH 462 0
DWIDTH 9 0
BBX 7 13 1 1
BITMAP
4A
D6
10
00
C2
C2
C2
C2
C2
C2
42
66
3C
ENDCHAR
STARTCHAR 03B1
ENCODING 945
SWIDTH 462 0
DWIDTH 9 0
BBX 8 9 1 0
BITMAP
3E
62
C2
C2
C2
C2
C2
67
3F
ENDCHAR
STARTCHAR 03B2
ENCODING 946
SWIDTH 462 0
DWIDTH 9 0
BBX 8 16 1 -3
BITMAP
7C
66
C6
C6
C6
D8
C6
C3
C3
C3
C3
E6
FC
C0
C0
C0
ENDCHAR
STARTCHAR 03B3
ENCODING 947
SWIDTH 462 0
DWIDTH 9 0
BBX 8 12 1 -3
BITMAP
C3
C3
42
66
66
24
3C
38
38
10
10
18
ENDCHAR
STARTCHAR 03B4
ENCODING 948
SWIDTH 462 0
DWIDTH 9 0
BBX 8 13 1 0
BITMAP
3E
60
60
30
3C
66
C2
C3
83
83
C3
E6
7C
ENDCHAR
STARTCHAR 03B5
ENCODING 949
SWIDTH 462 0
DWIDTH 9 0
BBX 8 9 1 0
BITMAP
3E
60
40
60
7C
40
C0
61
7F
ENDCHAR
STARTCHAR 03B6
ENCODING 950
SWIDTH 462 0
DWIDTH 9 0
BBX 8 16 1 -3
BITMAP
7E
06
0C
18
30
60
40
C0
C0
C0
C0
78
1E
03
03
02
ENDCHAR
STARTCHAR 03B7
ENCODING 951
SWIDTH 462 0
DWIDTH 9 0
BBX 7 12 1 -3
BITMAP
FC
C6
C2
C2
C2
C2
C2
C2
C2
02
02
02
ENDCHAR
STARTCHAR 03B8
ENCODING 952
SWIDTH 462 0
DWIDTH 9 0
BBX 8 13 1 0
BITMAP
3C
66
C2
C3
C3
C3
FF
C3
C3
C2
42
66
3C
ENDCHAR
STARTCHAR 03B9
ENCODING 953
SWIDTH 462 0
DWIDTH 9 0
BBX 8 9 1 0
BITMAP
F0
10
10
10
10
10
10
19
1F
ENDCHAR
STARTCHAR 03BA
ENCODING 954
SWIDTH 462 0
DWIDTH 9 0
BBX 8 9 1 0
BITMAP
C2
C4
D8
F0
F0
D8
CC
C6
C3
ENDCHAR
STARTCHAR 03BB
ENCODING 955
SWIDTH 462 0
DWIDTH 9 0
BBX 8 13 1 0
BITMAP
E0
30
10
18
18
3C
3C
24
66
46
C2
C3
83
ENDCHAR
STARTCHAR 03BC
ENCODING 956
SWIDTH 462 0
DWIDTH 9 0
BBX 7 12 1 -3
BITMAP
C2
C2
C2
C2
C2
C2
C2
E2
FE
C0
C0
C0
ENDCHAR
STARTCHAR 03BD
ENCODING 957
SWIDTH 462 0
DWIDTH 9 0
BBX 8 9 1 0
BITMAP
83
C3
C2
46
66
24
3C
38
18
ENDCHAR
STARTCHAR 03BE
ENCODING 958
SWIDTH 462 0
DWIDTH 9 0
BBX 8 16 1 -3
BITMAP
3E
60
60
60
60
3E
38
60
C0
C0
C0
78
1E
03
03
02
ENDCHAR
STARTCHAR 03BF
ENCODING 959
SWIDTH 462 0
DWIDTH 9 0
BBX 8 9 1 0
BITMAP
3C
66
C3
C3
83
C3
C3
66
3C
ENDCHAR
STARTCHAR 03C0
ENCODING 960
SWIDTH 462 0
DWIDTH 9 0
BBX 7 9 1 0
BITMAP
FE
C2
C2
C2
C2
C2
C2
C2
C2
ENDCHAR
STARTCHAR 03C1
ENCODING 961
SWIDTH 462 0
DWIDTH 9 0
BBX 8 12 1 -3
BITMAP
3C
66
43
C3
C3
C3
C3
E6
FC
C0
C0
C0
ENDCHAR
STARTCHAR 03C2
ENCODING 962
SWIDTH 462 0
DWIDTH 9 0
BBX 8 12 1 -3
BITMAP
3F
60
40
C0
C0
C0
40
78
1E
03
03
02
ENDCHAR
STARTCHAR 03C3
ENCODING 963
SWIDTH 462 0
DWIDTH 9 0
BBX 8 9 1 0
BITMAP
3F
64
C2
C3
83
83
C2
66
7C
ENDCHAR
STARTCHAR 03C4
ENCODING 964
SWIDTH 462 0
DWIDTH 9 0
BBX 8 9 1 0
BITMAP
FE
30
30
30
30
30
30
31
1F
ENDCHAR
STARTCHAR 03C5
ENCODING 965
SWIDTH 462 0
DWIDTH 9 0
BBX 7 9 1 0
BITMAP
C2
C2
C2
C2
C2
C2
42
66
3C
ENDCHAR
STARTCHAR 03C6
ENCODING 966
SWIDTH 462 0
DWIDTH 9 0
BBX 9 12 0 -3
BITMAP
3E00
6F00
4D80
4C80
CC80
4C80
4D80
6F00
3E00
0C00
0C00
0C00
ENDCHAR
STARTCHAR 03C7
ENCODING 967
SWIDTH 462 0
DWIDTH 9 0
BBX 8 9 1 0
BITMAP
C3
66
2C
38
18
3C
66
C2
C3
ENDCHAR
STARTCHAR 03C8
ENCODING 968
SWIDTH 462 0
DWIDTH 9 0
BBX 8 12 1 -3
BITMAP
83
83
9B
9B
9B
9B
DB
DE
7E
18
18
18
ENDCHAR
STARTCHAR 03C9
ENCODING 969
SWIDTH 462 0
DWIDTH 9 0
BBX 8 9 1 0
BITMAP
66
C2
C3
C3
9B
9B
9B
DB
6E
ENDCHAR
STARTCHAR 03CA
ENCODING 970
SWIDTH 462 0
DWIDTH 9 0
BBX 8 13 1 0
BITMAP
48
6C
00
00
F0
10
10
10
10
10
10
19
1F
ENDCHAR
STARTCHAR 03CB
ENCODING 971
SWIDTH 462 0
DWIDTH 9 0
BBX 7 13 1 0
BITMAP
24
64
00
00
C2
C2
C2
C2
C2
C2
42
66
3C
ENDCHAR
STARTCHAR 03CC
ENCODING 972
SWIDTH 462 0
DWIDTH 9 0
BBX 8 13 1 1
BITMAP
0C
18
10
00
3C
66
C3
C3
83
C3
C3
66
3C
ENDCHAR
STARTCHAR 03CD
ENCODING 973
SWIDTH 462 0
DWIDTH 9 0
BBX 7 13 1 1
BITMAP
0C
18
10
00
C2
C2
C2
C2
C2
C2
42
66
3C
ENDCHAR
STARTCHAR 03CE
ENCODING 974
SWIDTH 462 0
DWIDTH 9 0
BBX 8 13 1 1
BITMAP
0C
18
10
00
66
C2
C3
C3
9B
9B
9B
DB
6E
ENDCHAR
STARTCHAR 0400
ENCODING 1024
SWIDTH 462 0
DWIDTH 9 0
BBX 7 16 2 0
BITMAP
20
30
18
00
FE
80
80
80
80
FC
80
80
80
80
80
FE
ENDCHAR
STARTCHAR 0401
ENCODING 1025
SWIDTH 462 0
DWIDTH 9 0
BBX 7 15 2 0
BITMAP
6C
48
00
FE
80
80
80
80
FC
80
80
80
80
80
FE
ENDCHAR
STARTCHAR 0402
ENCODING 1026
SWIDTH 462 0
DWIDTH 9 0
BBX 9 12 0 0
BITMAP
FE00
3000
3000
3000
3C00
3F00
3180
3180
3180
3180
3300
3700
ENDCHAR
STARTCHAR 0403
ENCODING 1027
SWIDTH 462 0
DWIDTH 9 0
BBX 8 16 1 0
BITMAP
06
04
08
00
3F
20
20
20
20
20
20
20
20
20
20
FC
ENDCHAR
STARTCHAR 0404
ENCODING 1028
SWIDTH 462 0
DWIDTH 9 0
BBX 8 12 1 0
BITMAP
3F
61
C0
C0
80
FC
FC
80
C0
C0
61
3F
ENDCHAR
STARTCHAR 0405
ENCODING 1029
SWIDTH 462 0
DWIDTH 9 0
BBX 8 12 1 0
BITMAP
7E
62
C0
C0
60
38
0E
06
03
03
C6
FC
ENDCHAR
STARTCHAR 0406
ENCODING 1030
SWIDTH 462 0
DWIDTH 9 0
BBX 6 12 2 0
BITMAP
FC
30
30
30
30
30
30
30
30
30
30
FC
ENDCHAR
STARTCHAR 0407
ENCODING 1031
SWIDTH 462 0
DWIDTH 9 0
BBX 6 15 2 0
BITMAP
CC
48
00
FC
30
30
30
30
30
30
30
30
30
30
FC
ENDCHAR
STARTCHAR 0408
ENCODING 1032
SWIDTH 462 0
DWIDTH 9 0
BBX 7 12 1 0
BITMAP
7E
02
02
02
02
02
02
02
02
06
C6
FC
ENDCHAR
STARTCHAR 0409
ENCODING 1033
SWIDTH 462 0
DWIDTH 9 0
BBX 9 12 0 0
BITMAP
3C00
2C00
2C00
2C00
2F00
2F80
2C80
2C80
2C80
6C80
6D80
CF00
ENDCHAR
STARTCHAR 040A
ENCODING 1034
SWIDTH 462 0
DWIDTH 9 0
BBX 8 12 1 0
BITMAP
98
98
98
98
9C
FF
99
99
99
99
9B
9E
ENDCHAR
STARTCHAR 040B
ENCODING 1035
SWIDTH 462 0
DWIDTH 9 0
BBX 9 12 0 0
BITMAP
FE00
3000
3000
3000
3400
3F00
3100
3180
3180
3180
3180
3180
ENDCHAR
STARTCHAR 040C
ENCODING 1036
SWIDTH 462 0
DWIDTH 9 0
BBX 8 16 1 0
BITMAP
08
18
30
00
C3
C6
CC
C8
D8
F0
F8
DC
CC
C6
C3
C3
ENDCHAR
STARTCHAR 040D
ENCODING 1037
SWIDTH 462 0
DWIDTH 9 0
BBX 8 16 1 0
BITMAP
10
18
08
00
C3
C7
C7
CF
CB
DB
D3
F3
E3
E3
C3
C3
ENDCHAR
STARTCHAR 040E
ENCODING 1038
SWIDTH 462 0
DWIDTH 9 0
BBX 9 16 0 0
BITMAP
1200
3600
1C00
0000
C080
6180
6180
2100
3300
1300
1A00
0E00
0400
0C00
1800
7000
ENDCHAR
STARTCHAR 040F
ENCODING 1039
SWIDTH 462 0
DWIDTH 9 0
BBX 8 15 1 -3
BITMAP
C3
C3
C3
C3
C3
C3
C3
C3
C3
C3
C3
FF
18
18
18
ENDCHAR
STARTCHAR 0410
ENCODING 1040
SWIDTH 462 0
DWIDTH 9 0
BBX 9 12 0 0
BITMAP
0C00
1C00
1600
1200
3200
2300
2300
6100
7F80
4180
4080
C080
ENDCHAR
STARTCHAR 0411
ENCODING 1041
SWIDTH 462 0
DWIDTH 9 0
BBX 8 12 1 0
BITMAP
FE
C0
C0
C0
C0
FE
C6
C3
C3
C3
C6
FC
ENDCHAR
STARTCHAR 0412
ENCODING 1042
SWIDTH 462 0
DWIDTH 9 0
BBX 8 12 1 0
BITMAP
FC
C6
C2
C2
C6
FC
CE
C3
C3
C3
C6
FC
ENDCHAR
STARTCHAR 0413
ENCODING 1043
SWIDTH 462 0
DWIDTH 9 0
BBX 8 12 1 0
BITMAP
3F
20
20
20
20
20
20
20
20
20
20
FC
ENDCHAR
STARTCHAR 0414
ENCODING 1044
SWIDTH 462 0
DWIDTH 9 0
BBX 9 15 0 -3
BITMAP
1F00
1100
1100
1100
1100
1100
1100
3100
3100
2100
6100
FF80
C080
C080
C080
ENDCHAR
STARTCHAR 0415
ENCODING 1045
SWIDTH 462 0
DWIDTH 9 0
BBX 7 12 2 0
BITMAP
FE
80
80
80
80
FC
80
80
80
80
80
FE
ENDCHAR
STARTCHAR 0416
ENCODING 1046
SWIDTH 462 0
DWIDTH 9 0
BBX 10 12 0 0
BITMAP
CC80
4D80
6D00
2F00
3E00
1E00
3E00
2F00
6D00
4D80
4C80
CCC0
ENDCHAR
STARTCHAR 0417
ENCODING 1047
SWIDTH 462 0
DWIDTH 9 0
BBX 8 12 1 0
BITMAP
FC
06
02
02
06
38
0E
03
03
03
87
FE
ENDCHAR
STARTCHAR 0418
ENCODING 1048
SWIDTH 462 0
DWIDTH 9 0
BBX 8 12 1 0
BITMAP
C3
C7
C7
CF
CB
DB
D3
F3
E3
E3
C3
C3
ENDCHAR
STARTCHAR 0419
ENCODING 1049
SWIDTH 462 0
DWIDTH 9 0
BBX 8 16 1 0
BITMAP
24
6C
38
00
C3
C7
C7
CF
CB
DB
D3
F3
E3
E3
C3
C3
ENDCHAR
STARTCHAR 041A
ENCODING 1050
SWIDTH 462 0
DWIDTH 9 0
BBX 8 12 1 0
BITMAP
C3
C6
CC
C8
D8
F0
F8
DC
CC
C6
C3
C3
ENDCHAR
STARTCHAR 041B
ENCODING 1051
SWIDTH 462 0
DWIDTH 9 0
BBX 9 12 0 0
BITMAP
1F80
1980
1980
1980
1180
1180
1180
1180
3180
3180
6180
C180
ENDCHAR
STARTCHAR 041C
ENCODING 1052
SWIDTH 462 0
DWIDTH 9 0
BBX 8 12 1 0
BITMAP
C2
C6
A7
A7
AF
9B
9B
83
83
83
81
81
ENDCHAR
STARTCHAR 041D
ENCODING 1053
SWIDTH 462 0
DWIDTH 9 0
BBX 8 12 1 0
BITMAP
83
83
83
83
83
FF
83
83
83
83
83
83
ENDCHAR
STARTCHAR 041E
ENCODING 1054
SWIDTH 462 0
DWIDTH 9 0
BBX 8 12 1 0
BITMAP
7C
66
C3
83
83
81
81
83
83
C3
66
7C
ENDCHAR
STARTCHAR 041F
ENCODING 1055
SWIDTH 462 0
DWIDTH 9 0
BBX 8 12 1 0
BITMAP
FF
83
83
83
83
83
83
83
83
83
83
83
ENDCHAR
STARTCHAR 0420
ENCODING 1056
SWIDTH 462 0
DWIDTH 9 0
BBX 8 12 1 0
BITMAP
FC
C6
C3
C3
C3
C2
FE
F0
C0
C0
C0
C0
ENDCHAR
STARTCHAR 0421
ENCODING 1057
SWIDTH 462 0
DWIDTH 9 0
BBX 8 12 1 0
BITMAP
3F
61
40
C0
C0
C0
C0
C0
C0
40
71
3F
ENDCHAR
STARTCHAR 0422
ENCODING 1058
SWIDTH 462 0
DWIDTH 9 0
BBX 8 12 1 0
BITMAP
FF
18
18
18
18
18
18
18
18
18
18
18
ENDCHAR
STARTCHAR 0423
ENCODING 1059
SWIDTH 462 0
DWIDTH 9 0
BBX 9 12 0 0
BITMAP
C080
6180
6180
2100
3300
1300
1A00
0E00
0400
0C00
1800
7000
ENDCHAR
STARTCHAR 0424
ENCODING 1060
SWIDTH 462 0
DWIDTH 9 0
BBX 8 13 1 0
BITMAP
18
18
7E
DA
DB
9B
9B
9B
DB
DA
7E
18
18
ENDCHAR
STARTCHAR 0425
ENCODING 1061
SWIDTH 462 0
DWIDTH 9 0
BBX 8 12 1 0
BITMAP
C3
46
66
2C
38
18
38
2C
66
46
C3
83
ENDCHAR
STARTCHAR 0426
ENCODING 1062
SWIDTH 462 0
DWIDTH 9 0
BBX 8 15 1 -3
BITMAP
82
82
82
82
82
82
82
82
82
82
82
FF
01
01
01
ENDCHAR
STARTCHAR 0427
ENCODING 1063
SWIDTH 462 0
DWIDTH 9 0
BBX 8 12 1 0
BITMAP
C3
C3
C3
C3
C3
C3
7F
3F
03
03
03
03
ENDCHAR
STARTCHAR 0428
ENCODING 1064
SWIDTH 462 0
DWIDTH 9 0
BBX 8 12 1 0
BITMAP
83
83
83
83
83
9B
9B
9B
9B
9B
9B
FF
ENDCHAR
STARTCHAR 0429
ENCODING 1065
SWIDTH 462 0
DWIDTH 9 0
BBX 8 15 1 -3
BITMAP
82
82
82
82
82
92
92
92
92
92
92
FF
01
01
01
ENDCHAR
STARTCHAR 042A
ENCODING 1066
SWIDTH 462 0
DWIDTH 9 0
BBX 9 12 0 0
BITMAP
F000
3000
3000
3000
3C00
3F00
3180
3180
3180
3180
3300
3E00
ENDCHAR
STARTCHAR 042B
ENCODING 1067
SWIDTH 462 0
DWIDTH 9 0
BBX 8 12 1 0
BITMAP
83
83
83
83
E3
FB
9B
8B
8B
8B
9B
F3
ENDCHAR
STARTCHAR 042C
ENCODING 1068
SWIDTH 462 0
DWIDTH 9 0
BBX 8 12 1 0
BITMAP
80
80
80
80
F8
FE
83
83
83
83
86
FC
ENDCHAR
STARTCHAR 042D
ENCODING 1069
SWIDTH 462 0
DWIDTH 9 0
BBX 8 12 1 0
BITMAP
FC
86
02
03
03
3F
3F
03
03
02
86
FC
ENDCHAR
STARTCHAR 042E
ENCODING 1070
SWIDTH 462 0
DWIDTH 9 0
BBX 8 12 1 0
BITMAP
8E
9B
93
91
91
F1
91
91
91
93
9B
8E
ENDCHAR
STARTCHAR 042F
ENCODING 1071
SWIDTH 462 0
DWIDTH 9 0
BBX 8 12 1 0
BITMAP
3F
63
43
43
43
63
3F
33
33
63
63
C3
ENDCHAR
STARTCHAR 0430
ENCODING 1072
SWIDTH 462 0
DWIDTH 9 0
BBX 7 9 1 0
BITMAP
7C
06
02
02
7E
C2
C2
C2
7E
ENDCHAR
STARTCHAR 0431
ENCODING 1073
SWIDTH 462 0
DWIDTH 9 0
BBX 8 13 1 0
BITMAP
1E
30
60
C0
FC
EE
C3
C3
C3
C3
C3
66
7C
ENDCHAR
STARTCHAR 0432
ENCODING 1074
SWIDTH 462 0
DWIDTH 9 0
BBX 8 9 1 0
BITMAP
FE
C6
C2
C6
FE
C3
C3
C3
FE
ENDCHAR
STARTCHAR 0433
ENCODING 1075
SWIDTH 462 0
DWIDTH 9 0
BBX 7 9 2 0
BITMAP
FE
C0
C0
C0
C0
C0
C0
C0
C0
ENDCHAR
STARTCHAR 0434
ENCODING 1076
SWIDTH 462 0
DWIDTH 9 0
BBX 8 12 1 -3
BITMAP
3E
22
22
22
22
62
62
C2
FF
83
83
83
ENDCHAR
STARTCHAR 0435
ENCODING 1077
SWIDTH 462 0
DWIDTH 9 0
BBX 8 9 1 0
BITMAP
3C
66
C3
83
FF
80
C0
60
3E
ENDCHAR
STARTCHAR 0436
ENCODING 1078
SWIDTH 462 0
DWIDTH 9 0
BBX 9 9 0 0
BITMAP
4D80
6D00
2F00
1E00
1E00
3F00
6D00
4D80
CC80
ENDCHAR
STARTCHAR 0437
ENCODING 1079
SWIDTH 462 0
DWIDTH 9 0
BBX 8 9 1 0
BITMAP
7E
06
02
06
3C
02
03
06
FE
ENDCHAR
STARTCHAR 0438
ENCODING 1080
SWIDTH 462 0
DWIDTH 9 0
BBX 8 9 1 0
BITMAP
C3
C7
CF
CB
D3
F3
E3
E3
C3
ENDCHAR
STARTCHAR 0439
ENCODING 1081
SWIDTH 462 0
DWIDTH 9 0
BBX 8 13 1 0
BITMAP
66
3C
00
00
C3
C7
CF
CB
D3
F3
E3
E3
C3
ENDCHAR
STARTCHAR 043A
ENCODING 1082
SWIDTH 462 0
DWIDTH 9 0
BBX 8 9 1 0
BITMAP
C2
C4
D8
F0
F0
D8
CC
C6
C3
ENDCHAR
STARTCHAR 043B
ENCODING 1083
SWIDTH 462 0
DWIDTH 9 0
BBX 8 9 0 0
BITMAP
1F
19
19
11
11
11
31
61
C1
ENDCHAR
STARTCHAR 043C
ENCODING 1084
SWIDTH 462 0
DWIDTH 9 0
BBX 8 9 1 0
BITMAP
C3
C7
E7
A7
AD
B9
99
81
81
ENDCHAR
STARTCHAR 043D
ENCODING 1085
SWIDTH 462 0
DWIDTH 9 0
BBX 7 9 1 0
BITMAP
C2
C2
C2
C2
FE
C2
C2
C2
C2
ENDCHAR
STARTCHAR 043E
ENCODING 1086
SWIDTH 462 0
DWIDTH 9 0
BBX 8 9 1 0
BITMAP
3C
66
C3
C3
83
C3
C3
66
3C
ENDCHAR
STARTCHAR 043F
ENCODING 1087
SWIDTH 462 0
DWIDTH 9 0
BBX 7 9 1 0
BITMAP
FE
C2
C2
C2
C2
C2
C2
C2
C2
ENDCHAR
STARTCHAR 0440
ENCODING 1088
SWIDTH 462 0
DWIDTH 9 0
BBX 8 12 1 -3
BITMAP
FC
C6
C3
C3
C3
C3
C3
E6
FC
C0
C0
C0
ENDCHAR
STARTCHAR 0441
ENCODING 1089
SWIDTH 462 0
DWIDTH 9 0
BBX 8 9 1 0
BITMAP
3F
60
C0
C0
C0
C0
C0
61
3F
ENDCHAR
STARTCHAR 0442
ENCODING 1090
SWIDTH 462 0
DWIDTH 9 0
BBX 8 9 1 0
BITMAP
FF
18
18
18
18
18
18
18
18
ENDCHAR
STARTCHAR 0443
ENCODING 1091
SWIDTH 462 0
DWIDTH 9 0
BBX 8 12 1 -3
BITMAP
C3
C3
42
66
66
24
34
1C
18
18
10
E0
ENDCHAR
STARTCHAR 0444
ENCODING 1092
SWIDTH 462 0
DWIDTH 9 0
BBX 9 16 0 -3
BITMAP
0C00
0C00
0C00
0C00
3E00
6F00
4D80
4C80
CC80
4C80
4D80
6F00
3E00
0C00
0C00
0C00
ENDCHAR
STARTCHAR 0445
ENCODING 1093
SWIDTH 462 0
DWIDTH 9 0
BBX 8 9 1 0
BITMAP
C3
66
2C
38
18
3C
66
C2
C3
ENDCHAR
STARTCHAR 0446
ENCODING 1094
SWIDTH 462 0
DWIDTH 9 0
BBX 8 12 1 -3
BITMAP
C2
C2
C2
C2
C2
C2
C2
C2
FF
03
03
03
ENDCHAR
STARTCHAR 0447
ENCODING 1095
SWIDTH 462 0
DWIDTH 9 0
BBX 7 9 1 0
BITMAP
C2
C2
C2
C2
FE
3E
02
02
02
ENDCHAR
STARTCHAR 0448
ENCODING 1096
SWIDTH 462 0
DWIDTH 9 0
BBX 8 9 1 0
BITMAP
83
83
9B
9B
9B
9B
9B
9B
FF
ENDCHAR
STARTCHAR 0449
ENCODING 1097
SWIDTH 462 0
DWIDTH 9 0
BBX 8 12 1 -3
BITMAP
82
82
92
92
92
92
92
92
FF
03
03
03
ENDCHAR
STARTCHAR 044A
ENCODING 1098
SWIDTH 462 0
DWIDTH 9 0
BBX 9 9 0 0
BITMAP
F000
3000
3000
3E00
3F80
3180
3180
3180
3F00
ENDCHAR
STARTCHAR 044B
ENCODING 1099
SWIDTH 462 0
DWIDTH 9 0
BBX 8 9 1 0
BITMAP
83
83
83
F3
FB
8B
8B
9B
FB
ENDCHAR
STARTCHAR 044C
ENCODING 1100
SWIDTH 462 0
DWIDTH 9 0
BBX 8 9 1 0
BITMAP
C0
C0
C0
FC
FE
C3
C3
C3
FE
ENDCHAR
STARTCHAR 044D
ENCODING 1101
SWIDTH 462 0
DWIDTH 9 0
BBX 8 9 1 0
BITMAP
FC
06
03
03
3F
03
03
86
FC
ENDCHAR
STARTCHAR 044E
ENCODING 1102
SWIDTH 462 0
DWIDTH 9 0
BBX 8 9 1 0
BITMAP
CE
DB
D1
D1
F1
D1
D1
DB
CE
ENDCHAR
STARTCHAR 044F
ENCODING 1103
SWIDTH 462 0
DWIDTH 9 0
BBX 7 9 1 0
BITMAP
7E
42
C2
C2
7E
2E
62
42
C2
ENDCHAR
STARTCHAR 0450
ENCODING 1104
SWIDTH 462 0
DWIDTH 9 0
BBX 8 13 1 0
BITMAP
30
18
08
00
3C
66
C3
83
FF
80
C0
60
3E
ENDCHAR
STARTCHAR 0451
ENCODING 1105
SWIDTH 462 0
DWIDTH 9 0
BBX 8 13 1 0
BITMAP
24
66
00
00
3C
66
C3
83
FF
80
C0
60
3E
ENDCHAR
STARTCHAR 0452
ENCODING 1106
SWIDTH 462 0
DWIDTH 9 0
BBX 8 16 0 -3
BITMAP
20
FC
20
20
3E
23
21
21
21
21
21
21
21
01
01
07
ENDCHAR
STARTCHAR 0453
ENCODING 1107
SWIDTH 462 0
DWIDTH 9 0
BBX 7 13 2 0
BITMAP
0C
18
10
00
FE
C0
C0
C0
C0
C0
C0
C0
C0
ENDCHAR
STARTCHAR 0454
ENCODING 1108
SWIDTH 462 0
DWIDTH 9 0
BBX 8 9 1 0
BITMAP
3F
60
C0
C0
FC
C0
C0
61
3F
ENDCHAR
STARTCHAR 0455
ENCODING 1109
SWIDTH 462 0
DWIDTH 9 0
BBX 7 9 1 0
BITMAP
7E
42
C0
60
3C
06
02
46
FE
ENDCHAR
STARTCHAR 0456
ENCODING 1110
SWIDTH 462 0
DWIDTH 9 0
BBX 8 13 1 0
BITMAP
30
30
10
00
F0
10
10
10
10
10
10
19
1F
ENDCHAR
STARTCHAR 0457
ENCODING 1111
SWIDTH 462 0
DWIDTH 9 0
BBX 8 13 1 0
BITMAP
48
4C
00
00
F0
10
10
10
10
10
10
19
1F
ENDCHAR
STARTCHAR 0458
ENCODING 1112
SWIDTH 462 0
DWIDTH 9 0
BBX 6 16 1 -3
BITMAP
0C
0C
00
00
7C
04
04
04
04
04
04
04
04
04
0C
FC
ENDCHAR
STARTCHAR 0459
ENCODING 1113
SWIDTH 462 0
DWIDTH 9 0
BBX 9 9 0 0
BITMAP
3C00
2400
2400
2700
2780
2480
2480
6480
C780
ENDCHAR
STARTCHAR 045A
ENCODING 1114
SWIDTH 462 0
DWIDTH 9 0
BBX 8 9 1 0
BITMAP
88
88
88
8E
FF
89
89
89
8F
ENDCHAR
STARTCHAR 045B
ENCODING 1115
SWIDTH 462 0
DWIDTH 9 0
BBX 8 13 0 0
BITMAP
20
FC
20
20
3E
23
21
21
21
21
21
21
21
ENDCHAR
STARTCHAR 045C
ENCODING 1116
SWIDTH 462 0
DWIDTH 9 0
BBX 8 13 1 0
BITMAP
0C
08
10
00
C2
C4
D8
F0
F0
D8
CC
C6
C3
ENDCHAR
STARTCHAR 045D
ENCODING 1117
SWIDTH 462 0
DWIDTH 9 0
BBX 8 13 1 0
BITMAP
30
18
08
00
C3
C7
CF
CB
D3
F3
E3
E3
C3
ENDCHAR
STARTCHAR 045E
ENCODING 1118
SWIDTH 462 0
DWIDTH 9 0
BBX 8 16 1 -3
BITMAP
26
3C
00
00
C3
C3
42
66
66
24
34
1C
18
18
10
E0
ENDCHAR
STARTCHAR 045F
ENCODING 1119
SWIDTH 462 0
DWIDTH 9 0
BBX 7 12 1 -3
BITMAP
C2
C2
C2
C2
C2
C2
C2
C2
FE
18
18
18
ENDCHAR
STARTCHAR 0462
ENCODING 1122
SWIDTH 462 0
DWIDTH 9 0
BBX 9 13 0 0
BITMAP
3000
3000
FE00
3000
3000
3000
3F00
3180
3180
3080
3180
3380
3F00
ENDCHAR
STARTCHAR 0463
ENCODING 1123
SWIDTH 462 0
DWIDTH 9 0
BBX 9 13 0 0
BITMAP
3000
3000
3000
3000
FE00
3000
3000
3E00
3F00
3180
3180
3180
3F00
ENDCHAR
STARTCHAR 0472
ENCODING 1138
SWIDTH 462 0
DWIDTH 9 0
BBX 8 12 1 0
BITMAP
7C
66
C3
83
83
F1
CF
83
83
C3
66
7C
ENDCHAR
STARTCHAR 0473
ENCODING 1139
SWIDTH 462 0
DWIDTH 9 0
BBX 8 9 1 0
BITMAP
3C
66
C3
E3
FF
C3
C3
66
3C
ENDCHAR
STARTCHAR 0474
ENCODING 1140
SWIDTH 462 0
DWIDTH 9 0
BBX 10 12 0 0
BITMAP
C1C0
4100
6300
6300
6200
2200
2600
3600
1400
1400
1C00
1C00
ENDCHAR
STARTCHAR 0475
ENCODING 1141
SWIDTH 462 0
DWIDTH 9 0
BBX 8 9 1 0
BITMAP
83
C6
C4
4C
4C
68
28
38
30
ENDCHAR
STARTCHAR 048A
ENCODING 1162
SWIDTH 462 0
DWIDTH 9 0
BBX 8 19 1 -3
BITMAP
04
6C
38
00
C3
C7
C7
CF
CB
DB
D3
F3
E3
E3
C3
C3
03
03
06
ENDCHAR
STARTCHAR 048B
ENCODING 1163
SWIDTH 462 0
DWIDTH 9 0
BBX 8 16 1 -3
BITMAP
26
3C
00
00
C3
C7
CF
CB
D3
F3
E3
E3
C3
01
03
02
ENDCHAR
STARTCHAR 048C
ENCODING 1164
SWIDTH 462 0
DWIDTH 9 0
BBX 9 12 0 0
BITMAP
2000
FC00
FC00
2000
2000
3F00
2180
2180
2080
2180
2380
3E00
ENDCHAR
STARTCHAR 048D
ENCODING 1165
SWIDTH 462 0
DWIDTH 9 0
BBX 9 9 0 0
BITMAP
2000
FC00
2000
3E00
3F00
2180
2180
2180
3F00
ENDCHAR
STARTCHAR 048E
ENCODING 1166
SWIDTH 462 0
DWIDTH 9 0
BBX 8 12 1 0
BITMAP
FC
C6
C3
C3
DB
CA
FE
F4
C6
C0
C0
C0
ENDCHAR
STARTCHAR 048F
ENCODING 1167
SWIDTH 462 0
DWIDTH 9 0
BBX 8 12 1 -3
BITMAP
FC
C6
C3
C3
C3
CB
CB
EE
FC
C2
C2
C0
ENDCHAR
STARTCHAR 0490
ENCODING 1168
SWIDTH 462 0
DWIDTH 9 0
BBX 8 14 1 0
BITMAP
03
03
3F
20
20
20
20
20
20
20
20
20
20
FC
ENDCHAR
STARTCHAR 0491
ENCODING 1169
SWIDTH 462 0
DWIDTH 9 0
BBX 7 11 2 0
BITMAP
06
06
FE
C0
C0
C0
C0
C0
C0
C0
C0
ENDCHAR
STARTCHAR 0492
ENCODING 1170
SWIDTH 462 0
DWIDTH 9 0
BBX 8 12 1 0
BITMAP
3F
20
20
20
20
FC
20
20
20
20
20
FC
ENDCHAR
STARTCHAR 0493
ENCODING 1171
SWIDTH 462 0
DWIDTH 9 0
BBX 8 9 1 0
BITMAP
7F
60
60
60
FC
60
60
60
60
ENDCHAR
STARTCHAR 0494
ENCODING 1172
SWIDTH 462 0
DWIDTH 9 0
BBX 8 15 1 -3
BITMAP
FE
80
80
80
90
FE
86
83
83
83
83
83
03
06
1C
ENDCHAR
STARTCHAR 0495
ENCODING 1173
SWIDTH 462 0
DWIDTH 9 0
BBX 8 12 1 -3
BITMAP
FE
C0
C0
D8
FE
C3
C3
C3
C3
03
06
0E
ENDCHAR
STARTCHAR 0496
ENCODING 1174
SWIDTH 462 0
DWIDTH 9 0
BBX 10 15 0 -3
BITMAP
C980
4900
6B00
2A00
2A00
1C00
3E00
2A00
6B00
4900
C980
C9C0
00C0
00C0
00C0
ENDCHAR
STARTCHAR 0497
ENCODING 1175
SWIDTH 462 0
DWIDTH 9 0
BBX 9 12 0 -3
BITMAP
4980
6B00
2A00
3E00
1C00
2A00
6B00
4900
C980
0080
0080
0080
ENDCHAR
STARTCHAR 0498
ENCODING 1176
SWIDTH 462 0
DWIDTH 9 0
BBX 8 15 1 -3
BITMAP
FC
06
02
02
06
38
0E
03
03
03
87
FE
10
18
38
ENDCHAR
STARTCHAR 0499
ENCODING 1177
SWIDTH 462 0
DWIDTH 9 0
BBX 8 12 1 -3
BITMAP
7E
06
02
06
3C
02
03
06
FE
10
18
38
ENDCHAR
STARTCHAR 049A
ENCODING 1178
SWIDTH 462 0
DWIDTH 9 0
BBX 8 15 1 -3
BITMAP
C3
C6
CC
C8
D8
F0
F8
D8
CC
C6
C6
C3
01
01
01
ENDCHAR
STARTCHAR 049B
ENCODING 1179
SWIDTH 462 0
DWIDTH 9 0
BBX 8 12 1 -3
BITMAP
C2
C4
D8
F0
F0
D8
CC
C6
C3
03
03
03
ENDCHAR
STARTCHAR 049C
ENCODING 1180
SWIDTH 462 0
DWIDTH 9 0
BBX 8 12 1 0
BITMAP
C3
C3
C6
F4
FC
F8
FC
F4
F6
C2
C3
C1
ENDCHAR
STARTCHAR 049D
ENCODING 1181
SWIDTH 462 0
DWIDTH 9 0
BBX 8 9 1 0
BITMAP
C3
C6
DC
D8
F8
DC
D6
C2
C3
ENDCHAR
STARTCHAR 049E
ENCODING 1182
SWIDTH 462 0
DWIDTH 9 0
BBX 9 12 0 0
BITMAP
2180
F300
F200
2600
2C00
3800
2C00
2600
2300
2300
2180
2180
ENDCHAR
STARTCHAR 049F
ENCODING 1183
SWIDTH 462 0
DWIDTH 9 0
BBX 9 9 0 0
BITMAP
2180
F300
2600
2C00
3800
2E00
2600
2300
2180
ENDCHAR
STARTCHAR 04A0
ENCODING 1184
SWIDTH 462 0
DWIDTH 9 0
BBX 9 12 0 0
BITMAP
F180
3300
3300
3600
3C00
3800
3C00
3600
3300
3100
3180
3080
ENDCHAR
STARTCHAR 04A1
ENCODING 1185
SWIDTH 462 0
DWIDTH 9 0
BBX 9 9 0 0
BITMAP
F180
3300
3600
3C00
3C00
3600
3300
3300
3180
ENDCHAR
STARTCHAR 04A2
ENCODING 1186
SWIDTH 462 0
DWIDTH 9 0
BBX 8 15 1 -3
BITMAP
82
82
82
82
82
FE
82
82
82
82
82
83
01
01
01
ENDCHAR
STARTCHAR 04A3
ENCODING 1187
SWIDTH 462 0
DWIDTH 9 0
BBX 8 12 1 -3
BITMAP
C2
C2
C2
C2
FE
C2
C2
C2
C3
03
03
03
ENDCHAR
STARTCHAR 04A4
ENCODING 1188
SWIDTH 462 0
DWIDTH 9 0
BBX 8 12 1 0
BITMAP
87
86
86
86
86
FE
86
86
86
86
86
86
ENDCHAR
STARTCHAR 04A5
ENCODING 1189
SWIDTH 462 0
DWIDTH 9 0
BBX 8 9 1 0
BITMAP
C7
C6
C6
C6
FE
C6
C6
C6
C6
ENDCHAR
STARTCHAR 04A6
ENCODING 1190
SWIDTH 462 0
DWIDTH 9 0
BBX 8 15 1 -3
BITMAP
F0
90
90
90
9C
9E
93
93
91
91
91
93
03
02
06
ENDCHAR
STARTCHAR 04A7
ENCODING 1191
SWIDTH 462 0
DWIDTH 9 0
BBX 8 12 1 -3
BITMAP
F0
90
90
9C
9E
93
91
91
91
03
03
06
ENDCHAR
STARTCHAR 04A8
ENCODING 1192
SWIDTH 462 0
DWIDTH 9 0
BBX 8 15 1 -3
BITMAP
3E
60
C0
CE
9B
99
99
99
9B
DB
7E
3C
0C
06
03
ENDCHAR
STARTCHAR 04A9
ENCODING 1193
SWIDTH 462 0
DWIDTH 9 0
BBX 8 11 1 -3
BITMAP
3C
60
CE
9B
99
91
DB
7B
3E
0C
07
ENDCHAR
STARTCHAR 04AA
ENCODING 1194
SWIDTH 462 0
DWIDTH 9 0
BBX 8 15 1 -3
BITMAP
3F
61
40
C0
C0
C0
C0
C0
C0
40
71
3F
08
04
1C
ENDCHAR
STARTCHAR 04AB
ENCODING 1195
SWIDTH 462 0
DWIDTH 9 0
BBX 8 12 1 -3
BITMAP
3F
60
C0
C0
C0
C0
C0
61
3F
08
0C
1C
ENDCHAR
STARTCHAR 04AC
ENCODING 1196
SWIDTH 462 0
DWIDTH 9 0
BBX 8 15 1 -3
BITMAP
FF
18
18
18
18
18
18
18
18
18
18
18
08
08
08
ENDCHAR
STARTCHAR 04AD
ENCODING 1197
SWIDTH 462 0
DWIDTH 9 0
BBX 8 12 1 -3
BITMAP
FF
18
18
18
18
18
18
18
18
08
08
08
ENDCHAR
STARTCHAR 04AE
ENCODING 1198
SWIDTH 462 0
DWIDTH 9 0
BBX 9 12 0 0
BITMAP
C080
6180
6100
3300
3200
1E00
1C00
0C00
0C00
0C00
0C00
0C00
ENDCHAR
STARTCHAR 04AF
ENCODING 1199
SWIDTH 462 0
DWIDTH 9 0
BBX 8 12 1 -3
BITMAP
83
C3
C2
46
66
24
3C
38
18
18
18
18
ENDCHAR
STARTCHAR 04B0
ENCODING 1200
SWIDTH 462 0
DWIDTH 9 0
BBX 9 12 0 0
BITMAP
C080
6180
6100
3300
3200
1E00
0C00
3F00
0C00
0C00
0C00
0C00
ENDCHAR
STARTCHAR 04B1
ENCODING 1201
SWIDTH 462 0
DWIDTH 9 0
BBX 8 12 1 -3
BITMAP
83
C3
C2
46
66
24
3C
38
7E
18
18
18
ENDCHAR
STARTCHAR 04B2
ENCODING 1202
SWIDTH 462 0
DWIDTH 9 0
BBX 8 15 1 -3
BITMAP
C3
46
66
2C
38
18
38
2C
64
46
C2
83
01
01
01
ENDCHAR
STARTCHAR 04B3
ENCODING 1203
SWIDTH 462 0
DWIDTH 9 0
BBX 8 12 1 -3
BITMAP
C2
66
2C
38
18
3C
66
C6
C3
03
03
03
ENDCHAR
STARTCHAR 04B4
ENCODING 1204
SWIDTH 462 0
DWIDTH 9 0
BBX 9 15 0 -3
BITMAP
F900
3100
3100
3100
3100
3100
3100
3100
3100
3100
3100
3F80
0080
0080
0080
ENDCHAR
STARTCHAR 04B5
ENCODING 1205
SWIDTH 462 0
DWIDTH 9 0
BBX 9 12 0 -3
BITMAP
F900
3100
3100
3100
3100
3100
3100
3100
3F80
0180
0180
0180
ENDCHAR
STARTCHAR 04B6
ENCODING 1206
SWIDTH 462 0
DWIDTH 9 0
BBX 8 15 1 -3
BITMAP
C2
C2
C2
C2
C2
C2
7E
3E
02
02
02
03
01
01
01
ENDCHAR
STARTCHAR 04B7
ENCODING 1207
SWIDTH 462 0
DWIDTH 9 0
BBX 8 12 1 -3
BITMAP
C2
C2
C2
C2
FE
3E
02
02
03
03
03
03
ENDCHAR
STARTCHAR 04B8
ENCODING 1208
SWIDTH 462 0
DWIDTH 9 0
BBX 8 12 1 0
BITMAP
C3
C3
C3
C3
DB
DB
7F
3F
1B
1B
03
03
ENDCHAR
STARTCHAR 04B9
ENCODING 1209
SWIDTH 462 0
DWIDTH 9 0
BBX 7 9 1 0
BITMAP
C2
C2
C2
D2
FE
3E
12
02
02
ENDCHAR
STARTCHAR 04BA
ENCODING 1210
SWIDTH 462 0
DWIDTH 9 0
BBX 8 12 1 0
BITMAP
80
80
80
80
FC
CE
83
83
83
83
83
83
ENDCHAR
STARTCHAR 04BB
ENCODING 1211
SWIDTH 462 0
DWIDTH 9 0
BBX 7 13 1 0
BITMAP
C0
C0
C0
C0
FC
C6
C2
C2
C2
C2
C2
C2
C2
ENDCHAR
STARTCHAR 04BC
ENCODING 1212
SWIDTH 462 0
DWIDTH 9 0
BBX 9 12 0 0
BITMAP
0F00
0980
1980
D880
D880
7F80
1800
1800
1800
1800
0C80
0780
ENDCHAR
STARTCHAR 04BD
ENCODING 1213
SWIDTH 462 0
DWIDTH 9 0
BBX 9 9 0 0
BITMAP
0F00
9900
D980
5980
3F80
1800
1800
1C00
0F00
ENDCHAR
STARTCHAR 04BE
ENCODING 1214
SWIDTH 462 0
DWIDTH 9 0
BBX 9 15 0 -3
BITMAP
0F00
0980
1980
D880
D880
7F80
1800
1800
1800
1800
0C80
0780
0200
0200
0200
ENDCHAR
STARTCHAR 04BF
ENCODING 1215
SWIDTH 462 0
DWIDTH 9 0
BBX 9 12 0 -3
BITMAP
0F00
9900
D980
5980
3F80
1800
1800
1C00
0F00
0200
0200
0200
ENDCHAR
STARTCHAR 04C0
ENCODING 1216
SWIDTH 462 0
DWIDTH 9 0
BBX 6 12 2 0
BITMAP
FC
30
30
30
30
30
30
30
30
30
30
FC
ENDCHAR
STARTCHAR 04C1
ENCODING 1217
SWIDTH 462 0
DWIDTH 9 0
BBX 10 16 0 0
BITMAP
1200
3600
1C00
0000
CC80
4D80
6D00
2F00
3E00
1E00
3E00
2F00
6D00
4D80
4C80
CCC0
ENDCHAR
STARTCHAR 04C2
ENCODING 1218
SWIDTH 462 0
DWIDTH 9 0
BBX 9 13 0 0
BITMAP
3200
1E00
0000
0000
4D80
6D00
2F00
1E00
1E00
3F00
6D00
4D80
CC80
ENDCHAR
STARTCHAR 04C3
ENCODING 1219
SWIDTH 462 0
DWIDTH 9 0
BBX 8 15 1 -3
BITMAP
83
86
8C
98
B0
F8
DE
82
83
83
83
83
03
06
1C
ENDCHAR
STARTCHAR 04C4
ENCODING 1220
SWIDTH 462 0
DWIDTH 9 0
BBX 8 12 1 -3
BITMAP
C2
C4
C8
F0
FC
C6
C3
C3
C3
03
06
1C
ENDCHAR
STARTCHAR 04C5
ENCODING 1221
SWIDTH 462 0
DWIDTH 9 0
BBX 9 15 0 -3
BITMAP
1F80
1980
1980
1980
1180
1180
1180
1180
3180
3180
6180
C180
0180
0180
0300
ENDCHAR
STARTCHAR 04C6
ENCODING 1222
SWIDTH 462 0
DWIDTH 9 0
BBX 9 12 0 -3
BITMAP
1F80
1980
1980
1180
1180
1180
3180
6180
C180
0080
0180
0100
ENDCHAR
STARTCHAR 04C7
ENCODING 1223
SWIDTH 462 0
DWIDTH 9 0
BBX 8 15 1 -3
BITMAP
83
83
83
83
83
FF
83
83
83
83
83
83
03
03
0E
ENDCHAR
STARTCHAR 04C8
ENCODING 1224
SWIDTH 462 0
DWIDTH 9 0
BBX 7 12 1 -3
BITMAP
C2
C2
C2
C2
FE
C2
C2
C2
C2
02
06
0E
ENDCHAR
STARTCHAR 04C9
ENCODING 1225
SWIDTH 462 0
DWIDTH 9 0
BBX 8 15 1 -3
BITMAP
83
83
83
83
83
FF
83
83
83
83
83
83
03
03
06
ENDCHAR
STARTCHAR 04CA
ENCODING 1226
SWIDTH 462 0
DWIDTH 9 0
BBX 8 12 1 -3
BITMAP
C3
C3
C3
C3
FF
C3
C3
C3
C3
01
03
02
ENDCHAR
STARTCHAR 04CB
ENCODING 1227
SWIDTH 462 0
DWIDTH 9 0
BBX 8 15 1 -3
BITMAP
C3
C3
C3
C3
C3
C3
7F
3F
03
03
03
07
06
06
06
ENDCHAR
STARTCHAR 04CC
ENCODING 1228
SWIDTH 462 0
DWIDTH 9 0
BBX 7 12 1 -3
BITMAP
C2
C2
C2
C2
FE
3E
02
02
06
06
06
06
ENDCHAR
STARTCHAR 04CD
ENCODING 1229
SWIDTH 462 0
DWIDTH 9 0
BBX 8 15 1 -3
BITMAP
C6
C6
A6
AA
AA
BA
9A
82
82
83
83
83
03
03
06
ENDCHAR
STARTCHAR 04CE
ENCODING 1230
SWIDTH 462 0
DWIDTH 9 0
BBX 8 12 1 -3
BITMAP
C6
C6
E6
AE
AA
BA
9B
83
83
01
03
02
ENDCHAR
STARTCHAR 04CF
ENCODING 1231
SWIDTH 462 0
DWIDTH 9 0
BBX 6 12 2 0
BITMAP
FC
30
30
30
30
30
30
30
30
30
30
FC
ENDCHAR
STARTCHAR 04D0
ENCODING 1232
SWIDTH 462 0
DWIDTH 9 0
BBX 9 16 0 0
BITMAP
1200
3600
1C00
0000
0C00
1C00
1600
1200
3200
2300
2300
6100
7F80
4180
4080
C080
ENDCHAR
STARTCHAR 04D1
ENCODING 1233
SWIDTH 462 0
DWIDTH 9 0
BBX 7 13 1 0
BITMAP
64
3C
00
00
7C
06
02
02
7E
C2
C2
C2
7E
ENDCHAR
STARTCHAR 04D2
ENCODING 1234
SWIDTH 462 0
DWIDTH 9 0
BBX 9 15 0 0
BITMAP
3300
1200
0000
0C00
1C00
1600
1200
3200
2300
2300
6100
7F80
4180
4080
C080
ENDCHAR
STARTCHAR 04D3
ENCODING 1235
SWIDTH 462 0
DWIDTH 9 0
BBX 7 13 1 0
BITMAP
24
64
00
00
7C
06
02
02
7E
C2
C2
C2
7E
ENDCHAR
STARTCHAR 04D4
ENCODING 1236
SWIDTH 462 0
DWIDTH 9 0
BBX 8 12 1 0
BITMAP
1F
1C
3C
2C
2C
6F
4C
4C
FC
CC
8C
8F
ENDCHAR
STARTCHAR 04D5
ENCODING 1237
SWIDTH 462 0
DWIDTH 9 0
BBX 8 9 1 0
BITMAP
FE
1B
19
19
FF
98
98
9C
FF
ENDCHAR
STARTCHAR 04D6
ENCODING 1238
SWIDTH 462 0
DWIDTH 9 0
BBX 7 16 2 0
BITMAP
40
6C
38
00
FE
80
80
80
80
FC
80
80
80
80
80
FE
ENDCHAR
STARTCHAR 04D7
ENCODING 1239
SWIDTH 462 0
DWIDTH 9 0
BBX 8 13 1 0
BITMAP
64
3C
00
00
3C
66
C3
83
FF
80
C0
60
3E
ENDCHAR
STARTCHAR 04D8
ENCODING 1240
SWIDTH 462 0
DWIDTH 9 0
BBX 9 12 0 0
BITMAP
7E00
0300
0180
0180
0180
0080
FF80
4180
4180
6180
6300
3E00
ENDCHAR
STARTCHAR 04D9
ENCODING 1241
SWIDTH 462 0
DWIDTH 9 0
BBX 8 9 1 0
BITMAP
7C
06
03
03
FF
C3
C3
C6
7C
ENDCHAR
STARTCHAR 04DA
ENCODING 1242
SWIDTH 462 0
DWIDTH 9 0
BBX 9 15 0 0
BITMAP
3600
2200
0000
7E00
0300
0180
0180
0180
0080
FF80
4180
4180
6180
6300
3E00
ENDCHAR
STARTCHAR 04DB
ENCODING 1243
SWIDTH 462 0
DWIDTH 9 0
BBX 8 13 1 0
BITMAP
64
6C
00
00
7C
06
03
03
FF
C3
C3
C6
7C
ENDCHAR
STARTCHAR 04DC
ENCODING 1244
SWIDTH 462 0
DWIDTH 9 0
BBX 10 15 0 0
BITMAP
3300
1200
0000
CC80
4D80
6D00
2F00
3E00
1E00
3E00
2F00
6D00
4D80
4C80
CCC0
ENDCHAR
STARTCHAR 04DD
ENCODING 1245
SWIDTH 462 0
DWIDTH 9 0
BBX 9 13 0 0
BITMAP
1200
3200
0000
0000
4D80
6D00
2F00
1E00
1E00
3F00
6D00
4D80
CC80
ENDCHAR
STARTCHAR 04DE
ENCODING 1246
SWIDTH 462 0
DWIDTH 9 0
BBX 8 15 1 0
BITMAP
6C
24
00
FC
06
02
02
06
38
0E
03
03
03
87
FE
ENDCHAR
STARTCHAR 04DF
ENCODING 1247
SWIDTH 462 0
DWIDTH 9 0
BBX 8 13 1 0
BITMAP
64
6C
00
00
7E
06
02
06
3C
02
03
06
FE
ENDCHAR
STARTCHAR 04E0
ENCODING 1248
SWIDTH 462 0
DWIDTH 9 0
BBX 8 12 1 0
BITMAP
FF
06
04
0C
18
3C
06
03
03
03
86
FC
ENDCHAR
STARTCHAR 04E1
ENCODING 1249
SWIDTH 462 0
DWIDTH 9 0
BBX 7 12 1 -3
BITMAP
FE
06
0C
18
10
38
0E
02
02
02
86
FC
ENDCHAR
STARTCHAR 04E2
ENCODING 1250
SWIDTH 462 0
DWIDTH 9 0
BBX 8 15 1 0
BITMAP
7C
00
00
C3
C7
C7
CF
CB
DB
D3
F3
E3
E3
C3
C3
ENDCHAR
STARTCHAR 04E3
ENCODING 1251
SWIDTH 462 0
DWIDTH 9 0
BBX 8 12 1 0
BITMAP
7C
00
00
C3
C7
CF
CB
D3
F3
E3
E3
C3
ENDCHAR
STARTCHAR 04E4
ENCODING 1252
SWIDTH 462 0
DWIDTH 9 0
BBX 8 15 1 0
BITMAP
66
24
00
C3
C7
C7
CF
CB
DB
D3
F3
E3
E3
C3
C3
ENDCHAR
STARTCHAR 04E5
ENCODING 1253
SWIDTH 462 0
DWIDTH 9 0
BBX 8 13 1 0
BITMAP
24
64
00
00
C3
C7
CF
CB
D3
F3
E3
E3
C3
ENDCHAR
STARTCHAR 04E6
ENCODING 1254
SWIDTH 462 0
DWIDTH 9 0
BBX 8 15 1 0
BITMAP
66
24
00
7C
66
C3
83
83
81
81
83
83
C3
66
7C
ENDCHAR
STARTCHAR 04E7
ENCODING 1255
SWIDTH 462 0
DWIDTH 9 0
BBX 8 13 1 0
BITMAP
24
64
00
00
3C
66
C3
C3
83
C3
C3
66
3C
ENDCHAR
STARTCHAR 04E8
ENCODING 1256
SWIDTH 462 0
DWIDTH 9 0
BBX 8 12 1 0
BITMAP
7C
66
C3
83
83
FF
FF
83
83
C3
66
7C
ENDCHAR
STARTCHAR 04E9
ENCODING 1257
SWIDTH 462 0
DWIDTH 9 0
BBX 8 9 1 0
BITMAP
3C
66
C3
83
FF
83
C3
66
3C
ENDCHAR
STARTCHAR 04EA
ENCODING 1258
SWIDTH 462 0
DWIDTH 9 0
BBX 8 15 1 0
BITMAP
66
24
00
7C
66
C3
83
83
FF
FF
83
83
C3
66
7C
ENDCHAR
STARTCHAR 04EB
ENCODING 1259
SWIDTH 462 0
DWIDTH 9 0
BBX 8 13 1 0
BITMAP
24
64
00
00
3C
66
C3
83
FF
83
C3
66
3C
ENDCHAR
STARTCHAR 04EC
ENCODING 1260
SWIDTH 462 0
DWIDTH 9 0
BBX 8 15 1 0
BITMAP
6C
44
00
FC
86
02
03
03
3F
3F
03
03
02
86
FC
ENDCHAR
STARTCHAR 04ED
ENCODING 1261
SWIDTH 462 0
DWIDTH 9 0
BBX 8 13 1 0
BITMAP
64
6C
00
00
FC
06
03
03
3F
03
03
86
FC
ENDCHAR
STARTCHAR 04EE
ENCODING 1262
SWIDTH 462 0
DWIDTH 9 0
BBX 9 15 0 0
BITMAP
1F00
0000
0000
C080
6180
6180
2100
3300
1300
1A00
0E00
0400
0C00
1800
7000
ENDCHAR
STARTCHAR 04EF
ENCODING 1263
SWIDTH 462 0
DWIDTH 9 0
BBX 8 15 1 -3
BITMAP
3E
00
00
C3
C3
42
66
66
24
34
1C
18
18
10
E0
ENDCHAR
STARTCHAR 04F0
ENCODING 1264
SWIDTH 462 0
DWIDTH 9 0
BBX 9 15 0 0
BITMAP
3300
1200
0000
C080
6180
6180
2100
3300
1300
1A00
0E00
0400
0C00
1800
7000
ENDCHAR
STARTCHAR 04F1
ENCODING 1265
SWIDTH 462 0
DWIDTH 9 0
BBX 8 16 1 -3
BITMAP
26
36
00
00
C3
C3
42
66
66
24
34
1C
18
18
10
E0
ENDCHAR
STARTCHAR 04F2
ENCODING 1266
SWIDTH 462 0
DWIDTH 9 0
BBX 9 16 0 0
BITMAP
0900
1B00
1200
0000
C080
6180
6180
2100
3300
1300
1A00
0E00
0400
0C00
1800
7000
ENDCHAR
STARTCHAR 04F3
ENCODING 1267
SWIDTH 462 0
DWIDTH 9 0
BBX 8 16 1 -3
BITMAP
1B
36
24
00
C3
C3
42
66
66
24
34
1C
18
18
10
E0
ENDCHAR
STARTCHAR 04F4
ENCODING 1268
SWIDTH 462 0
DWIDTH 9 0
BBX 8 15 1 0
BITMAP
66
24
00
C3
C3
C3
C3
C3
C3
7F
3F
03
03
03
03
ENDCHAR
STARTCHAR 04F5
ENCODING 1269
SWIDTH 462 0
DWIDTH 9 0
BBX 7 13 1 0
BITMAP
24
64
00
00
C2
C2
C2
C2
FE
3E
02
02
02
ENDCHAR
STARTCHAR 04F6
ENCODING 1270
SWIDTH 462 0
DWIDTH 9 0
BBX 8 15 1 -3
BITMAP
3F
20
20
20
20
20
20
20
20
20
20
FC
0C
0C
0C
ENDCHAR
STARTCHAR 04F7
ENCODING 1271
SWIDTH 462 0
DWIDTH 9 0
BBX 7 12 2 -3
BITMAP
FE
C0
C0
C0
C0
C0
C0
C0
E0
60
60
60
ENDCHAR
STARTCHAR 04F8
ENCODING 1272
SWIDTH 462 0
DWIDTH 9 0
BBX 8 15 1 0
BITMAP
66
24
00
83
83
83
83
E3
FB
9B
8B
8B
8B
9B
F3
ENDCHAR
STARTCHAR 04F9
ENCODING 1273
SWIDTH 462 0
DWIDTH 9 0
BBX 8 13 1 0
BITMAP
24
64
00
00
83
83
83
F3
FB
8B
8B
9B
FB
ENDCHAR
STARTCHAR 1E80
ENCODING 7808
SWIDTH 462 0
DWIDTH 9 0
BBX 8 16 1 0
BITMAP
10
18
08
00
81
81
83
83
83
9B
9B
AF
A7
A6
C6
C2
ENDCHAR
STARTCHAR 1E81
ENCODING 7809
SWIDTH 462 0
DWIDTH 9 0
BBX 9 13 0 0
BITMAP
1800
0C00
0400
0000
C080
4080
4C80
4C80
4D80
7780
7300
7300
2300
ENDCHAR
STARTCHAR 1E82
ENCODING 7810
SWIDTH 462 0
DWIDTH 9 0
BBX 8 16 1 0
BITMAP
08
18
30
00
81
81
83
83
83
9B
9B
AF
A7
A6
C6
C2
ENDCHAR
STARTCHAR 1E83
ENCODING 7811
SWIDTH 462 0
DWIDTH 9 0
BBX 9 13 0 0
BITMAP
0400
0C00
0800
0000
C080
4080
4C80
4C80
4D80
7780
7300
7300
2300
ENDCHAR
STARTCHAR 1E84
ENCODING 7812
SWIDTH 462 0
DWIDTH 9 0
BBX 8 15 1 0
BITMAP
66
24
00
81
81
83
83
83
9B
9B
AF
A7
A6
C6
C2
ENDCHAR
STARTCHAR 1E85
ENCODING 7813
SWIDTH 462 0
DWIDTH 9 0
BBX 9 13 0 0
BITMAP
1200
3200
0000
0000
C080
4080
4C80
4C80
4D80
7780
7300
7300
2300
ENDCHAR
STARTCHAR 1EF2
ENCODING 7922
SWIDTH 462 0
DWIDTH 9 0
BBX 9 16 0 0
BITMAP
0800
0C00
0400
0000
C080
6180
6100
3300
3200
1E00
1C00
0C00
0C00
0C00
0C00
0C00
ENDCHAR
STARTCHAR 1EF3
ENCODING 7923
SWIDTH 462 0
DWIDTH 9 0
BBX 8 16 1 -3
BITMAP
30
18
08
00
C3
C3
42
66
66
24
34
1C
18
18
10
E0
ENDCHAR
STARTCHAR 1F00
ENCODING 7936
SWIDTH 462 0
DWIDTH 9 0
BBX 8 13 1 1
BITMAP
18
08
10
00
3E
62
C2
C2
C2
C2
C2
67
3F
ENDCHAR
STARTCHAR 1F01
ENCODING 7937
SWIDTH 462 0
DWIDTH 9 0
BBX 8 13 1 1
BITMAP
18
10
08
00
3E
62
C2
C2
C2
C2
C2
67
3F
ENDCHAR
STARTCHAR 1F02
ENCODING 7938
SWIDTH 462 0
DWIDTH 9 0
BBX 8 14 1 0
BITMAP
20
6C
24
42
00
3E
62
C2
C2
C2
C2
C2
67
3F
ENDCHAR
STARTCHAR 1F03
ENCODING 7939
SWIDTH 462 0
DWIDTH 9 0
BBX 8 13 1 1
BITMAP
68
64
24
00
3E
62
C2
C2
C2
C2
C2
67
3F
ENDCHAR
STARTCHAR 1F04
ENCODING 7940
SWIDTH 462 0
DWIDTH 9 0
BBX 8 13 1 1
BITMAP
36
14
2C
00
3E
62
C2
C2
C2
C2
C2
67
3F
ENDCHAR
STARTCHAR 1F05
ENCODING 7941
SWIDTH 462 0
DWIDTH 9 0
BBX 8 14 1 0
BITMAP
20
66
24
38
00
3E
62
C2
C2
C2
C2
C2
67
3F
ENDCHAR
STARTCHAR 1F06
ENCODING 7942
SWIDTH 462 0
DWIDTH 9 0
BBX 8 15 1 0
BITMAP
3C
24
18
08
10
00
3E
62
C2
C2
C2
C2
C2
67
3F
ENDCHAR
STARTCHAR 1F07
ENCODING 7943
SWIDTH 462 0
DWIDTH 9 0
BBX 8 15 1 0
BITMAP
3C
24
18
10
08
00
3E
62
C2
C2
C2
C2
C2
67
3F
ENDCHAR
STARTCHAR 1F08
ENCODING 7944
SWIDTH 462 0
DWIDTH 9 0
BBX 9 12 0 0
BITMAP
6C00
5C00
D600
1200
3200
2300
2300
6100
7F80
4180
4080
C080
ENDCHAR
STARTCHAR 1F09
ENCODING 7945
SWIDTH 462 0
DWIDTH 9 0
BBX 9 12 0 0
BITMAP
CC00
9C00
5600
1200
3200
2300
2300
6100
7F80
4180
4080
C080
ENDCHAR
STARTCHAR 1F0A
ENCODING 7946
SWIDTH 462 0
DWIDTH 9 0
BBX 12 12 -3 0
BITMAP
F180
DB80
8AC0
0240
0640
0460
0460
0C20
0FF0
0830
0810
1810
ENDCHAR
STARTCHAR 1F0B
ENCODING 7947
SWIDTH 462 0
DWIDTH 9 0
BBX 12 12 -3 0
BITMAP
F180
9B80
4AC0
0240
0640
0460
0460
0C20
0FF0
0830
0810
1810
ENDCHAR
STARTCHAR 1F0C
ENCODING 7948
SWIDTH 462 0
DWIDTH 9 0
BBX 11 12 -2 0
BITMAP
DB00
D700
A580
0480
0C80
08C0
08C0
1840
1FE0
1060
1020
3020
ENDCHAR
STARTCHAR 1F0D
ENCODING 7949
SWIDTH 462 0
DWIDTH 9 0
BBX 12 12 -3 0
BITMAP
CD80
8B80
52C0
0240
0640
0460
0460
0C20
0FF0
0830
0810
1810
ENDCHAR
STARTCHAR 1F0E
ENCODING 7950
SWIDTH 462 0
DWIDTH 9 0
BBX 11 13 -2 0
BITMAP
7800
8B00
3700
2580
0480
0C80
08C0
08C0
1840
1FE0
1060
1020
3020
ENDCHAR
STARTCHAR 1F0F
ENCODING 7951
SWIDTH 462 0
DWIDTH 9 0
BBX 11 13 -2 0
BITMAP
7800
8B00
2700
2580
1480
0C80
08C0
08C0
1840
1FE0
1060
1020
3020
ENDCHAR
STARTCHAR 1F10
ENCODING 7952
SWIDTH 462 0
DWIDTH 9 0
BBX 8 14 1 0
BITMAP
08
0C
08
10
00
3E
60
40
60
7C
40
C0
61
7F
ENDCHAR
STARTCHAR 1F11
ENCODING 7953
SWIDTH 462 0
DWIDTH 9 0
BBX 8 13 1 1
BITMAP
18
10
08
00
3E
60
40
60
7C
40
C0
61
7F
ENDCHAR
STARTCHAR 1F12
ENCODING 7954
SWIDTH 462 0
DWIDTH 9 0
BBX 8 13 1 1
BITMAP
34
36
22
00
3E
60
40
60
7C
40
C0
61
7F
ENDCHAR
STARTCHAR 1F13
ENCODING 7955
SWIDTH 462 0
DWIDTH 9 0
BBX 8 13 1 1
BITMAP
68
64
24
00
3E
60
40
60
7C
40
C0
61
7F
ENDCHAR
STARTCHAR 1F14
ENCODING 7956
SWIDTH 462 0
DWIDTH 9 0
BBX 8 14 1 0
BITMAP
24
24
2C
48
00
3E
60
40
60
7C
40
C0
61
7F
ENDCHAR
STARTCHAR 1F15
ENCODING 7957
SWIDTH 462 0
DWIDTH 9 0
BBX 8 14 1 0
BITMAP
20
66
24
38
00
3E
60
40
60
7C
40
C0
61
7F
ENDCHAR
STARTCHAR 1F18
ENCODING 7960
SWIDTH 462 0
DWIDTH 9 0
BBX 10 12 -1 0
BITMAP
DFC0
5000
9000
1000
1000
1F80
1000
1000
1000
1000
1000
1FC0
ENDCHAR
STARTCHAR 1F19
ENCODING 7961
SWIDTH 462 0
DWIDTH 9 0
BBX 10 12 -1 0
BITMAP
DFC0
9000
5000
1000
1000
1F80
1000
1000
1000
1000
1000
1FC0
ENDCHAR
STARTCHAR 1F1A
ENCODING 7962
SWIDTH 462 0
DWIDTH 9 0
BBX 14 12 -5 0
BITMAP
79FC
4900
C500
0100
0100
01F8
0100
0100
0100
0100
0100
01FC
ENDCHAR
STARTCHAR 1F1B
ENCODING 7963
SWIDTH 462 0
DWIDTH 9 0
BBX 13 12 -4 0
BITMAP
B3F8
9200
CA00
0200
0200
03F0
0200
0200
0200
0200
0200
03F8
ENDCHAR
STARTCHAR 1F1C
ENCODING 7964
SWIDTH 462 0
DWIDTH 9 0
BBX 13 12 -4 0
BITMAP
DBF8
5200
B200
0200
0200
03F0
0200
0200
0200
0200
0200
03F8
ENDCHAR
STARTCHAR 1F1D
ENCODING 7965
SWIDTH 462 0
DWIDTH 9 0
BBX 14 12 -5 0
BITMAP
CDFC
C900
5900
0100
0100
01F8
0100
0100
0100
0100
0100
01FC
ENDCHAR
STARTCHAR 1F20
ENCODING 7968
SWIDTH 462 0
DWIDTH 9 0
BBX 7 16 1 -2
BITMAP
18
08
10
00
FC
C6
C2
C2
C2
C2
C2
C2
C2
02
02
02
ENDCHAR
STARTCHAR 1F21
ENCODING 7969
SWIDTH 462 0
DWIDTH 9 0
BBX 7 16 1 -2
BITMAP
18
10
08
00
FC
C6
C2
C2
C2
C2
C2
C2
C2
02
02
02
ENDCHAR
STARTCHAR 1F22
ENCODING 7970
SWIDTH 462 0
DWIDTH 9 0
BBX 7 17 1 -3
BITMAP
20
6C
24
42
00
FC
C6
C2
C2
C2
C2
C2
C2
C2
02
02
02
ENDCHAR
STARTCHAR 1F23
ENCODING 7971
SWIDTH 462 0
DWIDTH 9 0
BBX 7 16 1 -2
BITMAP
68
64
24
00
FC
C6
C2
C2
C2
C2
C2
C2
C2
02
02
02
ENDCHAR
STARTCHAR 1F24
ENCODING 7972
SWIDTH 462 0
DWIDTH 9 0
BBX 7 17 1 -3
BITMAP
24
24
2C
48
00
FC
C6
C2
C2
C2
C2
C2
C2
C2
02
02
02
ENDCHAR
STARTCHAR 1F25
ENCODING 7973
SWIDTH 462 0
DWIDTH 9 0
BBX 7 17 1 -3
BITMAP
20
66
24
38
00
FC
C6
C2
C2
C2
C2
C2
C2
C2
02
02
02
ENDCHAR
STARTCHAR 1F26
ENCODING 7974
SWIDTH 462 0
DWIDTH 9 0
BBX 7 18 1 -3
BITMAP
3C
24
18
18
10
00
FC
C6
C2
C2
C2
C2
C2
C2
C2
02
02
02
ENDCHAR
STARTCHAR 1F27
ENCODING 7975
SWIDTH 462 0
DWIDTH 9 0
BBX 7 18 1 -3
BITMAP
3C
24
18
10
08
00
FC
C6
C2
C2
C2
C2
C2
C2
C2
02
02
02
ENDCHAR
STARTCHAR 1F28
ENCODING 7976
SWIDTH 462 0
DWIDTH 9 0
BBX 11 12 -2 0
BITMAP
D060
5060
9060
1060
1060
1FE0
1060
1060
1060
1060
1060
1060
ENDCHAR
STARTCHAR 1F29
ENCODING 7977
SWIDTH 462 0
DWIDTH 9 0
BBX 11 12 -2 0
BITMAP
D060
9060
5060
1060
1060
1FE0
1060
1060
1060
1060
1060
1060
ENDCHAR
STARTCHAR 1F2A
ENCODING 7978
SWIDTH 462 0
DWIDTH 9 0
BBX 15 12 -6 0
BITMAP
7906
4D06
C506
0106
0106
01FE
0106
0106
0106
0106
0106
0106
ENDCHAR
STARTCHAR 1F2B
ENCODING 7979
SWIDTH 462 0
DWIDTH 9 0
BBX 14 12 -5 0
BITMAP
F20C
9A0C
4A0C
020C
020C
03FC
020C
020C
020C
020C
020C
020C
ENDCHAR
STARTCHAR 1F2C
ENCODING 7980
SWIDTH 462 0
DWIDTH 9 0
BBX 14 12 -5 0
BITMAP
DA0C
520C
B20C
020C
020C
03FC
020C
020C
020C
020C
020C
020C
ENDCHAR
STARTCHAR 1F2D
ENCODING 7981
SWIDTH 462 0
DWIDTH 9 0
BBX 15 12 -6 0
BITMAP
CD06
C906
7906
0106
0106
01FE
0106
0106
0106
0106
0106
0106
ENDCHAR
STARTCHAR 1F2E
ENCODING 7982
SWIDTH 462 0
DWIDTH 9 0
BBX 13 13 -4 0
BITMAP
F000
9418
6418
6418
4418
0418
07F8
0418
0418
0418
0418
0418
0418
ENDCHAR
STARTCHAR 1F2F
ENCODING 7983
SWIDTH 462 0
DWIDTH 9 0
BBX 13 13 -4 0
BITMAP
F000
9418
6418
4418
2418
0418
07F8
0418
0418
0418
0418
0418
0418
ENDCHAR
STARTCHAR 1F30
ENCODING 7984
SWIDTH 462 0
DWIDTH 9 0
BBX 8 14 1 0
BITMAP
10
30
10
20
00
F0
10
10
10
10
10
10
19
1F
ENDCHAR
STARTCHAR 1F31
ENCODING 7985
SWIDTH 462 0
DWIDTH 9 0
BBX 8 13 1 1
BITMAP
30
30
18
00
F0
10
10
10
10
10
10
19
1F
ENDCHAR
STARTCHAR 1F32
ENCODING 7986
SWIDTH 462 0
DWIDTH 9 0
BBX 8 14 1 0
BITMAP
48
78
4C
C4
00
F0
10
10
10
10
10
10
19
1F
ENDCHAR
STARTCHAR 1F33
ENCODING 7987
SWIDTH 462 0
DWIDTH 9 0
BBX 8 14 1 0
BITMAP
40
78
4C
24
00
F0
10
10
10
10
10
10
19
1F
ENDCHAR
STARTCHAR 1F34
ENCODING 7988
SWIDTH 462 0
DWIDTH 9 0
BBX 8 14 1 0
BITMAP
20
64
2C
48
00
F0
10
10
10
10
10
10
19
1F
ENDCHAR
STARTCHAR 1F35
ENCODING 7989
SWIDTH 462 0
DWIDTH 9 0
BBX 8 14 1 0
BITMAP
40
64
4C
28
00
F0
10
10
10
10
10
10
19
1F
ENDCHAR
STARTCHAR 1F36
ENCODING 7990
SWIDTH 462 0
DWIDTH 9 0
BBX 8 15 1 0
BITMAP
38
44
10
10
20
00
F0
10
10
10
10
10
10
19
1F
ENDCHAR
STARTCHAR 1F37
ENCODING 7991
SWIDTH 462 0
DWIDTH 9 0
BBX 8 15 1 0
BITMAP
38
44
30
10
18
00
F0
10
10
10
10
10
10
19
1F
ENDCHAR
STARTCHAR 1F38
ENCODING 7992
SWIDTH 462 0
DWIDTH 9 0
BBX 9 12 -1 0
BITMAP
DF80
4600
8600
0600
0600
0600
0600
0600
0600
0600
0600
1F80
ENDCHAR
STARTCHAR 1F39
ENCODING 7993
SWIDTH 462 0
DWIDTH 9 0
BBX 9 12 -1 0
BITMAP
DF80
8600
C600
0600
0600
0600
0600
0600
0600
0600
0600
1F80
ENDCHAR
STARTCHAR 1F3A
ENCODING 7994
SWIDTH 462 0
DWIDTH 9 0
BBX 13 12 -5 0
BITMAP
79F8
4860
C460
0060
0060
0060
0060
0060
0060
0060
0060
01F8
ENDCHAR
STARTCHAR 1F3B
ENCODING 7995
SWIDTH 462 0
DWIDTH 9 0
BBX 12 12 -4 0
BITMAP
B3F0
90C0
C8C0
00C0
00C0
00C0
00C0
00C0
00C0
00C0
00C0
03F0
ENDCHAR
STARTCHAR 1F3C
ENCODING 7996
SWIDTH 462 0
DWIDTH 9 0
BBX 12 12 -4 0
BITMAP
DBF0
50C0
B0C0
00C0
00C0
00C0
00C0
00C0
00C0
00C0
00C0
03F0
ENDCHAR
STARTCHAR 1F3D
ENCODING 7997
SWIDTH 462 0
DWIDTH 9 0
BBX 13 12 -5 0
BITMAP
CDF8
C860
5860
0060
0060
0060
0060
0060
0060
0060
0060
01F8
ENDCHAR
STARTCHAR 1F3E
ENCODING 7998
SWIDTH 462 0
DWIDTH 9 0
BBX 12 13 -4 0
BITMAP
7800
8BF0
30C0
20C0
00C0
00C0
00C0
00C0
00C0
00C0
00C0
00C0
03F0
ENDCHAR
STARTCHAR 1F3F
ENCODING 7999
SWIDTH 462 0
DWIDTH 9 0
BBX 12 13 -4 0
BITMAP
7800
8BF0
30C0
20C0
10C0
00C0
00C0
00C0
00C0
00C0
00C0
00C0
03F0
ENDCHAR
STARTCHAR 1F40
ENCODING 8000
SWIDTH 462 0
DWIDTH 9 0
BBX 8 13 1 1
BITMAP
18
08
10
00
3C
66
C3
C3
83
C3
C3
66
3C
ENDCHAR
STARTCHAR 1F41
ENCODING 8001
SWIDTH 462 0
DWIDTH 9 0
BBX 8 13 1 1
BITMAP
18
10
08
00
3C
66
C3
C3
83
C3
C3
66
3C
ENDCHAR
STARTCHAR 1F42
ENCODING 8002
SWIDTH 462 0
DWIDTH 9 0
BBX 8 14 1 0
BITMAP
20
6C
24
42
00
3C
66
C3
C3
83
C3
C3
66
3C
ENDCHAR
STARTCHAR 1F43
ENCODING 8003
SWIDTH 462 0
DWIDTH 9 0
BBX 8 13 1 1
BITMAP
68
64
24
00
3C
66
C3
C3
83
C3
C3
66
3C
ENDCHAR
STARTCHAR 1F44
ENCODING 8004
SWIDTH 462 0
DWIDTH 9 0
BBX 8 14 1 0
BITMAP
24
24
2C
48
00
3C
66
C3
C3
83
C3
C3
66
3C
ENDCHAR
STARTCHAR 1F45
ENCODING 8005
SWIDTH 462 0
DWIDTH 9 0
BBX 8 14 1 0
BITMAP
20
66
24
38
00
3C
66
C3
C3
83
C3
C3
66
3C
ENDCHAR
STARTCHAR 1F48
ENCODING 8008
SWIDTH 462 0
DWIDTH 9 0
BBX 11 12 -2 0
BITMAP
6F80
4CC0
D860
1060
1060
1020
1020
1060
1060
1860
0CC0
0F80
ENDCHAR
STARTCHAR 1F49
ENCODING 8009
SWIDTH 462 0
DWIDTH 9 0
BBX 11 12 -2 0
BITMAP
CF80
8CC0
5860
1060
1060
1020
1020
1060
1060
1860
0CC0
0F80
ENDCHAR
STARTCHAR 1F4A
ENCODING 8010
SWIDTH 462 0
DWIDTH 9 0
BBX 15 12 -6 0
BITMAP
78F8
4CCC
C586
0106
0106
0102
0102
0106
0106
0186
00CC
00F8
ENDCHAR
STARTCHAR 1F4B
ENCODING 8011
SWIDTH 462 0
DWIDTH 9 0
BBX 14 12 -5 0
BITMAP
F1F0
9198
4B0C
020C
020C
0204
0204
020C
020C
030C
0198
01F0
ENDCHAR
STARTCHAR 1F4C
ENCODING 8012
SWIDTH 462 0
DWIDTH 9 0
BBX 13 12 -4 0
BITMAP
DBE0
5330
B618
0418
0418
0408
0408
0418
0418
0618
0330
03E0
ENDCHAR
STARTCHAR 1F4D
ENCODING 8013
SWIDTH 462 0
DWIDTH 9 0
BBX 14 12 -5 0
BITMAP
CDF0
8998
530C
020C
020C
0204
0204
020C
020C
030C
0198
01F0
ENDCHAR
STARTCHAR 1F50
ENCODING 8016
SWIDTH 462 0
DWIDTH 9 0
BBX 7 13 1 1
BITMAP
18
08
10
00
C2
C2
C2
C2
C2
C2
42
66
3C
ENDCHAR
STARTCHAR 1F51
ENCODING 8017
SWIDTH 462 0
DWIDTH 9 0
BBX 7 13 1 1
BITMAP
18
10
08
00
C2
C2
C2
C2
C2
C2
42
66
3C
ENDCHAR
STARTCHAR 1F52
ENCODING 8018
SWIDTH 462 0
DWIDTH 9 0
BBX 7 14 1 0
BITMAP
20
6C
24
42
00
C2
C2
C2
C2
C2
C2
42
66
3C
ENDCHAR
STARTCHAR 1F53
ENCODING 8019
SWIDTH 462 0
DWIDTH 9 0
BBX 7 13 1 1
BITMAP
68
64
24
00
C2
C2
C2
C2
C2
C2
42
66
3C
ENDCHAR
STARTCHAR 1F54
ENCODING 8020
SWIDTH 462 0
DWIDTH 9 0
BBX 7 14 1 0
BITMAP
24
24
2C
48
00
C2
C2
C2
C2
C2
C2
42
66
3C
ENDCHAR
STARTCHAR 1F55
ENCODING 8021
SWIDTH 462 0
DWIDTH 9 0
BBX 7 14 1 0
BITMAP
20
66
24
38
00
C2
C2
C2
C2
C2
C2
42
66
3C
ENDCHAR
STARTCHAR 1F56
ENCODING 8022
SWIDTH 462 0
DWIDTH 9 0
BBX 7 15 1 0
BITMAP
3C
24
18
18
10
00
C2
C2
C2
C2
C2
C2
42
66
3C
ENDCHAR
STARTCHAR 1F57
ENCODING 8023
SWIDTH 462 0
DWIDTH 9 0
BBX 7 15 1 0
BITMAP
3C
24
18
10
08
00
C2
C2
C2
C2
C2
C2
42
66
3C
ENDCHAR
STARTCHAR 1F59
ENCODING 8025
SWIDTH 462 0
DWIDTH 9 0
BBX 11 12 -2 0
BITMAP
F020
9860
5840
0CC0
0C80
0780
0700
0300
0300
0300
0300
0300
ENDCHAR
STARTCHAR 1F5B
ENCODING 8027
SWIDTH 462 0
DWIDTH 9 0
BBX 14 12 -5 0
BITMAP
F604
9B0C
4B08
0198
0190
00F0
00E0
0060
0060
0060
0060
0060
ENDCHAR
STARTCHAR 1F5D
ENCODING 8029
SWIDTH 462 0
DWIDTH 9 0
BBX 15 12 -6 0
BITMAP
CF02
9986
5184
00CC
00C8
0078
0070
0030
0030
0030
0030
0030
ENDCHAR
STARTCHAR 1F5F
ENCODING 8031
SWIDTH 462 0
DWIDTH 9 0
BBX 14 13 -5 0
BITMAP
F000
8E04
630C
2308
1198
0190
00F0
00E0
0060
0060
0060
0060
0060
ENDCHAR
STARTCHAR 1F60
ENCODING 8032
SWIDTH 462 0
DWIDTH 9 0
BBX 8 13 1 1
BITMAP
18
08
10
00
66
C2
C3
C3
9B
9B
9B
DB
6E
ENDCHAR
STARTCHAR 1F61
ENCODING 8033
SWIDTH 462 0
DWIDTH 9 0
BBX 8 13 1 1
BITMAP
18
10
08
00
66
C2
C3
C3
9B
9B
9B
DB
6E
ENDCHAR
STARTCHAR 1F62
ENCODING 8034
SWIDTH 462 0
DWIDTH 9 0
BBX 8 14 1 0
BITMAP
20
6C
24
42
00
66
C2
C3
C3
9B
9B
9B
DB
6E
ENDCHAR
STARTCHAR 1F63
ENCODING 8035
SWIDTH 462 0
DWIDTH 9 0
BBX 8 13 1 1
BITMAP
68
64
24
00
66
C2
C3
C3
9B
9B
9B
DB
6E
ENDCHAR
STARTCHAR 1F64
ENCODING 8036
SWIDTH 462 0
DWIDTH 9 0
BBX 8 14 1 0
BITMAP
24
24
2C
48
00
66
C2
C3
C3
9B
9B
9B
DB
6E
ENDCHAR
STARTCHAR 1F65
ENCODING 8037
SWIDTH 462 0
DWIDTH 9 0
BBX 8 14 1 0
BITMAP
20
66
24
38
00
66
C2
C3
C3
9B
9B
9B
DB
6E
ENDCHAR
STARTCHAR 1F66
ENCODING 8038
SWIDTH 462 0
DWIDTH 9 0
BBX 8 15 1 0
BITMAP
3C
24
18
18
10
00
66
C2
C3
C3
9B
9B
9B
DB
6E
ENDCHAR
STARTCHAR 1F67
ENCODING 8039
SWIDTH 462 0
DWIDTH 9 0
BBX 8 15 1 0
BITMAP
3C
24
18
10
08
00
66
C2
C3
C3
9B
9B
9B
DB
6E
ENDCHAR
STARTCHAR 1F68
ENCODING 8040
SWIDTH 462 0
DWIDTH 9 0
BBX 11 12 -2 0
BITMAP
6780
4CC0
D860
1060
1060
1060
1060
1860
1840
08C0
0C80
3CE0
ENDCHAR
STARTCHAR 1F69
ENCODING 8041
SWIDTH 462 0
DWIDTH 9 0
BBX 11 12 -2 0
BITMAP
C780
8CC0
5860
1060
1060
1060
1060
1860
1840
08C0
0C80
3CE0
ENDCHAR
STARTCHAR 1F6A
ENCODING 8042
SWIDTH 462 0
DWIDTH 9 0
BBX 15 12 -6 0
BITMAP
7878
48CC
C586
0106
0106
0106
0106
0186
0184
008C
00C8
03CE
ENDCHAR
STARTCHAR 1F6B
ENCODING 8043
SWIDTH 462 0
DWIDTH 9 0
BBX 14 12 -5 0
BITMAP
F0F0
9198
CB0C
020C
020C
020C
020C
030C
0308
0118
0190
079C
ENDCHAR
STARTCHAR 1F6C
ENCODING 8044
SWIDTH 462 0
DWIDTH 9 0
BBX 13 12 -4 0
BITMAP
D9E0
5330
A618
0418
0418
0418
0418
0618
0610
0230
0320
0F38
ENDCHAR
STARTCHAR 1F6D
ENCODING 8045
SWIDTH 462 0
DWIDTH 9 0
BBX 14 12 -5 0
BITMAP
CCF0
8998
530C
020C
020C
020C
020C
030C
0308
0118
0190
079C
ENDCHAR
STARTCHAR 1F6E
ENCODING 8046
SWIDTH 462 0
DWIDTH 9 0
BBX 12 13 -3 0
BITMAP
F000
93C0
6660
2C30
4830
0830
0830
0830
0C30
0C20
0460
0640
1E70
ENDCHAR
STARTCHAR 1F6F
ENCODING 8047
SWIDTH 462 0
DWIDTH 9 0
BBX 13 13 -4 0
BITMAP
7000
89E0
2330
2618
1418
0418
0418
0418
0618
0610
0230
0320
0F38
ENDCHAR
STARTCHAR 1F70
ENCODING 8048
SWIDTH 462 0
DWIDTH 9 0
BBX 8 13 1 0
BITMAP
30
18
00
00
3E
62
C2
C2
C2
C2
C2
67
3F
ENDCHAR
STARTCHAR 1F71
ENCODING 8049
SWIDTH 462 0
DWIDTH 9 0
BBX 8 13 1 0
BITMAP
0C
18
10
00
3E
62
C2
C2
C2
C2
C2
67
3F
ENDCHAR
STARTCHAR 1F72
ENCODING 8050
SWIDTH 462 0
DWIDTH 9 0
BBX 8 13 1 0
BITMAP
30
18
00
00
3E
60
40
60
7C
40
C0
61
7F
ENDCHAR
STARTCHAR 1F73
ENCODING 8051
SWIDTH 462 0
DWIDTH 9 0
BBX 8 13 1 0
BITMAP
0C
18
10
00
3E
60
40
60
7C
40
C0
61
7F
ENDCHAR
STARTCHAR 1F74
ENCODING 8052
SWIDTH 462 0
DWIDTH 9 0
BBX 7 16 1 -3
BITMAP
30
18
00
00
FC
C6
C2
C2
C2
C2
C2
C2
C2
02
02
02
ENDCHAR
STARTCHAR 1F75
ENCODING 8053
SWIDTH 462 0
DWIDTH 9 0
BBX 7 16 1 -3
BITMAP
0C
18
10
00
FC
C6
C2
C2
C2
C2
C2
C2
C2
02
02
02
ENDCHAR
STARTCHAR 1F76
ENCODING 8054
SWIDTH 462 0
DWIDTH 9 0
BBX 8 13 1 0
BITMAP
20
18
08
00
F0
10
10
10
10
10
10
19
1F
ENDCHAR
STARTCHAR 1F77
ENCODING 8055
SWIDTH 462 0
DWIDTH 9 0
BBX 8 13 1 0
BITMAP
08
38
20
00
F0
10
10
10
10
10
10
19
1F
ENDCHAR
STARTCHAR 1F78
ENCODING 8056
SWIDTH 462 0
DWIDTH 9 0
BBX 8 13 1 0
BITMAP
30
18
00
00
3C
66
C3
C3
83
C3
C3
66
3C
ENDCHAR
STARTCHAR 1F79
ENCODING 8057
SWIDTH 462 0
DWIDTH 9 0
BBX 8 13 1 0
BITMAP
0C
18
10
00
3C
66
C3
C3
83
C3
C3
66
3C
ENDCHAR
STARTCHAR 1F7A
ENCODING 8058
SWIDTH 462 0
DWIDTH 9 0
BBX 7 13 1 0
BITMAP
30
18
00
00
C2
C2
C2
C2
C2
C2
42
66
3C
ENDCHAR
STARTCHAR 1F7B
ENCODING 8059
SWIDTH 462 0
DWIDTH 9 0
BBX 7 13 1 0
BITMAP
0C
18
10
00
C2
C2
C2
C2
C2
C2
42
66
3C
ENDCHAR
STARTCHAR 1F7C
ENCODING 8060
SWIDTH 462 0
DWIDTH 9 0
BBX 8 13 1 0
BITMAP
30
18
00
00
66
C2
C3
C3
9B
9B
9B
DB
6E
ENDCHAR
STARTCHAR 1F7D
ENCODING 8061
SWIDTH 462 0
DWIDTH 9 0
BBX 8 13 1 0
BITMAP
0C
18
10
00
66
C2
C3
C3
9B
9B
9B
DB
6E
ENDCHAR
STARTCHAR 1F80
ENCODING 8064
SWIDTH 462 0
DWIDTH 9 0
BBX 8 16 1 -2
BITMAP
18
08
10
00
3E
62
C2
C2
C2
C2
C2
67
3F
00
10
1C
ENDCHAR
STARTCHAR 1F81
ENCODING 8065
SWIDTH 462 0
DWIDTH 9 0
BBX 8 16 1 -2
BITMAP
18
10
08
00
3E
62
C2
C2
C2
C2
C2
67
3F
00
10
1C
ENDCHAR
STARTCHAR 1F82
ENCODING 8066
SWIDTH 462 0
DWIDTH 9 0
BBX 8 17 1 -3
BITMAP
20
6C
24
42
00
3E
62
C2
C2
C2
C2
C2
67
3F
00
10
1C
ENDCHAR
STARTCHAR 1F83
ENCODING 8067
SWIDTH 462 0
DWIDTH 9 0
BBX 8 16 1 -2
BITMAP
68
64
24
00
3E
62
C2
C2
C2
C2
C2
67
3F
00
10
1C
ENDCHAR
STARTCHAR 1F84
ENCODING 8068
SWIDTH 462 0
DWIDTH 9 0
BBX 8 16 1 -2
BITMAP
36
14
2C
00
3E
62
C2
C2
C2
C2
C2
67
3F
00
10
1C
ENDCHAR
STARTCHAR 1F85
ENCODING 8069
SWIDTH 462 0
DWIDTH 9 0
BBX 8 17 1 -3
BITMAP
20
66
24
38
00
3E
62
C2
C2
C2
C2
C2
67
3F
00
10
1C
ENDCHAR
STARTCHAR 1F86
ENCODING 8070
SWIDTH 462 0
DWIDTH 9 0
BBX 8 18 1 -3
BITMAP
3C
24
18
08
10
00
3E
62
C2
C2
C2
C2
C2
67
3F
00
10
1C
ENDCHAR
STARTCHAR 1F87
ENCODING 8071
SWIDTH 462 0
DWIDTH 9 0
BBX 8 18 1 -3
BITMAP
3C
24
18
10
08
00
3E
62
C2
C2
C2
C2
C2
67
3F
00
10
1C
ENDCHAR
STARTCHAR 1F88
ENCODING 8072
SWIDTH 462 0
DWIDTH 9 0
BBX 11 12 -1 0
BITMAP
DC00
5C00
9400
14C0
34C0
36C0
26C0
26C0
3EC0
22C0
62C0
6360
ENDCHAR
STARTCHAR 1F89
ENCODING 8073
SWIDTH 462 0
DWIDTH 9 0
BBX 12 12 -2 0
BITMAP
CE00
4E00
6A00
0A60
1A60
1B60
1360
1360
1F60
1160
3160
31B0
ENDCHAR
STARTCHAR 1F8A
ENCODING 8074
SWIDTH 462 0
DWIDTH 9 0
BBX 15 12 -5 0
BITMAP
D9C0
49C0
8D40
014C
034C
036C
026C
026C
03EC
022C
062C
0636
ENDCHAR
STARTCHAR 1F8B
ENCODING 8075
SWIDTH 462 0
DWIDTH 9 0
BBX 15 12 -5 0
BITMAP
D9C0
C9C0
4D40
014C
034C
036C
026C
026C
03EC
022C
062C
0636
ENDCHAR
STARTCHAR 1F8C
ENCODING 8076
SWIDTH 462 0
DWIDTH 9 0
BBX 14 12 -4 0
BITMAP
CB80
5B80
B280
0298
0698
06D8
04D8
04D8
07D8
0458
0C58
0C6C
ENDCHAR
STARTCHAR 1F8D
ENCODING 8077
SWIDTH 462 0
DWIDTH 9 0
BBX 15 12 -5 0
BITMAP
C5C0
4DC0
7940
014C
034C
036C
026C
026C
03EC
022C
062C
0636
ENDCHAR
STARTCHAR 1F8E
ENCODING 8078
SWIDTH 462 0
DWIDTH 9 0
BBX 13 13 -3 0
BITMAP
F000
8F00
6700
2500
4530
0D30
0DB0
09B0
09B0
0FB0
08B0
18B0
18D8
ENDCHAR
STARTCHAR 1F8F
ENCODING 8079
SWIDTH 462 0
DWIDTH 9 0
BBX 13 13 -3 0
BITMAP
F000
9700
6700
6500
2530
0D30
0DB0
09B0
09B0
0FB0
08B0
18B0
18D8
ENDCHAR
STARTCHAR 1F90
ENCODING 8080
SWIDTH 462 0
DWIDTH 9 0
BBX 7 16 1 -2
BITMAP
18
08
10
00
FC
C6
C2
C2
C2
C2
C2
C2
C2
02
C2
62
ENDCHAR
STARTCHAR 1F91
ENCODING 8081
SWIDTH 462 0
DWIDTH 9 0
BBX 7 16 1 -2
BITMAP
18
10
08
00
FC
C6
C2
C2
C2
C2
C2
C2
C2
02
C2
62
ENDCHAR
STARTCHAR 1F92
ENCODING 8082
SWIDTH 462 0
DWIDTH 9 0
BBX 7 17 1 -3
BITMAP
20
6C
24
42
00
FC
C6
C2
C2
C2
C2
C2
C2
C2
02
C2
62
ENDCHAR
STARTCHAR 1F93
ENCODING 8083
SWIDTH 462 0
DWIDTH 9 0
BBX 7 16 1 -2
BITMAP
68
64
24
00
FC
C6
C2
C2
C2
C2
C2
C2
C2
02
C2
62
ENDCHAR
STARTCHAR 1F94
ENCODING 8084
SWIDTH 462 0
DWIDTH 9 0
BBX 7 17 1 -3
BITMAP
24
24
2C
48
00
FC
C6
C2
C2
C2
C2
C2
C2
C2
02
C2
62
ENDCHAR
STARTCHAR 1F95
ENCODING 8085
SWIDTH 462 0
DWIDTH 9 0
BBX 7 17 1 -3
BITMAP
20
66
24
38
00
FC
C6
C2
C2
C2
C2
C2
C2
C2
02
C2
62
ENDCHAR
STARTCHAR 1F96
ENCODING 8086
SWIDTH 462 0
DWIDTH 9 0
BBX 7 18 1 -3
BITMAP
3C
24
18
18
10
00
FC
C6
C2
C2
C2
C2
C2
C2
C2
02
C2
62
ENDCHAR
STARTCHAR 1F97
ENCODING 8087
SWIDTH 462 0
DWIDTH 9 0
BBX 7 18 1 -3
BITMAP
3C
24
18
10
08
00
FC
C6
C2
C2
C2
C2
C2
C2
C2
02
C2
62
ENDCHAR
STARTCHAR 1F98
ENCODING 8088
SWIDTH 462 0
DWIDTH 9 0
BBX 12 12 -2 0
BITMAP
D100
5100
9100
1160
1160
1F60
1160
1160
1160
1160
1160
1130
ENDCHAR
STARTCHAR 1F99
ENCODING 8089
SWIDTH 462 0
DWIDTH 9 0
BBX 12 12 -2 0
BITMAP
D100
9100
5100
1160
1160
1F60
1160
1160
1160
1160
1160
1130
ENDCHAR
STARTCHAR 1F9A
ENCODING 8090
SWIDTH 462 0
DWIDTH 9 0
BBX 16 12 -6 0
BITMAP
7910
4D10
C510
0116
0116
01F6
0116
0116
0116
0116
0116
0113
ENDCHAR
STARTCHAR 1F9B
ENCODING 8091
SWIDTH 462 0
DWIDTH 9 0
BBX 15 12 -5 0
BITMAP
F220
9A20
4A20
022C
022C
03EC
022C
022C
022C
022C
022C
0226
ENDCHAR
STARTCHAR 1F9C
ENCODING 8092
SWIDTH 462 0
DWIDTH 9 0
BBX 15 12 -5 0
BITMAP
DA20
5220
B220
022C
022C
03EC
022C
022C
022C
022C
022C
0226
ENDCHAR
STARTCHAR 1F9D
ENCODING 8093
SWIDTH 462 0
DWIDTH 9 0
BBX 16 12 -6 0
BITMAP
CD10
C910
7910
0116
0116
01F6
0116
0116
0116
0116
0116
0113
ENDCHAR
STARTCHAR 1F9E
ENCODING 8094
SWIDTH 462 0
DWIDTH 9 0
BBX 14 13 -4 0
BITMAP
F000
9440
6440
6440
4458
0458
07D8
0458
0458
0458
0458
0458
044C
ENDCHAR
STARTCHAR 1F9F
ENCODING 8095
SWIDTH 462 0
DWIDTH 9 0
BBX 14 13 -4 0
BITMAP
F000
9440
6440
4440
2458
0458
07D8
0458
0458
0458
0458
0458
044C
ENDCHAR
STARTCHAR 1FA0
ENCODING 8096
SWIDTH 462 0
DWIDTH 9 0
BBX 8 16 1 -2
BITMAP
18
08
10
00
66
C2
C3
C3
9B
9B
9B
DB
6E
00
18
1C
ENDCHAR
STARTCHAR 1FA1
ENCODING 8097
SWIDTH 462 0
DWIDTH 9 0
BBX 8 16 1 -2
BITMAP
18
10
08
00
66
C2
C3
C3
9B
9B
9B
DB
6E
00
18
1C
ENDCHAR
STARTCHAR 1FA2
ENCODING 8098
SWIDTH 462 0
DWIDTH 9 0
BBX 8 17 1 -3
BITMAP
20
6C
24
42
00
66
C2
C3
C3
9B
9B
9B
DB
6E
00
18
1C
ENDCHAR
STARTCHAR 1FA3
ENCODING 8099
SWIDTH 462 0
DWIDTH 9 0
BBX 8 16 1 -2
BITMAP
68
64
24
00
66
C2
C3
C3
9B
9B
9B
DB
6E
00
18
1C
ENDCHAR
STARTCHAR 1FA4
ENCODING 8100
SWIDTH 462 0
DWIDTH 9 0
BBX 8 17 1 -3
BITMAP
24
24
2C
48
00
66
C2
C3
C3
9B
9B
9B
DB
6E
00
18
1C
ENDCHAR
STARTCHAR 1FA5
ENCODING 8101
SWIDTH 462 0
DWIDTH 9 0
BBX 8 17 1 -3
BITMAP
20
66
24
38
00
66
C2
C3
C3
9B
9B
9B
DB
6E
00
18
1C
ENDCHAR
STARTCHAR 1FA6
ENCODING 8102
SWIDTH 462 0
DWIDTH 9 0
BBX 8 18 1 -3
BITMAP
3C
24
18
18
10
00
66
C2
C3
C3
9B
9B
9B
DB
6E
00
18
1C
ENDCHAR
STARTCHAR 1FA7
ENCODING 8103
SWIDTH 462 0
DWIDTH 9 0
BBX 8 18 1 -3
BITMAP
3C
24
18
10
08
00
66
C2
C3
C3
9B
9B
9B
DB
6E
00
18
1C
ENDCHAR
STARTCHAR 1FA8
ENCODING 8104
SWIDTH 462 0
DWIDTH 9 0
BBX 12 12 -2 0
BITMAP
CE00
5B00
9300
1160
3160
3160
1160
1160
1360
1260
0A60
3B30
ENDCHAR
STARTCHAR 1FA9
ENCODING 8105
SWIDTH 462 0
DWIDTH 9 0
BBX 13 12 -3 0
BITMAP
C700
4D80
6980
08B0
18B0
18B0
08B0
08B0
09B0
0930
0530
1D98
ENDCHAR
STARTCHAR 1FAA
ENCODING 8106
SWIDTH 462 0
DWIDTH 9 0
BBX 16 12 -6 0
BITMAP
D8E0
49B0
8D30
0116
0316
0316
0116
0116
0136
0126
00A6
03B3
ENDCHAR
STARTCHAR 1FAB
ENCODING 8107
SWIDTH 462 0
DWIDTH 9 0
BBX 16 12 -6 0
BITMAP
D8E0
49B0
6530
0116
0316
0316
0116
0116
0136
0126
00A6
03B3
ENDCHAR
STARTCHAR 1FAC
ENCODING 8108
SWIDTH 462 0
DWIDTH 9 0
BBX 15 12 -5 0
BITMAP
6DC0
5B60
D260
022C
062C
062C
022C
022C
026C
024C
014C
0766
ENDCHAR
STARTCHAR 1FAD
ENCODING 8109
SWIDTH 462 0
DWIDTH 9 0
BBX 15 12 -5 0
BITMAP
CDC0
9B60
5260
022C
062C
062C
022C
022C
026C
024C
014C
0766
ENDCHAR
STARTCHAR 1FAE
ENCODING 8110
SWIDTH 462 0
DWIDTH 9 0
BBX 14 13 -4 0
BITMAP
7800
8B80
36C0
24C0
4458
0C58
0C58
0458
0458
04D8
0498
0298
0ECC
ENDCHAR
STARTCHAR 1FAF
ENCODING 8111
SWIDTH 462 0
DWIDTH 9 0
BBX 14 13 -4 0
BITMAP
F000
9380
66C0
64C0
2458
0C58
0C58
0458
0458
04D8
0498
0298
0ECC
ENDCHAR
STARTCHAR 1FB0
ENCODING 8112
SWIDTH 462 0
DWIDTH 9 0
BBX 8 13 1 0
BITMAP
24
3C
00
00
3E
62
C2
C2
C2
C2
C2
67
3F
ENDCHAR
STARTCHAR 1FB1
ENCODING 8113
SWIDTH 462 0
DWIDTH 9 0
BBX 8 12 1 0
BITMAP
7C
00
00
3E
62
C2
C2
C2
C2
C2
67
3F
ENDCHAR
STARTCHAR 1FB2
ENCODING 8114
SWIDTH 462 0
DWIDTH 9 0
BBX 8 16 1 -3
BITMAP
30
18
00
00
3E
62
C2
C2
C2
C2
C2
67
3F
00
10
1C
ENDCHAR
STARTCHAR 1FB3
ENCODING 8115
SWIDTH 462 0
DWIDTH 9 0
BBX 8 12 1 -3
BITMAP
3E
62
C2
C2
C2
C2
C2
67
3F
00
10
1C
ENDCHAR
STARTCHAR 1FB4
ENCODING 8116
SWIDTH 462 0
DWIDTH 9 0
BBX 8 16 1 -3
BITMAP
0C
18
10
00
3E
62
C2
C2
C2
C2
C2
67
3F
00
10
1C
ENDCHAR
STARTCHAR 1FB6
ENCODING 8118
SWIDTH 462 0
DWIDTH 9 0
BBX 8 13 1 0
BITMAP
1C
24
00
00
3E
62
C2
C2
C2
C2
C2
67
3F
ENDCHAR
STARTCHAR 1FB7
ENCODING 8119
SWIDTH 462 0
DWIDTH 9 0
BBX 8 16 1 -3
BITMAP
1C
24
00
00
3E
62
C2
C2
C2
C2
C2
67
3F
00
10
1C
ENDCHAR
STARTCHAR 1FB8
ENCODING 8120
SWIDTH 462 0
DWIDTH 9 0
BBX 9 16 0 0
BITMAP
1200
1E00
0C00
0000
0C00
1C00
1600
1200
3200
2300
2300
6100
7F80
4180
4080
C080
ENDCHAR
STARTCHAR 1FB9
ENCODING 8121
SWIDTH 462 0
DWIDTH 9 0
BBX 9 15 0 0
BITMAP
3E00
0000
0000
0C00
1C00
1600
1200
3200
2300
2300
6100
7F80
4180
4080
C080
ENDCHAR
STARTCHAR 1FBA
ENCODING 8122
SWIDTH 462 0
DWIDTH 9 0
BBX 10 12 -1 0
BITMAP
8600
CE00
6B00
0900
1900
1180
1180
3080
3FC0
20C0
2040
6040
ENDCHAR
STARTCHAR 1FBB
ENCODING 8123
SWIDTH 462 0
DWIDTH 9 0
BBX 10 12 -1 0
BITMAP
2600
6E00
CB00
0900
1900
1180
1180
3080
3FC0
20C0
2040
6040
ENDCHAR
STARTCHAR 1FBC
ENCODING 8124
SWIDTH 462 0
DWIDTH 9 0
BBX 10 12 0 0
BITMAP
3800
3800
2800
2980
6980
6D80
4D80
4D80
7D80
4580
C580
C6C0
ENDCHAR
STARTCHAR 1FBD
ENCODING 8125
SWIDTH 462 0
DWIDTH 9 0
BBX 2 3 4 11
BITMAP
C0
40
80
ENDCHAR
STARTCHAR 1FBE
ENCODING 8126
SWIDTH 462 0
DWIDTH 9 0
BBX 3 2 3 -3
BITMAP
C0
60
ENDCHAR
STARTCHAR 1FBF
ENCODING 8127
SWIDTH 462 0
DWIDTH 9 0
BBX 2 3 4 11
BITMAP
C0
40
80
ENDCHAR
STARTCHAR 1FC0
ENCODING 8128
SWIDTH 462 0
DWIDTH 9 0
BBX 4 2 3 11
BITMAP
E0
90
ENDCHAR
STARTCHAR 1FC1
ENCODING 8129
SWIDTH 462 0
DWIDTH 9 0
BBX 5 5 2 10
BITMAP
70
48
00
C8
C8
ENDCHAR
STARTCHAR 1FC2
ENCODING 8130
SWIDTH 462 0
DWIDTH 9 0
BBX 7 16 1 -3
BITMAP
30
18
00
00
FC
C6
C2
C2
C2
C2
C2
C2
C2
02
C2
62
ENDCHAR
STARTCHAR 1FC3
ENCODING 8131
SWIDTH 462 0
DWIDTH 9 0
BBX 7 12 1 -3
BITMAP
FC
C6
C2
C2
C2
C2
C2
C2
C2
02
C2
62
ENDCHAR
STARTCHAR 1FC4
ENCODING 8132
SWIDTH 462 0
DWIDTH 9 0
BBX 7 16 1 -3
BITMAP
0C
18
10
00
FC
C6
C2
C2
C2
C2
C2
C2
C2
02
C2
62
ENDCHAR
STARTCHAR 1FC6
ENCODING 8134
SWIDTH 462 0
DWIDTH 9 0
BBX 7 16 1 -3
BITMAP
38
24
00
00
FC
C6
C2
C2
C2
C2
C2
C2
C2
02
02
02
ENDCHAR
STARTCHAR 1FC7
ENCODING 8135
SWIDTH 462 0
DWIDTH 9 0
BBX 7 16 1 -3
BITMAP
38
24
00
00
FC
C6
C2
C2
C2
C2
C2
C2
C2
02
C2
62
ENDCHAR
STARTCHAR 1FC8
ENCODING 8136
SWIDTH 462 0
DWIDTH 9 0
BBX 11 12 -2 0
BITMAP
8FE0
C800
6800
0800
0800
0FC0
0800
0800
0800
0800
0800
0FE0
ENDCHAR
STARTCHAR 1FC9
ENCODING 8137
SWIDTH 462 0
DWIDTH 9 0
BBX 11 12 -2 0
BITMAP
6FE0
C800
8800
0800
0800
0FC0
0800
0800
0800
0800
0800
0FE0
ENDCHAR
STARTCHAR 1FCA
ENCODING 8138
SWIDTH 462 0
DWIDTH 9 0
BBX 12 12 -3 0
BITMAP
8830
C830
6830
0830
0830
0FF0
0830
0830
0830
0830
0830
0830
ENDCHAR
STARTCHAR 1FCB
ENCODING 8139
SWIDTH 462 0
DWIDTH 9 0
BBX 12 12 -3 0
BITMAP
6830
4830
8830
0830
0830
0FF0
0830
0830
0830
0830
0830
0830
ENDCHAR
STARTCHAR 1FCC
ENCODING 8140
SWIDTH 462 0
DWIDTH 9 0
BBX 9 12 1 0
BITMAP
8800
8800
8800
8B00
8B00
FB00
8B00
8B00
8B00
8B00
8B00
8980
ENDCHAR
STARTCHAR 1FCD
ENCODING 8141
SWIDTH 462 0
DWIDTH 9 0
BBX 6 4 2 10
BITMAP
40
D8
48
84
ENDCHAR
STARTCHAR 1FCE
ENCODING 8142
SWIDTH 462 0
DWIDTH 9 0
BBX 5 4 2 10
BITMAP
48
48
58
90
ENDCHAR
STARTCHAR 1FCF
ENCODING 8143
SWIDTH 462 0
DWIDTH 9 0
BBX 4 5 3 10
BITMAP
F0
90
60
60
40
ENDCHAR
STARTCHAR 1FD0
ENCODING 8144
SWIDTH 462 0
DWIDTH 9 0
BBX 8 13 1 0
BITMAP
48
78
00
00
F0
10
10
10
10
10
10
19
1F
ENDCHAR
STARTCHAR 1FD1
ENCODING 8145
SWIDTH 462 0
DWIDTH 9 0
BBX 8 12 1 0
BITMAP
7C
00
00
F0
10
10
10
10
10
10
19
1F
ENDCHAR
STARTCHAR 1FD2
ENCODING 8146
SWIDTH 462 0
DWIDTH 9 0
BBX 8 13 1 1
BITMAP
B4
D6
10
00
F0
10
10
10
10
10
10
19
1F
ENDCHAR
STARTCHAR 1FD3
ENCODING 8147
SWIDTH 462 0
DWIDTH 9 0
BBX 8 13 1 1
BITMAP
DE
D6
20
00
F0
10
10
10
10
10
10
19
1F
ENDCHAR
STARTCHAR 1FD6
ENCODING 8150
SWIDTH 462 0
DWIDTH 9 0
BBX 8 13 1 0
BITMAP
38
48
00
00
F0
10
10
10
10
10
10
19
1F
ENDCHAR
STARTCHAR 1FD7
ENCODING 8151
SWIDTH 462 0
DWIDTH 9 0
BBX 8 15 1 0
BITMAP
38
48
00
4C
4C
00
F0
10
10
10
10
10
10
19
1F
ENDCHAR
STARTCHAR 1FD8
ENCODING 8152
SWIDTH 462 0
DWIDTH 9 0
BBX 6 16 2 0
BITMAP
48
78
30
00
FC
30
30
30
30
30
30
30
30
30
30
FC
ENDCHAR
STARTCHAR 1FD9
ENCODING 8153
SWIDTH 462 0
DWIDTH 9 0
BBX 6 15 2 0
BITMAP
F8
00
00
FC
30
30
30
30
30
30
30
30
30
30
FC
ENDCHAR
STARTCHAR 1FDA
ENCODING 8154
SWIDTH 462 0
DWIDTH 9 0
BBX 10 12 -2 0
BITMAP
8FC0
C300
6300
0300
0300
0300
0300
0300
0300
0300
0300
0FC0
ENDCHAR
STARTCHAR 1FDB
ENCODING 8155
SWIDTH 462 0
DWIDTH 9 0
BBX 10 12 -2 0
BITMAP
6FC0
C300
8300
0300
0300
0300
0300
0300
0300
0300
0300
0FC0
ENDCHAR
STARTCHAR 1FDD
ENCODING 8157
SWIDTH 462 0
DWIDTH 9 0
BBX 5 3 2 11
BITMAP
D0
C8
48
ENDCHAR
STARTCHAR 1FDE
ENCODING 8158
SWIDTH 462 0
DWIDTH 9 0
BBX 6 3 2 11
BITMAP
CC
98
50
ENDCHAR
STARTCHAR 1FDF
ENCODING 8159
SWIDTH 462 0
DWIDTH 9 0
BBX 4 5 3 10
BITMAP
F0
90
60
40
20
ENDCHAR
STARTCHAR 1FE0
ENCODING 8160
SWIDTH 462 0
DWIDTH 9 0
BBX 7 13 1 0
BITMAP
24
3C
00
00
C2
C2
C2
C2
C2
C2
42
66
3C
ENDCHAR
STARTCHAR 1FE1
ENCODING 8161
SWIDTH 462 0
DWIDTH 9 0
BBX 7 12 1 0
BITMAP
7C
00
00
C2
C2
C2
C2
C2
C2
42
66
3C
ENDCHAR
STARTCHAR 1FE2
ENCODING 8162
SWIDTH 462 0
DWIDTH 9 0
BBX 7 13 1 1
BITMAP
52
DE
08
00
C2
C2
C2
C2
C2
C2
42
66
3C
ENDCHAR
STARTCHAR 1FE3
ENCODING 8163
SWIDTH 462 0
DWIDTH 9 0
BBX 7 13 1 1
BITMAP
4A
D6
10
00
C2
C2
C2
C2
C2
C2
42
66
3C
ENDCHAR
STARTCHAR 1FE4
ENCODING 8164
SWIDTH 462 0
DWIDTH 9 0
BBX 8 16 1 -2
BITMAP
18
08
10
00
3C
66
43
C3
C3
C3
C3
E6
FC
C0
C0
C0
ENDCHAR
STARTCHAR 1FE5
ENCODING 8165
SWIDTH 462 0
DWIDTH 9 0
BBX 8 16 1 -2
BITMAP
18
10
08
00
3C
66
43
C3
C3
C3
C3
E6
FC
C0
C0
C0
ENDCHAR
STARTCHAR 1FE6
ENCODING 8166
SWIDTH 462 0
DWIDTH 9 0
BBX 7 13 1 0
BITMAP
38
24
00
00
C2
C2
C2
C2
C2
C2
42
66
3C
ENDCHAR
STARTCHAR 1FE7
ENCODING 8167
SWIDTH 462 0
DWIDTH 9 0
BBX 7 15 1 0
BITMAP
38
24
00
64
64
00
C2
C2
C2
C2
C2
C2
42
66
3C
ENDCHAR
STARTCHAR 1FE8
ENCODING 8168
SWIDTH 462 0
DWIDTH 9 0
BBX 9 16 0 0
BITMAP
1200
1E00
0C00
0000
C080
6180
6100
3300
3200
1E00
1C00
0C00
0C00
0C00
0C00
0C00
ENDCHAR
STARTCHAR 1FE9
ENCODING 8169
SWIDTH 462 0
DWIDTH 9 0
BBX 9 15 0 0
BITMAP
3E00
0000
0000
C080
6180
6100
3300
3200
1E00
1C00
0C00
0C00
0C00
0C00
0C00
ENDCHAR
STARTCHAR 1FEA
ENCODING 8170
SWIDTH 462 0
DWIDTH 9 0
BBX 12 12 -3 0
BITMAP
D810
4C30
2C20
0660
0640
03C0
0380
0180
0180
0180
0180
0180
ENDCHAR
STARTCHAR 1FEB
ENCODING 8171
SWIDTH 462 0
DWIDTH 9 0
BBX 13 12 -4 0
BITMAP
2C08
6618
C610
0330
0320
01E0
01C0
00C0
00C0
00C0
00C0
00C0
ENDCHAR
STARTCHAR 1FEC
ENCODING 8172
SWIDTH 462 0
DWIDTH 9 0
BBX 11 12 -2 0
BITMAP
DF80
D8C0
7860
1860
1860
1860
1FC0
1E00
1800
1800
1800
1800
ENDCHAR
STARTCHAR 1FED
ENCODING 8173
SWIDTH 462 0
DWIDTH 9 0
BBX 7 3 1 11
BITMAP
52
DE
08
ENDCHAR
STARTCHAR 1FEE
ENCODING 8174
SWIDTH 462 0
DWIDTH 9 0
BBX 7 3 1 11
BITMAP
4A
D6
10
ENDCHAR
STARTCHAR 1FEF
ENCODING 8175
SWIDTH 462 0
DWIDTH 9 0
BBX 3 3 3 10
BITMAP
C0
60
20
ENDCHAR
STARTCHAR 1FF2
ENCODING 8178
SWIDTH 462 0
DWIDTH 9 0
BBX 8 16 1 -3
BITMAP
30
18
00
00
66
C2
C3
C3
9B
9B
9B
DB
6E
00
18
1C
ENDCHAR
STARTCHAR 1FF3
ENCODING 8179
SWIDTH 462 0
DWIDTH 9 0
BBX 8 12 1 -3
BITMAP
66
C2
C3
C3
9B
9B
9B
DB
6E
00
18
1C
ENDCHAR
STARTCHAR 1FF4
ENCODING 8180
SWIDTH 462 0
DWIDTH 9 0
BBX 8 16 1 -2
BITMAP
0C
18
10
00
66
C2
C3
C3
9B
9B
9B
DB
6E
00
18
1C
ENDCHAR
STARTCHAR 1FF6
ENCODING 8182
SWIDTH 462 0
DWIDTH 9 0
BBX 8 13 1 0
BITMAP
38
24
00
00
66
C2
C3
C3
9B
9B
9B
DB
6E
ENDCHAR
STARTCHAR 1FF7
ENCODING 8183
SWIDTH 462 0
DWIDTH 9 0
BBX 8 16 1 -3
BITMAP
38
24
00
00
66
C2
C3
C3
9B
9B
9B
DB
6E
00
18
1C
ENDCHAR
STARTCHAR 1FF8
ENCODING 8184
SWIDTH 462 0
DWIDTH 9 0
BBX 12 12 -3 0
BITMAP
C7C0
6660
2C30
0830
0830
0810
0810
0830
0830
0C30
0660
07C0
ENDCHAR
STARTCHAR 1FF9
ENCODING 8185
SWIDTH 462 0
DWIDTH 9 0
BBX 11 12 -2 0
BITMAP
2F80
6CC0
D860
1060
1060
1020
1020
1060
1060
1860
0CC0
0F80
ENDCHAR
STARTCHAR 1FFA
ENCODING 8186
SWIDTH 462 0
DWIDTH 9 0
BBX 12 12 -3 0
BITMAP
C3C0
6660
2C30
0830
0830
0830
0830
0C30
0C20
0460
0640
1E70
ENDCHAR
STARTCHAR 1FFB
ENCODING 8187
SWIDTH 462 0
DWIDTH 9 0
BBX 11 12 -2 0
BITMAP
2780
6CC0
D860
1060
1060
1060
1060
1860
1840
08C0
0C80
3CE0
ENDCHAR
STARTCHAR 1FFC
ENCODING 8188
SWIDTH 462 0
DWIDTH 9 0
BBX 10 12 0 0
BITMAP
3800
6C00
4C00
4580
C580
C580
4580
4580
4D80
4980
2980
ECC0
ENDCHAR
STARTCHAR 1FFD
ENCODING 8189
SWIDTH 462 0
DWIDTH 9 0
BBX 4 3 3 10
BITMAP
30
60
80
ENDCHAR
STARTCHAR 1FFE
ENCODING 8190
SWIDTH 462 0
DWIDTH 9 0
BBX 2 4 4 10
BITMAP
80
C0
80
40
ENDCHAR
STARTCHAR 2013
ENCODING 8211
SWIDTH 462 0
DWIDTH 9 0
BBX 7 1 1 5
BITMAP
FE
ENDCHAR
STARTCHAR 2014
ENCODING 8212
SWIDTH 462 0
DWIDTH 9 0
BBX 10 1 0 5
BITMAP
FFC0
ENDCHAR
STARTCHAR 2015
ENCODING 8213
SWIDTH 462 0
DWIDTH 9 0
BBX 10 1 0 5
BITMAP
FFC0
ENDCHAR
STARTCHAR 2018
ENCODING 8216
SWIDTH 462 0
DWIDTH 9 0
BBX 4 6 3 8
BITMAP
30
70
C0
E0
E0
40
ENDCHAR
STARTCHAR 2019
ENCODING 8217
SWIDTH 462 0
DWIDTH 9 0
BBX 4 6 3 8
BITMAP
20
70
70
20
E0
80
ENDCHAR
STARTCHAR 201A
ENCODING 8218
SWIDTH 462 0
DWIDTH 9 0
BBX 4 6 3 -3
BITMAP
20
70
70
20
E0
80
ENDCHAR
STARTCHAR 201C
ENCODING 8220
SWIDTH 462 0
DWIDTH 9 0
BBX 8 4 1 9
BITMAP
67
C4
CE
CE
ENDCHAR
STARTCHAR 201D
ENCODING 8221
SWIDTH 462 0
DWIDTH 9 0
BBX 8 4 1 9
BITMAP
67
67
23
CE
ENDCHAR
STARTCHAR 201E
ENCODING 8222
SWIDTH 462 0
DWIDTH 9 0
BBX 8 5 1 -3
BITMAP
67
67
23
EE
80
ENDCHAR
STARTCHAR 2020
ENCODING 8224
SWIDTH 462 0
DWIDTH 9 0
BBX 7 15 1 -3
BITMAP
18
18
18
18
FE
18
18
18
18
18
18
18
10
10
10
ENDCHAR
STARTCHAR 2021
ENCODING 8225
SWIDTH 462 0
DWIDTH 9 0
BBX 7 15 1 -3
BITMAP
18
18
18
18
FE
18
18
18
FE
FE
18
18
10
10
10
ENDCHAR
STARTCHAR 2022
ENCODING 8226
SWIDTH 462 0
DWIDTH 9 0
BBX 5 6 2 3
BITMAP
70
78
F8
F8
78
30
ENDCHAR
STARTCHAR 2026
ENCODING 8230
SWIDTH 462 0
DWIDTH 9 0
BBX 8 2 1 0
BITMAP
9B
DB
ENDCHAR
STARTCHAR 2030
ENCODING 8240
SWIDTH 462 0
DWIDTH 9 0
BBX 9 12 0 0
BITMAP
6000
A000
A180
A300
6C00
1800
6000
D980
1A80
2680
1680
1980
ENDCHAR
STARTCHAR 2039
ENCODING 8249
SWIDTH 462 0
DWIDTH 9 0
BBX 3 8 3 1
BITMAP
20
20
60
C0
C0
60
20
20
ENDCHAR
STARTCHAR 203A
ENCODING 8250
SWIDTH 462 0
DWIDTH 9 0
BBX 4 7 3 2
BITMAP
C0
60
30
30
60
40
C0
ENDCHAR
STARTCHAR 2044
ENCODING 8260
SWIDTH 462 0
DWIDTH 9 0
BBX 8 12 1 0
BITMAP
01
02
06
04
08
18
10
30
20
40
C0
80
ENDCHAR
STARTCHAR 2070
ENCODING 8304
SWIDTH 462 0
DWIDTH 9 0
BBX 5 7 2 5
BITMAP
78
C8
E8
E8
C8
58
30
ENDCHAR
STARTCHAR 2074
ENCODING 8308
SWIDTH 462 0
DWIDTH 9 0
BBX 5 7 2 5
BITMAP
18
38
58
D8
F8
18
18
ENDCHAR
STARTCHAR 2075
ENCODING 8309
SWIDTH 462 0
DWIDTH 9 0
BBX 4 7 3 5
BITMAP
F0
80
C0
30
10
B0
E0
ENDCHAR
STARTCHAR 2076
ENCODING 8310
SWIDTH 462 0
DWIDTH 9 0
BBX 5 7 2 5
BITMAP
38
60
70
C8
C8
48
30
ENDCHAR
STARTCHAR 2077
ENCODING 8311
SWIDTH 462 0
DWIDTH 9 0
BBX 5 7 3 5
BITMAP
F8
10
20
60
40
40
40
ENDCHAR
STARTCHAR 2078
ENCODING 8312
SWIDTH 462 0
DWIDTH 9 0
BBX 5 7 2 5
BITMAP
78
C8
78
78
C8
C8
30
ENDCHAR
STARTCHAR 2079
ENCODING 8313
SWIDTH 462 0
DWIDTH 9 0
BBX 5 7 3 5
BITMAP
F0
98
98
F8
10
E0
80
ENDCHAR
STARTCHAR 2080
ENCODING 8320
SWIDTH 462 0
DWIDTH 9 0
BBX 5 7 2 0
BITMAP
30
48
C8
F8
C8
48
78
ENDCHAR
STARTCHAR 2081
ENCODING 8321
SWIDTH 462 0
DWIDTH 9 0
BBX 4 7 3 0
BITMAP
20
E0
60
60
60
60
F0
ENDCHAR
STARTCHAR 2082
ENCODING 8322
SWIDTH 462 0
DWIDTH 9 0
BBX 4 7 3 0
BITMAP
E0
90
10
20
40
80
F0
ENDCHAR
STARTCHAR 2083
ENCODING 8323
SWIDTH 462 0
DWIDTH 9 0
BBX 4 7 3 0
BITMAP
E0
10
30
60
10
10
F0
ENDCHAR
STARTCHAR 2084
ENCODING 8324
SWIDTH 462 0
DWIDTH 9 0
BBX 5 7 2 0
BITMAP
18
38
78
58
F8
18
18
ENDCHAR
STARTCHAR 2085
ENCODING 8325
SWIDTH 462 0
DWIDTH 9 0
BBX 4 7 3 0
BITMAP
F0
80
80
F0
10
10
F0
ENDCHAR
STARTCHAR 2086
ENCODING 8326
SWIDTH 462 0
DWIDTH 9 0
BBX 5 7 2 0
BITMAP
18
70
40
F8
C8
48
78
ENDCHAR
STARTCHAR 2087
ENCODING 8327
SWIDTH 462 0
DWIDTH 9 0
BBX 5 7 3 0
BITMAP
F8
10
30
20
60
40
40
ENDCHAR
STARTCHAR 2088
ENCODING 8328
SWIDTH 462 0
DWIDTH 9 0
BBX 5 7 2 0
BITMAP
70
48
48
70
C8
C8
78
ENDCHAR
STARTCHAR 2089
ENCODING 8329
SWIDTH 462 0
DWIDTH 9 0
BBX 5 7 3 0
BITMAP
70
90
98
F8
10
30
E0
ENDCHAR
STARTCHAR 20AC
ENCODING 8364
SWIDTH 462 0
DWIDTH 9 0
BBX 8 12 1 0
BITMAP
1F
30
60
60
FC
60
60
FC
60
60
31
1F
ENDCHAR
STARTCHAR 20AE
ENCODING 8366
SWIDTH 462 0
DWIDTH 9 0
BBX 8 12 1 0
BITMAP
FF
18
18
1A
1C
78
5A
1E
38
78
18
18
ENDCHAR
STARTCHAR 20B4
ENCODING 8372
SWIDTH 462 0
DWIDTH 9 0
BBX 8 12 1 0
BITMAP
7C
06
02
02
FF
1C
30
FF
C0
C0
60
7F
ENDCHAR
STARTCHAR 20B9
ENCODING 8377
SWIDTH 462 0
DWIDTH 9 0
BBX 8 12 1 0
BITMAP
FF
0C
04
FF
04
1C
F0
60
30
38
18
0C
ENDCHAR
STARTCHAR 2113
ENCODING 8467
SWIDTH 462 0
DWIDTH 9 0
BBX 7 13 1 0
BITMAP
1E
32
22
22
26
24
2C
38
30
60
A0
32
1E
ENDCHAR
STARTCHAR 2116
ENCODING 8470
SWIDTH 462 0
DWIDTH 9 0
BBX 8 12 1 0
BITMAP
93
95
D5
D5
D5
D3
B0
B0
B7
B0
90
90
ENDCHAR
STARTCHAR 2122
ENCODING 8482
SWIDTH 462 0
DWIDTH 9 0
BBX 9 5 0 7
BITMAP
F480
2580
2780
2A80
2880
ENDCHAR
STARTCHAR 2126
ENCODING 8486
SWIDTH 462 0
DWIDTH 9 0
BBX 9 12 0 0
BITMAP
1E00
3300
6180
6180
4180
4180
4180
6180
6180
2100
3200
F380
ENDCHAR
STARTCHAR 212E
ENCODING 8494
SWIDTH 462 0
DWIDTH 9 0
BBX 8 8 1 0
BITMAP
18
66
81
81
FE
80
80
7E
ENDCHAR
STARTCHAR 2153
ENCODING 8531
SWIDTH 462 0
DWIDTH 9 0
BBX 9 12 0 0
BITMAP
2180
E100
2200
2600
2400
0C00
0800
1380
3080
2380
6080
4380
ENDCHAR
STARTCHAR 2154
ENCODING 8532
SWIDTH 462 0
DWIDTH 9 0
BBX 9 12 0 0
BITMAP
F080
1100
3300
4200
F600
0400
0800
1B80
1080
3380
2080
4380
ENDCHAR
STARTCHAR 2155
ENCODING 8533
SWIDTH 462 0
DWIDTH 9 0
BBX 9 12 0 0
BITMAP
2180
E100
2200
2600
2400
0C00
0800
1380
3200
2380
4080
4780
ENDCHAR
STARTCHAR 2156
ENCODING 8534
SWIDTH 462 0
DWIDTH 9 0
BBX 9 12 0 0
BITMAP
F080
1100
3300
4200
F600
0400
0800
1B80
1200
3380
2080
4780
ENDCHAR
STARTCHAR 2157
ENCODING 8535
SWIDTH 462 0
DWIDTH 9 0
BBX 9 12 0 0
BITMAP
7080
1100
7300
1200
E400
0400
0800
1B80
1200
2380
6080
4780
ENDCHAR
STARTCHAR 2158
ENCODING 8536
SWIDTH 462 0
DWIDTH 9 0
BBX 9 12 0 0
BITMAP
3080
5100
5100
FA00
1600
0400
0800
1B80
1200
3380
2080
4780
ENDCHAR
STARTCHAR 2159
ENCODING 8537
SWIDTH 462 0
DWIDTH 9 0
BBX 9 12 0 0
BITMAP
2100
E300
2200
2600
2400
0800
1800
1300
2400
2700
4580
C700
ENDCHAR
STARTCHAR 215A
ENCODING 8538
SWIDTH 462 0
DWIDTH 9 0
BBX 8 12 1 0
BITMAP
E1
82
66
24
E8
08
10
36
28
4E
CB
8E
ENDCHAR
STARTCHAR 215B
ENCODING 8539
SWIDTH 462 0
DWIDTH 9 0
BBX 9 12 0 0
BITMAP
2100
E300
2200
2600
2400
0800
1800
1780
2480
2300
4480
C780
ENDCHAR
STARTCHAR 215C
ENCODING 8540
SWIDTH 462 0
DWIDTH 9 0
BBX 9 12 0 0
BITMAP
7180
1100
7200
1600
E400
0C00
0800
1780
3480
2300
4480
4780
ENDCHAR
STARTCHAR 215D
ENCODING 8541
SWIDTH 462 0
DWIDTH 9 0
BBX 9 12 0 0
BITMAP
7180
4100
3200
1600
E400
0C00
0800
1780
3480
2300
4480
4780
ENDCHAR
STARTCHAR 215E
ENCODING 8542
SWIDTH 462 0
DWIDTH 9 0
BBX 8 12 1 0
BITMAP
E3
62
44
4C
C8
18
10
2F
69
46
89
8F
ENDCHAR
STARTCHAR 2202
ENCODING 8706
SWIDTH 462 0
DWIDTH 9 0
BBX 8 13 1 0
BITMAP
7C
06
06
02
1B
7F
C3
C3
82
82
C6
CC
78
ENDCHAR
STARTCHAR 2206
ENCODING 8710
SWIDTH 462 0
DWIDTH 9 0
BBX 9 12 0 0
BITMAP
0C00
1C00
1600
1200
3200
2300
2300
6100
6180
4180
4180
FF80
ENDCHAR
STARTCHAR 220F
ENCODING 8719
SWIDTH 462 0
DWIDTH 9 0
BBX 8 14 1 -2
BITMAP
FF
C3
C3
C3
C3
C3
C3
C3
C3
C3
C3
C3
C3
C3
ENDCHAR
STARTCHAR 2211
ENCODING 8721
SWIDTH 462 0
DWIDTH 9 0
BBX 8 14 1 -2
BITMAP
FF
C0
60
20
30
18
08
18
10
30
60
40
C0
FF
ENDCHAR
STARTCHAR 2212
ENCODING 8722
SWIDTH 462 0
DWIDTH 9 0
BBX 8 2 1 4
BITMAP
FF
FF
ENDCHAR
STARTCHAR 2215
ENCODING 8725
SWIDTH 462 0
DWIDTH 9 0
BBX 8 12 1 0
BITMAP
01
02
06
04
08
18
10
30
20
40
C0
80
ENDCHAR
STARTCHAR 2219
ENCODING 8729
SWIDTH 462 0
DWIDTH 9 0
BBX 3 3 3 4
BITMAP
60
E0
60
ENDCHAR
STARTCHAR 221A
ENCODING 8730
SWIDTH 462 0
DWIDTH 9 0
BBX 8 14 1 0
BITMAP
01
01
03
03
02
02
06
44
E4
24
2C
38
18
18
ENDCHAR
STARTCHAR 221E
ENCODING 8734
SWIDTH 462 0
DWIDTH 9 0
BBX 8 5 1 3
BITMAP
44
FF
99
99
FF
ENDCHAR
STARTCHAR 222B
ENCODING 8747
SWIDTH 462 0
DWIDTH 9 0
BBX 7 16 1 -3
BITMAP
0E
18
18
18
18
18
18
18
18
18
18
18
18
18
30
F0
ENDCHAR
STARTCHAR 2248
ENCODING 8776
SWIDTH 462 0
DWIDTH 9 0
BBX 8 6 1 2
BITMAP
F1
9E
00
60
FB
8E
ENDCHAR
STARTCHAR 2260
ENCODING 8800
SWIDTH 462 0
DWIDTH 9 0
BBX 8 9 1 0
BITMAP
04
04
FF
FF
18
10
FF
20
60
ENDCHAR
STARTCHAR 2264
ENCODING 8804
SWIDTH 462 0
DWIDTH 9 0
BBX 8 10 1 0
BITMAP
03
0E
78
E0
E0
3C
0F
00
00
FF
ENDCHAR
STARTCHAR 2265
ENCODING 8805
SWIDTH 462 0
DWIDTH 9 0
BBX 8 10 1 0
BITMAP
C0
F0
1C
07
0F
3C
E0
80
00
FF
ENDCHAR
STARTCHAR 2500
ENCODING 9472
SWIDTH 462 0
DWIDTH 9 0
BBX 10 1 0 6
BITMAP
FFC0
ENDCHAR
STARTCHAR 2502
ENCODING 9474
SWIDTH 462 0
DWIDTH 9 0
BBX 2 19 4 -3
BITMAP
C0
C0
C0
C0
C0
C0
C0
C0
C0
C0
C0
C0
C0
C0
C0
C0
C0
C0
C0
ENDCHAR
STARTCHAR 250C
ENCODING 9484
SWIDTH 462 0
DWIDTH 9 0
BBX 6 10 4 -3
BITMAP
FC
C0
C0
C0
C0
C0
C0
C0
C0
C0
ENDCHAR
STARTCHAR 2510
ENCODING 9488
SWIDTH 462 0
DWIDTH 9 0
BBX 6 10 0 -3
BITMAP
FC
0C
0C
0C
0C
0C
0C
0C
0C
0C
ENDCHAR
STARTCHAR 2514
ENCODING 9492
SWIDTH 462 0
DWIDTH 9 0
BBX 6 10 4 6
BITMAP
C0
C0
C0
C0
C0
C0
C0
C0
C0
FC
ENDCHAR
STARTCHAR 2518
ENCODING 9496
SWIDTH 462 0
DWIDTH 9 0
BBX 6 10 0 6
BITMAP
0C
0C
0C
0C
0C
0C
0C
0C
0C
FC
ENDCHAR
STARTCHAR 251C
ENCODING 9500
SWIDTH 462 0
DWIDTH 9 0
BBX 6 19 4 -3
BITMAP
C0
C0
C0
C0
C0
C0
C0
C0
C0
FC
C0
C0
C0
C0
C0
C0
C0
C0
C0
ENDCHAR
STARTCHAR 2524
ENCODING 9508
SWIDTH 462 0
DWIDTH 9 0
BBX 6 19 0 -3
BITMAP
0C
0C
0C
0C
0C
0C
0C
0C
0C
FC
0C
0C
0C
0C
0C
0C
0C
0C
0C
ENDCHAR
STARTCHAR 252C
ENCODING 9516
SWIDTH 462 0
DWIDTH 9 0
BBX 10 10 0 -3
BITMAP
FFC0
0C00
0C00
0C00
0C00
0C00
0C00
0C00
0C00
0C00
ENDCHAR
STARTCHAR 2534
ENCODING 9524
SWIDTH 462 0
DWIDTH 9 0
BBX 10 10 0 6
BITMAP
0C00
0C00
0C00
0C00
0C00
0C00
0C00
0C00
0C00
FFC0
ENDCHAR
STARTCHAR 253C
ENCODING 9532
SWIDTH 462 0
DWIDTH 9 0
BBX 10 19 0 -3
BITMAP
0C00
0C00
0C00
0C00
0C00
0C00
0C00
0C00
0C00
FFC0
0C00
0C00
0C00
0C00
0C00
0C00
0C00
0C00
0C00
ENDCHAR
STARTCHAR 2550
ENCODING 9552
SWIDTH 462 0
DWIDTH 9 0
BBX 10 5 0 4
BITMAP
FFC0
FFC0
0000
FFC0
FFC0
ENDCHAR
STARTCHAR 2551
ENCODING 9553
SWIDTH 462 0
DWIDTH 9 0
BBX 4 19 3 -3
BITMAP
90
90
90
90
90
90
90
90
90
90
90
90
90
90
90
90
90
90
90
ENDCHAR
STARTCHAR 2552
ENCODING 9554
SWIDTH 462 0
DWIDTH 9 0
BBX 6 12 4 -3
BITMAP
FC
FC
00
FC
FC
C0
C0
C0
C0
C0
C0
C0
ENDCHAR
STARTCHAR 2553
ENCODING 9555
SWIDTH 462 0
DWIDTH 9 0
BBX 7 10 3 -3
BITMAP
9E
90
90
90
90
90
90
90
90
90
ENDCHAR
STARTCHAR 2554
ENCODING 9556
SWIDTH 462 0
DWIDTH 9 0
BBX 7 12 3 -3
BITMAP
FE
FE
80
9E
9E
90
90
90
90
90
90
90
ENDCHAR
STARTCHAR 2555
ENCODING 9557
SWIDTH 462 0
DWIDTH 9 0
BBX 6 12 0 -3
BITMAP
FC
FC
00
FC
FC
0C
0C
0C
0C
0C
0C
0C
ENDCHAR
STARTCHAR 2556
ENCODING 9558
SWIDTH 462 0
DWIDTH 9 0
BBX 7 10 0 -3
BITMAP
F2
12
12
12
12
12
12
12
12
12
ENDCHAR
STARTCHAR 2557
ENCODING 9559
SWIDTH 462 0
DWIDTH 9 0
BBX 7 12 0 -3
BITMAP
FE
FE
02
F2
F2
12
12
12
12
12
12
12
ENDCHAR
STARTCHAR 2558
ENCODING 9560
SWIDTH 462 0
DWIDTH 9 0
BBX 6 12 4 4
BITMAP
C0
C0
C0
C0
C0
C0
C0
FC
FC
00
FC
FC
ENDCHAR
STARTCHAR 2559
ENCODING 9561
SWIDTH 462 0
DWIDTH 9 0
BBX 7 10 3 6
BITMAP
90
90
90
90
90
90
90
90
90
9E
ENDCHAR
STARTCHAR 255A
ENCODING 9562
SWIDTH 462 0
DWIDTH 9 0
BBX 7 12 3 4
BITMAP
90
90
90
90
90
90
90
9E
9E
80
FE
FE
ENDCHAR
STARTCHAR 255B
ENCODING 9563
SWIDTH 462 0
DWIDTH 9 0
BBX 6 12 0 4
BITMAP
0C
0C
0C
0C
0C
0C
0C
FC
FC
00
FC
FC
ENDCHAR
STARTCHAR 255C
ENCODING 9564
SWIDTH 462 0
DWIDTH 9 0
BBX 7 10 0 6
BITMAP
12
12
12
12
12
12
12
12
12
F2
ENDCHAR
STARTCHAR 255D
ENCODING 9565
SWIDTH 462 0
DWIDTH 9 0
BBX 7 12 0 4
BITMAP
12
12
12
12
12
12
12
F2
F2
02
FE
FE
ENDCHAR
STARTCHAR 255E
ENCODING 9566
SWIDTH 462 0
DWIDTH 9 0
BBX 6 19 4 -3
BITMAP
C0
C0
C0
C0
C0
C0
C0
FC
FC
00
FC
FC
C0
C0
C0
C0
C0
C0
C0
ENDCHAR
STARTCHAR 255F
ENCODING 9567
SWIDTH 462 0
DWIDTH 9 0
BBX 7 19 3 -3
BITMAP
90
90
90
90
90
90
90
90
90
9E
90
90
90
90
90
90
90
90
90
ENDCHAR
STARTCHAR 2560
ENCODING 9568
SWIDTH 462 0
DWIDTH 9 0
BBX 7 19 3 -3
BITMAP
90
90
90
90
90
90
90
9E
9E
80
9E
9E
90
90
90
90
90
90
90
ENDCHAR
STARTCHAR 2561
ENCODING 9569
SWIDTH 462 0
DWIDTH 9 0
BBX 6 19 0 -3
BITMAP
0C
0C
0C
0C
0C
0C
0C
FC
FC
00
FC
FC
0C
0C
0C
0C
0C
0C
0C
ENDCHAR
STARTCHAR 2562
ENCODING 9570
SWIDTH 462 0
DWIDTH 9 0
BBX 7 19 0 -3
BITMAP
12
12
12
12
12
12
12
12
12
F2
12
12
12
12
12
12
12
12
12
ENDCHAR
STARTCHAR 2563
ENCODING 9571
SWIDTH 462 0
DWIDTH 9 0
BBX 7 19 0 -3
BITMAP
12
12
12
12
12
12
12
F2
F2
02
F2
F2
12
12
12
12
12
12
12
ENDCHAR
STARTCHAR 2564
ENCODING 9572
SWIDTH 462 0
DWIDTH 9 0
BBX 10 12 0 -3
BITMAP
FFC0
FFC0
0000
FFC0
FFC0
0C00
0C00
0C00
0C00
0C00
0C00
0C00
ENDCHAR
STARTCHAR 2565
ENCODING 9573
SWIDTH 462 0
DWIDTH 9 0
BBX 10 10 0 -3
BITMAP
FFC0
1200
1200
1200
1200
1200
1200
1200
1200
1200
ENDCHAR
STARTCHAR 2566
ENCODING 9574
SWIDTH 462 0
DWIDTH 9 0
BBX 10 12 0 -3
BITMAP
FFC0
FFC0
0000
F3C0
F3C0
1200
1200
1200
1200
1200
1200
1200
ENDCHAR
STARTCHAR 2567
ENCODING 9575
SWIDTH 462 0
DWIDTH 9 0
BBX 10 12 0 4
BITMAP
0C00
0C00
0C00
0C00
0C00
0C00
0C00
FFC0
FFC0
0000
FFC0
FFC0
ENDCHAR
STARTCHAR 2568
ENCODING 9576
SWIDTH 462 0
DWIDTH 9 0
BBX 10 10 0 6
BITMAP
1200
1200
1200
1200
1200
1200
1200
1200
1200
FFC0
ENDCHAR
STARTCHAR 2569
ENCODING 9577
SWIDTH 462 0
DWIDTH 9 0
BBX 10 12 0 4
BITMAP
1200
1200
1200
1200
1200
1200
1200
F3C0
F3C0
0000
FFC0
FFC0
ENDCHAR
STARTCHAR 256A
ENCODING 9578
SWIDTH 462 0
DWIDTH 9 0
BBX 10 19 0 -3
BITMAP
0C00
0C00
0C00
0C00
0C00
0C00
0C00
FFC0
FFC0
0C00
FFC0
FFC0
0C00
0C00
0C00
0C00
0C00
0C00
0C00
ENDCHAR
STARTCHAR 256B
ENCODING 9579
SWIDTH 462 0
DWIDTH 9 0
BBX 10 19 0 -3
BITMAP
1200
1200
1200
1200
1200
1200
1200
1200
1200
FFC0
1200
1200
1200
1200
1200
1200
1200
1200
1200
ENDCHAR
STARTCHAR 256C
ENCODING 9580
SWIDTH 462 0
DWIDTH 9 0
BBX 10 19 0 -3
BITMAP
1200
1200
1200
1200
1200
1200
1200
F3C0
F3C0
0000
F3C0
F3C0
1200
1200
1200
1200
1200
1200
1200
ENDCHAR
STARTCHAR 2588
ENCODING 9608
SWIDTH 462 0
DWIDTH 9 0
BBX 10 19 0 -3
BITMAP
FFC0
FFC0
FFC0
FFC0
FFC0
FFC0
FFC0
FFC0
FFC0
FFC0
FFC0
FFC0
FFC0
FFC0
FFC0
FFC0
FFC0
FFC0
FFC0
ENDCHAR
STARTCHAR 2591
ENCODING 9617
SWIDTH 462 0
DWIDTH 9 0
BBX 10 19 0 -3
BITMAP
9240
0000
0000
9240
0000
0000
9240
0000
0000
9240
0000
0000
9240
0000
0000
9240
0000
0000
9240
ENDCHAR
STARTCHAR 2592
ENCODING 9618
SWIDTH 462 0
DWIDTH 9 0
BBX 10 19 0 -3
BITMAP
9240
6D80
0000
9240
6D80
0000
9240
6D80
0000
9240
6D80
0000
9240
0000
0000
9240
0000
0000
9240
ENDCHAR
STARTCHAR 2593
ENCODING 9619
SWIDTH 462 0
DWIDTH 9 0
BBX 10 19 0 -3
BITMAP
FFC0
FFC0
DB40
FFC0
FFC0
DB40
FFC0
FFC0
DB40
FFC0
FFC0
DB40
FFC0
DB40
FFC0
FFC0
DB40
FFC0
FFC0
ENDCHAR
STARTCHAR 25CA
ENCODING 9674
SWIDTH 462 0
DWIDTH 9 0
BBX 8 12 1 0
BITMAP
10
18
3C
64
46
C3
C3
46
64
3C
18
10
ENDCHAR
STARTCHAR E0FF
ENCODING 57599
SWIDTH 462 0
DWIDTH 9 0
BBX 8 7 1 6
BITMAP
7C
66
DB
BF
DA
7E
3C
ENDCHAR
STARTCHAR EFFD
ENCODING 61437
SWIDTH 462 0
DWIDTH 9 0
BBX 11 12 0 0
BITMAP
79E0
CA20
AB60
A9E0
CA20
5B60
31C0
0000
0000
0600
0E00
0E00
ENDCHAR
STARTCHAR F000
ENCODING 61440
SWIDTH 462 0
DWIDTH 9 0
BBX 16 13 -3 0
BITMAP
7E3F
8281
8281
8281
8281
0201
FC7E
8281
8281
8281
8281
8281
FC7E
ENDCHAR
STARTCHAR F001
ENCODING 61441
SWIDTH 462 0
DWIDTH 9 0
BBX 8 13 1 0
BITMAP
7B
63
40
40
FB
43
43
43
43
43
43
43
43
ENDCHAR
STARTCHAR F002
ENCODING 61442
SWIDTH 462 0
DWIDTH 9 0
BBX 8 13 1 0
BITMAP
7B
63
43
43
FB
43
43
43
43
43
43
43
43
ENDCHAR
STARTCHAR F506
ENCODING 62726
SWIDTH 462 0
DWIDTH 9 0
BBX 9 12 0 0
BITMAP
2100
E300
2200
2600
2400
0800
1800
1380
2180
2100
4300
C200
ENDCHAR
STARTCHAR F507
ENCODING 62727
SWIDTH 462 0
DWIDTH 9 0
BBX 9 12 0 0
BITMAP
F080
1100
3300
4200
F600
0400
0800
1B80
1180
3100
2300
4200
ENDCHAR
STARTCHAR F508
ENCODING 62728
SWIDTH 462 0
DWIDTH 9 0
BBX 9 12 0 0
BITMAP
7180
1100
7300
1200
E400
0C00
0800
1B80
1180
2100
6300
4200
ENDCHAR
STARTCHAR F509
ENCODING 62729
SWIDTH 462 0
DWIDTH 9 0
BBX 9 12 0 0
BITMAP
3080
5100
5300
FA00
1600
0400
0800
1B80
1080
2100
2100
4300
ENDCHAR
STARTCHAR F50A
ENCODING 62730
SWIDTH 462 0
DWIDTH 9 0
BBX 9 12 0 0
BITMAP
7180
4100
3200
1600
E400
0C00
0800
1380
3080
2100
6100
4300
ENDCHAR
STARTCHAR F50B
ENCODING 62731
SWIDTH 462 0
DWIDTH 9 0
BBX 9 12 0 0
BITMAP
7080
6100
D300
D200
7400
0C00
0800
1B80
1180
2100
6300
4200
ENDCHAR
STARTCHAR F50C
ENCODING 62732
SWIDTH 462 0
DWIDTH 9 0
BBX 9 12 0 0
BITMAP
2100
E300
2200
2600
2400
0800
1800
1380
2480
2780
4080
C300
ENDCHAR
STARTCHAR F50D
ENCODING 62733
SWIDTH 462 0
DWIDTH 9 0
BBX 9 12 0 0
BITMAP
F080
1100
3300
4200
F600
0400
0800
1B80
1480
2780
6080
4300
ENDCHAR
STARTCHAR F50E
ENCODING 62734
SWIDTH 462 0
DWIDTH 9 0
BBX 9 12 0 0
BITMAP
3080
5100
5300
FA00
1600
0400
0800
1B80
1480
3780
2080
4300
ENDCHAR
STARTCHAR F50F
ENCODING 62735
SWIDTH 462 0
DWIDTH 9 0
BBX 9 12 0 0
BITMAP
7180
4100
3200
1600
E400
0C00
0800
1380
3480
2780
6080
4300
ENDCHAR
STARTCHAR F510
ENCODING 62736
SWIDTH 462 0
DWIDTH 9 0
BBX 8 12 1 0
BITMAP
E3
62
44
4C
C8
18
10
27
69
4F
81
86
ENDCHAR
STARTCHAR F511
ENCODING 62737
SWIDTH 462 0
DWIDTH 9 0
BBX 9 12 0 0
BITMAP
7080
5100
7300
DA00
7600
0400
0800
1B80
1480
3780
2080
4300
ENDCHAR
STARTCHAR F80A
ENCODING 63498
SWIDTH 462 0
DWIDTH 9 0
BBX 5 7 2 7
BITMAP
78
C8
E8
E8
C8
78
30
ENDCHAR
STARTCHAR F80B
ENCODING 63499
SWIDTH 462 0
DWIDTH 9 0
BBX 5 6 3 8
BITMAP
60
A0
20
20
20
F8
ENDCHAR
STARTCHAR F80C
ENCODING 63500
SWIDTH 462 0
DWIDTH 9 0
BBX 5 6 2 8
BITMAP
F8
08
18
30
60
78
ENDCHAR
STARTCHAR F80D
ENCODING 63501
SWIDTH 462 0
DWIDTH 9 0
BBX 4 7 3 7
BITMAP
F0
10
60
30
10
F0
60
ENDCHAR
STARTCHAR F80E
ENCODING 63502
SWIDTH 462 0
DWIDTH 9 0
BBX 5 6 2 8
BITMAP
18
38
58
D8
F8
18
ENDCHAR
STARTCHAR F80F
ENCODING 63503
SWIDTH 462 0
DWIDTH 9 0
BBX 5 7 2 7
BITMAP
78
40
70
18
08
F8
60
ENDCHAR
STARTCHAR F810
ENCODING 63504
SWIDTH 462 0
DWIDTH 9 0
BBX 5 7 2 7
BITMAP
38
40
F0
88
C8
58
30
ENDCHAR
STARTCHAR F811
ENCODING 63505
SWIDTH 462 0
DWIDTH 9 0
BBX 5 6 2 8
BITMAP
F8
18
10
30
20
20
ENDCHAR
STARTCHAR F812
ENCODING 63506
SWIDTH 462 0
DWIDTH 9 0
BBX 5 7 2 7
BITMAP
78
C8
78
78
C8
58
30
ENDCHAR
STARTCHAR F813
ENCODING 63507
SWIDTH 462 0
DWIDTH 9 0
BBX 5 6 2 8
BITMAP
78
C8
C8
78
08
70
ENDCHAR
STARTCHAR F814
ENCODING 63508
SWIDTH 462 0
DWIDTH 9 0
BBX 5 7 2 -3
BITMAP
30
48
C8
F8
C8
48
78
ENDCHAR
STARTCHAR F815
ENCODING 63509
SWIDTH 462 0
DWIDTH 9 0
BBX 5 7 3 -3
BITMAP
20
E0
20
20
20
20
F8
ENDCHAR
STARTCHAR F816
ENCODING 63510
SWIDTH 462 0
DWIDTH 9 0
BBX 4 7 3 -3
BITMAP
E0
90
10
20
40
80
F0
ENDCHAR
STARTCHAR F817
ENCODING 63511
SWIDTH 462 0
DWIDTH 9 0
BBX 4 7 3 -3
BITMAP
E0
10
10
60
10
10
F0
ENDCHAR
STARTCHAR F818
ENCODING 63512
SWIDTH 462 0
DWIDTH 9 0
BBX 5 7 2 -3
BITMAP
18
38
78
58
F8
18
18
ENDCHAR
STARTCHAR F819
ENCODING 63513
SWIDTH 462 0
DWIDTH 9 0
BBX 5 7 2 -3
BITMAP
78
40
40
70
08
08
F0
ENDCHAR
STARTCHAR F81A
ENCODING 63514
SWIDTH 462 0
DWIDTH 9 0
BBX 5 7 2 -3
BITMAP
18
60
40
F8
88
C8
78
ENDCHAR
STARTCHAR F81B
ENCODING 63515
SWIDTH 462 0
DWIDTH 9 0
BBX 5 7 2 -3
BITMAP
F8
08
10
10
20
20
20
ENDCHAR
STARTCHAR F81C
ENCODING 63516
SWIDTH 462 0
DWIDTH 9 0
BBX 5 7 2 -3
BITMAP
70
48
48
70
C8
C8
78
ENDCHAR
STARTCHAR F81D
ENCODING 63517
SWIDTH 462 0
DWIDTH 9 0
BBX 5 7 2 -3
BITMAP
70
48
C8
78
08
18
60
ENDCHAR
STARTCHAR FB01
ENCODING 64257
SWIDTH 462 0
DWIDTH 9 0
BBX 8 13 1 0
BITMAP
7B
63
40
40
FB
43
43
43
43
43
43
43
43
ENDCHAR
STARTCHAR FB02
ENCODING 64258
SWIDTH 462 0
DWIDTH 9 0
BBX 8 13 1 0
BITMAP
7B
63
43
43
FB
43
43
43
43
43
43
43
43
ENDCHAR
STARTCHAR FFFD
ENCODING 65533
SWIDTH 462 0
DWIDTH 9 0
BBX 10 9 0 0
BITMAP
0C00
1E00
2100
7D80
FBC0
7780
3F00
1600
0C00
ENDCHAR
ENDFONT
